<?xml version="1.0" encoding="utf-8" standalone="no"?>
<!DOCTYPE svg PUBLIC "-//W3C//DTD SVG 1.1//EN"
  "http://www.w3.org/Graphics/SVG/1.1/DTD/svg11.dtd">
<!-- Created with matplotlib (http://matplotlib.org/) -->
<svg height="270pt" version="1.1" viewBox="0 0 403 270" width="403pt" xmlns="http://www.w3.org/2000/svg" xmlns:xlink="http://www.w3.org/1999/xlink">
 <defs>
  <style type="text/css">
*{stroke-linecap:butt;stroke-linejoin:round;}
  </style>
 </defs>
 <g id="figure_1">
  <g id="patch_1">
   <path d="M 0 270 
L 403.2 270 
L 403.2 0 
L 0 0 
z
" style="fill:#ffffff;"/>
  </g>
  <g id="axes_1">
   <g id="patch_2">
    <path d="M 72.576 221.4 
L 383.04 221.4 
L 383.04 32.4 
L 72.576 32.4 
z
" style="fill:#ffffff;"/>
   </g>
   <g id="PolyCollection_1">
    <path clip-path="url(#p9b64a229d6)" d="M 41.5296 32.4 
L 41.5296 54.635294 
L 429.6096 54.635294 
L 429.6096 32.4 
L 429.6096 32.4 
L 41.5296 32.4 
z
" style="fill:#ff0000;fill-opacity:0.25;"/>
   </g>
   <g id="matplotlib.axis_1">
    <g id="xtick_1">
     <g id="line2d_1">
      <path clip-path="url(#p9b64a229d6)" d="M 72.576 221.4 
L 72.576 32.4 
" style="fill:none;stroke:#b0b0b0;stroke-linecap:square;stroke-width:0.8;"/>
     </g>
     <g id="line2d_2">
      <defs>
       <path d="M 0 0 
L 0 3.5 
" id="m6933d915c5" style="stroke:#000000;stroke-width:0.8;"/>
      </defs>
      <g>
       <use style="stroke:#000000;stroke-width:0.8;" x="72.576" xlink:href="#m6933d915c5" y="221.4"/>
      </g>
     </g>
     <g id="text_1">
      <!-- $2$ -->
      <defs>
       <path d="M 6.5 8.5625 
C 5.5 7.546875 5.5 7.34375 5.5 5.640625 
L 5.5 4.828125 
C 5.5 1.21875 6.59375 0 10.296875 0 
L 44.59375 0 
C 48.40625 0 49.40625 1.296875 49.40625 4.796875 
L 49.40625 6.015625 
C 49.40625 7.625 49.40625 9.515625 47.296875 10.421875 
C 46.59375 10.8125 43.40625 10.8125 41.40625 10.8125 
C 39.203125 10.8125 36.796875 10.8125 34.59375 10.8125 
L 18.40625 10.8125 
L 31.59375 23.390625 
C 33.09375 24.703125 36.90625 27.828125 38.40625 29.234375 
C 43.90625 34.671875 49.40625 40 49.40625 48.953125 
C 49.40625 61.234375 40.59375 72.109375 25.90625 72.109375 
C 22.40625 72.109375 16.703125 71.59375 11.90625 67.65625 
C 11 66.953125 6.40625 63.328125 4.59375 56.5625 
L 9.59375 50.140625 
C 10.203125 49.328125 10.5 48.921875 11.203125 48.921875 
C 12.09375 48.921875 12.296875 49.625 12.59375 50.828125 
C 14.59375 57.765625 18 62 24.40625 62 
C 32.203125 62 35.40625 54.859375 35.40625 48.703125 
C 35.40625 42.265625 31.59375 35.53125 25.59375 29.078125 
z
" id="CMSSBX10-50"/>
      </defs>
      <g transform="translate(69.288311 236.70218)scale(0.12 -0.12)">
       <use transform="scale(0.996264)" xlink:href="#CMSSBX10-50"/>
      </g>
     </g>
    </g>
    <g id="xtick_2">
     <g id="line2d_3">
      <path clip-path="url(#p9b64a229d6)" d="M 103.6224 221.4 
L 103.6224 32.4 
" style="fill:none;stroke:#b0b0b0;stroke-linecap:square;stroke-width:0.8;"/>
     </g>
     <g id="line2d_4">
      <g>
       <use style="stroke:#000000;stroke-width:0.8;" x="103.6224" xlink:href="#m6933d915c5" y="221.4"/>
      </g>
     </g>
     <g id="text_2">
      <!-- $4$ -->
      <defs>
       <path d="M 3.90625 26.484375 
C 3.09375 24.96875 3.09375 24.671875 3.09375 22.875 
L 3.09375 20.34375 
C 3.09375 17.125 3.796875 15.515625 7.90625 15.515625 
L 30.40625 15.515625 
L 30.40625 4.859375 
C 30.40625 1.609375 31.09375 0 35.203125 0 
L 38 0 
C 41.796875 0 42.796875 1.3125 42.796875 4.859375 
L 42.796875 15.515625 
L 47 15.515625 
C 50.09375 15.515625 51.796875 16.21875 51.796875 20.25 
C 51.796875 24 50.5 25 47 25 
L 42.796875 25 
L 42.796875 65.171875 
C 42.796875 68.796875 41.703125 70 38 70 
L 30.703125 70 
C 28.796875 70 27.296875 70 26.09375 67.6875 
z
M 13.5 25 
C 29.5 54.59375 30.40625 57.703125 30.90625 59.421875 
L 31 59.421875 
L 31 25 
z
" id="CMSSBX10-52"/>
      </defs>
      <g transform="translate(100.334711 236.70218)scale(0.12 -0.12)">
       <use transform="scale(0.996264)" xlink:href="#CMSSBX10-52"/>
      </g>
     </g>
    </g>
    <g id="xtick_3">
     <g id="line2d_5">
      <path clip-path="url(#p9b64a229d6)" d="M 134.6688 221.4 
L 134.6688 32.4 
" style="fill:none;stroke:#b0b0b0;stroke-linecap:square;stroke-width:0.8;"/>
     </g>
     <g id="line2d_6">
      <g>
       <use style="stroke:#000000;stroke-width:0.8;" x="134.6688" xlink:href="#m6933d915c5" y="221.4"/>
      </g>
     </g>
     <g id="text_3">
      <!-- $6$ -->
      <defs>
       <path d="M 43.203125 68.09375 
C 43.203125 70.53125 43.203125 70.640625 39.703125 71.96875 
C 37.09375 73 34.40625 73 33.40625 73 
C 4.59375 73 4.59375 43.71875 4.59375 34.78125 
C 4.59375 24.3125 4.59375 -2 27.90625 -2 
C 35.59375 -2 40.40625 -0.09375 44.5 4.515625 
C 49.703125 10.34375 50.296875 16.0625 50.296875 23.890625 
C 50.296875 29.609375 50.296875 48.28125 30.796875 48.28125 
C 25.296875 48.28125 21.296875 45.140625 18.59375 39.296875 
C 19.09375 48.671875 19.203125 50.984375 20.703125 55.140625 
C 23.59375 63.0625 30.203125 64 33.703125 64 
C 35.5 64 38.09375 63.6875 40.5 62.296875 
C 41.203125 61.765625 41.5 61.546875 42 61.546875 
C 43.203125 61.546875 43.203125 62.78125 43.203125 64.3125 
z
M 27.796875 7.5 
C 19.90625 7.5 18.796875 16.5 18.796875 25.09375 
C 18.796875 33.40625 21.203125 41 28.296875 41 
C 36.296875 41 36.296875 33.90625 36.296875 24 
C 36.296875 14.203125 36.296875 7.5 27.796875 7.5 
z
" id="CMSSBX10-54"/>
      </defs>
      <g transform="translate(131.381111 236.70218)scale(0.12 -0.12)">
       <use transform="scale(0.996264)" xlink:href="#CMSSBX10-54"/>
      </g>
     </g>
    </g>
    <g id="xtick_4">
     <g id="line2d_7">
      <path clip-path="url(#p9b64a229d6)" d="M 165.7152 221.4 
L 165.7152 32.4 
" style="fill:none;stroke:#b0b0b0;stroke-linecap:square;stroke-width:0.8;"/>
     </g>
     <g id="line2d_8">
      <g>
       <use style="stroke:#000000;stroke-width:0.8;" x="165.7152" xlink:href="#m6933d915c5" y="221.4"/>
      </g>
     </g>
     <g id="text_4">
      <!-- $8$ -->
      <defs>
       <path d="M 38 38.234375 
C 47.59375 41.5 48.796875 48.59375 48.796875 53.171875 
C 48.796875 68.109375 39.40625 73 27.5 73 
C 16.59375 73 6.09375 69.03125 6.09375 53.1875 
C 6.09375 47.8125 7.90625 41.3125 16.90625 38.265625 
C 6.59375 35.3125 4.59375 27.28125 4.59375 20.875 
C 4.59375 5.015625 13 -2 27.40625 -2 
C 42.5 -2 50.296875 5.625 50.296875 20.859375 
C 50.296875 30.109375 46 35.90625 38 38.234375 
z
M 27.5 42 
C 19.09375 42 18.90625 46.984375 18.90625 53.109375 
C 18.90625 60.125 19.5 64 27.40625 64 
C 35.296875 64 36 60.328125 36 53.109375 
C 36 47.203125 35.90625 42 27.5 42 
z
M 27.5 7.5 
C 18.703125 7.5 18.5 13.203125 18.5 21.0625 
C 18.5 27.6875 18.5 34.71875 27.40625 34.71875 
C 36.40625 34.71875 36.40625 27.796875 36.40625 21.0625 
C 36.40625 13.40625 36.203125 7.5 27.5 7.5 
z
" id="CMSSBX10-56"/>
      </defs>
      <g transform="translate(162.427511 236.70218)scale(0.12 -0.12)">
       <use transform="scale(0.996264)" xlink:href="#CMSSBX10-56"/>
      </g>
     </g>
    </g>
    <g id="xtick_5">
     <g id="line2d_9">
      <path clip-path="url(#p9b64a229d6)" d="M 196.7616 221.4 
L 196.7616 32.4 
" style="fill:none;stroke:#b0b0b0;stroke-linecap:square;stroke-width:0.8;"/>
     </g>
     <g id="line2d_10">
      <g>
       <use style="stroke:#000000;stroke-width:0.8;" x="196.7616" xlink:href="#m6933d915c5" y="221.4"/>
      </g>
     </g>
     <g id="text_5">
      <!-- $10$ -->
      <defs>
       <path d="M 35.5 67.625 
C 35.5 69.5625 35.5 72.5 31.09375 72.5 
C 29.09375 72.5 28.703125 72.28125 27.5 71 
C 25.703125 69.3125 21.90625 65.375 12 65.375 
C 10.203125 65.375 7.59375 64.65625 7.59375 61.703125 
C 7.59375 58 11.09375 58 12.40625 58 
C 15.40625 58 18.90625 58.5 21.796875 59.3125 
L 21.796875 7.28125 
L 14 7.28125 
C 12.703125 7.28125 9.203125 7.28125 9.203125 3.640625 
C 9.203125 0 12.703125 0 14 0 
L 42.5 0 
C 43.59375 0 47.296875 0 47.296875 3.640625 
C 47.296875 7.28125 43.59375 7.28125 42.5 7.28125 
L 35.5 7.28125 
z
" id="CMSSBX10-49"/>
       <path d="M 50.59375 34.734375 
C 50.59375 48.515625 50.59375 72.28125 27.5 72.28125 
C 4.296875 72.28125 4.296875 48.71875 4.296875 34.734375 
C 4.296875 20.9375 4.296875 -2 27.40625 -2 
C 50.59375 -2 50.59375 20.734375 50.59375 34.734375 
z
M 27.40625 5.265625 
C 20 5.265625 18.90625 14.515625 18.59375 17.234375 
C 17.90625 22.5625 17.90625 32.015625 17.90625 36.140625 
C 17.90625 42.0625 17.90625 48.5 18.5 53.4375 
C 18.796875 56.15625 19.796875 65 27.40625 65 
C 34.796875 65 36 56.5625 36.296875 54.53125 
C 37 49.421875 37 41.46875 37 36.140625 
C 37 30.40625 37 22.5625 36.296875 17.03125 
C 36 14.421875 34.90625 5.265625 27.40625 5.265625 
z
" id="CMSSBX10-48"/>
      </defs>
      <g transform="translate(190.186221 236.70218)scale(0.12 -0.12)">
       <use transform="scale(0.996264)" xlink:href="#CMSSBX10-49"/>
       <use transform="translate(54.794825 0)scale(0.996264)" xlink:href="#CMSSBX10-48"/>
      </g>
     </g>
    </g>
    <g id="xtick_6">
     <g id="line2d_11">
      <path clip-path="url(#p9b64a229d6)" d="M 227.808 221.4 
L 227.808 32.4 
" style="fill:none;stroke:#b0b0b0;stroke-linecap:square;stroke-width:0.8;"/>
     </g>
     <g id="line2d_12">
      <g>
       <use style="stroke:#000000;stroke-width:0.8;" x="227.808" xlink:href="#m6933d915c5" y="221.4"/>
      </g>
     </g>
     <g id="text_6">
      <!-- $12$ -->
      <g transform="translate(221.232621 236.70218)scale(0.12 -0.12)">
       <use transform="scale(0.996264)" xlink:href="#CMSSBX10-49"/>
       <use transform="translate(54.794825 0)scale(0.996264)" xlink:href="#CMSSBX10-50"/>
      </g>
     </g>
    </g>
    <g id="xtick_7">
     <g id="line2d_13">
      <path clip-path="url(#p9b64a229d6)" d="M 258.8544 221.4 
L 258.8544 32.4 
" style="fill:none;stroke:#b0b0b0;stroke-linecap:square;stroke-width:0.8;"/>
     </g>
     <g id="line2d_14">
      <g>
       <use style="stroke:#000000;stroke-width:0.8;" x="258.8544" xlink:href="#m6933d915c5" y="221.4"/>
      </g>
     </g>
     <g id="text_7">
      <!-- $14$ -->
      <g transform="translate(252.279021 236.70218)scale(0.12 -0.12)">
       <use transform="scale(0.996264)" xlink:href="#CMSSBX10-49"/>
       <use transform="translate(54.794825 0)scale(0.996264)" xlink:href="#CMSSBX10-52"/>
      </g>
     </g>
    </g>
    <g id="xtick_8">
     <g id="line2d_15">
      <path clip-path="url(#p9b64a229d6)" d="M 289.9008 221.4 
L 289.9008 32.4 
" style="fill:none;stroke:#b0b0b0;stroke-linecap:square;stroke-width:0.8;"/>
     </g>
     <g id="line2d_16">
      <g>
       <use style="stroke:#000000;stroke-width:0.8;" x="289.9008" xlink:href="#m6933d915c5" y="221.4"/>
      </g>
     </g>
     <g id="text_8">
      <!-- $16$ -->
      <g transform="translate(283.325421 236.70218)scale(0.12 -0.12)">
       <use transform="scale(0.996264)" xlink:href="#CMSSBX10-49"/>
       <use transform="translate(54.794825 0)scale(0.996264)" xlink:href="#CMSSBX10-54"/>
      </g>
     </g>
    </g>
    <g id="xtick_9">
     <g id="line2d_17">
      <path clip-path="url(#p9b64a229d6)" d="M 320.9472 221.4 
L 320.9472 32.4 
" style="fill:none;stroke:#b0b0b0;stroke-linecap:square;stroke-width:0.8;"/>
     </g>
     <g id="line2d_18">
      <g>
       <use style="stroke:#000000;stroke-width:0.8;" x="320.9472" xlink:href="#m6933d915c5" y="221.4"/>
      </g>
     </g>
     <g id="text_9">
      <!-- $18$ -->
      <g transform="translate(314.371821 236.70218)scale(0.12 -0.12)">
       <use transform="scale(0.996264)" xlink:href="#CMSSBX10-49"/>
       <use transform="translate(54.794825 0)scale(0.996264)" xlink:href="#CMSSBX10-56"/>
      </g>
     </g>
    </g>
    <g id="xtick_10">
     <g id="line2d_19">
      <path clip-path="url(#p9b64a229d6)" d="M 351.9936 221.4 
L 351.9936 32.4 
" style="fill:none;stroke:#b0b0b0;stroke-linecap:square;stroke-width:0.8;"/>
     </g>
     <g id="line2d_20">
      <g>
       <use style="stroke:#000000;stroke-width:0.8;" x="351.9936" xlink:href="#m6933d915c5" y="221.4"/>
      </g>
     </g>
     <g id="text_10">
      <!-- $20$ -->
      <g transform="translate(345.418221 236.70218)scale(0.12 -0.12)">
       <use transform="scale(0.996264)" xlink:href="#CMSSBX10-50"/>
       <use transform="translate(54.794825 0)scale(0.996264)" xlink:href="#CMSSBX10-48"/>
      </g>
     </g>
    </g>
    <g id="xtick_11">
     <g id="line2d_21">
      <path clip-path="url(#p9b64a229d6)" d="M 383.04 221.4 
L 383.04 32.4 
" style="fill:none;stroke:#b0b0b0;stroke-linecap:square;stroke-width:0.8;"/>
     </g>
     <g id="line2d_22">
      <g>
       <use style="stroke:#000000;stroke-width:0.8;" x="383.04" xlink:href="#m6933d915c5" y="221.4"/>
      </g>
     </g>
     <g id="text_11">
      <!-- $22$ -->
      <g transform="translate(376.464621 236.70218)scale(0.12 -0.12)">
       <use transform="scale(0.996264)" xlink:href="#CMSSBX10-50"/>
       <use transform="translate(54.794825 0)scale(0.996264)" xlink:href="#CMSSBX10-50"/>
      </g>
     </g>
    </g>
    <g id="xtick_12">
     <g id="line2d_23">
      <path clip-path="url(#p9b64a229d6)" d="M 88.0992 221.4 
L 88.0992 32.4 
" style="fill:none;stroke:#b0b0b0;stroke-dasharray:2.96,1.28;stroke-dashoffset:0;stroke-width:0.8;"/>
     </g>
     <g id="line2d_24">
      <defs>
       <path d="M 0 0 
L 0 2 
" id="mc886ef9688" style="stroke:#000000;stroke-width:0.6;"/>
      </defs>
      <g>
       <use style="stroke:#000000;stroke-width:0.6;" x="88.0992" xlink:href="#mc886ef9688" y="221.4"/>
      </g>
     </g>
    </g>
    <g id="xtick_13">
     <g id="line2d_25">
      <path clip-path="url(#p9b64a229d6)" d="M 119.1456 221.4 
L 119.1456 32.4 
" style="fill:none;stroke:#b0b0b0;stroke-dasharray:2.96,1.28;stroke-dashoffset:0;stroke-width:0.8;"/>
     </g>
     <g id="line2d_26">
      <g>
       <use style="stroke:#000000;stroke-width:0.6;" x="119.1456" xlink:href="#mc886ef9688" y="221.4"/>
      </g>
     </g>
    </g>
    <g id="xtick_14">
     <g id="line2d_27">
      <path clip-path="url(#p9b64a229d6)" d="M 150.192 221.4 
L 150.192 32.4 
" style="fill:none;stroke:#b0b0b0;stroke-dasharray:2.96,1.28;stroke-dashoffset:0;stroke-width:0.8;"/>
     </g>
     <g id="line2d_28">
      <g>
       <use style="stroke:#000000;stroke-width:0.6;" x="150.192" xlink:href="#mc886ef9688" y="221.4"/>
      </g>
     </g>
    </g>
    <g id="xtick_15">
     <g id="line2d_29">
      <path clip-path="url(#p9b64a229d6)" d="M 181.2384 221.4 
L 181.2384 32.4 
" style="fill:none;stroke:#b0b0b0;stroke-dasharray:2.96,1.28;stroke-dashoffset:0;stroke-width:0.8;"/>
     </g>
     <g id="line2d_30">
      <g>
       <use style="stroke:#000000;stroke-width:0.6;" x="181.2384" xlink:href="#mc886ef9688" y="221.4"/>
      </g>
     </g>
    </g>
    <g id="xtick_16">
     <g id="line2d_31">
      <path clip-path="url(#p9b64a229d6)" d="M 212.2848 221.4 
L 212.2848 32.4 
" style="fill:none;stroke:#b0b0b0;stroke-dasharray:2.96,1.28;stroke-dashoffset:0;stroke-width:0.8;"/>
     </g>
     <g id="line2d_32">
      <g>
       <use style="stroke:#000000;stroke-width:0.6;" x="212.2848" xlink:href="#mc886ef9688" y="221.4"/>
      </g>
     </g>
    </g>
    <g id="xtick_17">
     <g id="line2d_33">
      <path clip-path="url(#p9b64a229d6)" d="M 243.3312 221.4 
L 243.3312 32.4 
" style="fill:none;stroke:#b0b0b0;stroke-dasharray:2.96,1.28;stroke-dashoffset:0;stroke-width:0.8;"/>
     </g>
     <g id="line2d_34">
      <g>
       <use style="stroke:#000000;stroke-width:0.6;" x="243.3312" xlink:href="#mc886ef9688" y="221.4"/>
      </g>
     </g>
    </g>
    <g id="xtick_18">
     <g id="line2d_35">
      <path clip-path="url(#p9b64a229d6)" d="M 274.3776 221.4 
L 274.3776 32.4 
" style="fill:none;stroke:#b0b0b0;stroke-dasharray:2.96,1.28;stroke-dashoffset:0;stroke-width:0.8;"/>
     </g>
     <g id="line2d_36">
      <g>
       <use style="stroke:#000000;stroke-width:0.6;" x="274.3776" xlink:href="#mc886ef9688" y="221.4"/>
      </g>
     </g>
    </g>
    <g id="xtick_19">
     <g id="line2d_37">
      <path clip-path="url(#p9b64a229d6)" d="M 305.424 221.4 
L 305.424 32.4 
" style="fill:none;stroke:#b0b0b0;stroke-dasharray:2.96,1.28;stroke-dashoffset:0;stroke-width:0.8;"/>
     </g>
     <g id="line2d_38">
      <g>
       <use style="stroke:#000000;stroke-width:0.6;" x="305.424" xlink:href="#mc886ef9688" y="221.4"/>
      </g>
     </g>
    </g>
    <g id="xtick_20">
     <g id="line2d_39">
      <path clip-path="url(#p9b64a229d6)" d="M 336.4704 221.4 
L 336.4704 32.4 
" style="fill:none;stroke:#b0b0b0;stroke-dasharray:2.96,1.28;stroke-dashoffset:0;stroke-width:0.8;"/>
     </g>
     <g id="line2d_40">
      <g>
       <use style="stroke:#000000;stroke-width:0.6;" x="336.4704" xlink:href="#mc886ef9688" y="221.4"/>
      </g>
     </g>
    </g>
    <g id="xtick_21">
     <g id="line2d_41">
      <path clip-path="url(#p9b64a229d6)" d="M 367.5168 221.4 
L 367.5168 32.4 
" style="fill:none;stroke:#b0b0b0;stroke-dasharray:2.96,1.28;stroke-dashoffset:0;stroke-width:0.8;"/>
     </g>
     <g id="line2d_42">
      <g>
       <use style="stroke:#000000;stroke-width:0.6;" x="367.5168" xlink:href="#mc886ef9688" y="221.4"/>
      </g>
     </g>
    </g>
    <g id="text_12">
     <!-- \textbf{Volumetric flow rate [l/min]} -->
     <defs>
      <path d="M 70 65.46875 
C 70.40625 66.671875 70.5 66.765625 70.5 67.28125 
C 70.5 70 68 70 66.59375 70 
L 62.703125 70 
C 60.59375 70 57.703125 70 56.09375 65.578125 
L 42.59375 28.140625 
L 37.40625 12.609375 
C 37.296875 12.921875 36.203125 16.453125 34.703125 20.578125 
L 18.5 65.671875 
C 16.90625 70 14.09375 70 12 70 
L 6.59375 70 
C 5.203125 70 2.703125 70 2.703125 67.28125 
C 2.703125 66.765625 2.796875 66.671875 3.203125 65.453125 
L 25.59375 4.234375 
C 27.09375 0 30 0 32 0 
L 41.203125 0 
C 43.296875 0 46.09375 0 47.703125 4.4375 
z
" id="CMSSBX10-86"/>
      <path d="M 51.796875 22.796875 
C 51.796875 39.328125 43.796875 48 27.5 48 
C 10.796875 48 3.09375 39.015625 3.09375 22.796875 
C 3.09375 6.359375 11.703125 -1 27.40625 -1 
C 43.09375 -1 51.796875 6.265625 51.796875 22.796875 
z
M 27.5 6.875 
C 16.703125 6.875 16.703125 15.9375 16.703125 24 
C 16.703125 31.765625 16.703125 40.71875 27.40625 40.71875 
C 38.203125 40.71875 38.203125 31.859375 38.203125 24 
C 38.203125 16.046875 38.203125 6.875 27.5 6.875 
z
" id="CMSSBX10-111"/>
      <path d="M 19.40625 65.15625 
C 19.40625 68.390625 18.703125 70 14.59375 70 
L 10.90625 70 
C 7.296875 70 6.09375 68.890625 6.09375 65.15625 
L 6.09375 4.71875 
C 6.09375 1.09375 7.203125 -0.125 10.90625 -0.125 
L 14.59375 -0.125 
C 18.40625 -0.125 19.40625 1.1875 19.40625 4.71875 
z
" id="CMSSBX10-108"/>
      <path d="M 50 41.4375 
C 50 44.671875 49.296875 46.28125 45.203125 46.28125 
L 41.203125 46.28125 
C 37.40625 46.28125 36.40625 44.96875 36.40625 41.453125 
L 36.40625 17.5625 
C 36.40625 10.90625 32.90625 5.15625 25.796875 5.15625 
C 20.203125 5.15625 19.59375 6.578125 19.59375 11.921875 
L 19.59375 41.453125 
C 19.59375 44.671875 18.90625 46.28125 14.796875 46.28125 
L 10.796875 46.28125 
C 7.203125 46.28125 6 45.171875 6 41.453125 
L 6 12.8125 
C 6 2.03125 11.796875 -1 22.203125 -1 
C 24.90625 -1 32 -1 36.703125 7.578125 
L 36.703125 4.90625 
C 36.703125 1.625 37.40625 0 41.5 0 
L 45.203125 0 
C 49 0 50 1.3125 50 4.84375 
z
" id="CMSSBX10-117"/>
      <path d="M 80.59375 32.75 
C 80.59375 43.140625 76.203125 47.265625 66 47.265625 
C 58.90625 47.265625 53.40625 43.9375 49.796875 37.28125 
C 48.203125 47.0625 39.703125 47.0625 35.5 47.0625 
C 33.59375 47.0625 29.40625 47.0625 24.90625 43.796875 
C 21.796875 41.53125 19.796875 38.359375 19.09375 36.875 
L 19 36.875 
L 19 41.984375 
C 19 45.25 18.296875 46.890625 14.203125 46.890625 
L 10.796875 46.890625 
C 7.203125 46.890625 6 45.78125 6 42.03125 
L 6 4.84375 
C 6 1.21875 7.09375 0 10.796875 0 
L 14.796875 0 
C 18.59375 0 19.59375 1.3125 19.59375 4.828125 
L 19.59375 27.109375 
C 19.59375 36.171875 25.703125 40 30.59375 40 
C 35.40625 40 36.5 37.875 36.5 32.53125 
L 36.5 4.828125 
C 36.5 1.21875 37.59375 0 41.296875 0 
L 45.296875 0 
C 49.09375 0 50.09375 1.3125 50.09375 4.828125 
L 50.09375 27.109375 
C 50.09375 36.171875 56.203125 40 61.09375 40 
C 65.90625 40 67 37.875 67 32.53125 
L 67 4.828125 
C 67 1.21875 68.09375 0 71.796875 0 
L 75.796875 0 
C 79.59375 0 80.59375 1.3125 80.59375 4.828125 
z
" id="CMSSBX10-109"/>
      <path d="M 43.09375 21.640625 
C 45.40625 21.640625 47.90625 21.640625 47.90625 26.21875 
C 47.90625 39.28125 41.90625 48 27 48 
C 11 48 3.09375 38.921875 3.09375 23.59375 
C 3.09375 7.0625 12.59375 -1 28.296875 -1 
C 32.09375 -1 37.796875 -0.5 44.40625 2.84375 
C 46.59375 3.953125 47.296875 4.25 47.296875 5.46875 
C 47.296875 6.171875 47 9.09375 46.90625 9.890625 
C 46.5 13.015625 46.40625 13.109375 45.5 13.109375 
C 45.09375 13.109375 44.90625 13.109375 43.796875 12.109375 
C 37.90625 6.984375 31.90625 6.28125 28.703125 6.28125 
C 17.40625 6.28125 16.203125 15.21875 15.90625 21.640625 
z
M 16 27 
C 16.296875 33.15625 18.296875 40.71875 27 40.71875 
C 35 40.71875 36.5 34.859375 36.796875 27 
z
" id="CMSSBX10-101"/>
      <path d="M 21.796875 39 
L 30.703125 39 
C 31.90625 39 35.5 39 35.5 42.640625 
C 35.5 46.28125 31.90625 46.28125 30.703125 46.28125 
L 21.796875 46.28125 
L 21.796875 54.65625 
C 21.796875 57.890625 21.09375 59.5 17 59.5 
L 13.90625 59.5 
C 10.296875 59.5 9.09375 58.390625 9.09375 54.65625 
L 9.09375 46.28125 
L 6.796875 46.28125 
C 5.703125 46.28125 2 46.28125 2 42.640625 
C 2 39 5.59375 39 6.796875 39 
L 8.796875 39 
L 8.796875 13.5 
C 8.796875 3.328125 12.40625 -1 19.296875 -1 
C 20.203125 -1 24.59375 -1 29.796875 0.609375 
C 31.5 1.125 37.296875 2.9375 37.296875 4.859375 
C 37.296875 5.15625 37.09375 5.875 36.5 7.96875 
C 36 9.984375 35.796875 10.59375 34.90625 10.59375 
C 34.40625 10.59375 34.296875 10.484375 33.703125 9.875 
C 32.59375 9.09375 29.90625 6.875 25.703125 6.875 
C 23.296875 6.875 21.796875 8.59375 21.796875 15.234375 
z
" id="CMSSBX10-116"/>
      <path d="M 19.40625 23.375 
C 19.40625 33.046875 27.296875 37 33.59375 37 
C 35.40625 37 35.59375 37 35.59375 39.921875 
L 35.59375 44.6875 
C 35.59375 46.703125 35.59375 47.40625 33.796875 47.40625 
C 31 47.40625 23.703125 46.40625 19 35.484375 
L 18.90625 35.484375 
L 18.90625 42.03125 
C 18.90625 45.265625 18.203125 46.890625 14.09375 46.890625 
L 10.90625 46.890625 
C 7.296875 46.890625 6.09375 45.78125 6.09375 42.03125 
L 6.09375 4.84375 
C 6.09375 1.21875 7.203125 0 10.90625 0 
L 14.59375 0 
C 18.40625 0 19.40625 1.3125 19.40625 4.875 
z
" id="CMSSBX10-114"/>
      <path d="M 10.203125 70 
C 7 70 5.40625 69.390625 5.40625 65.34375 
L 5.40625 60.703125 
C 5.40625 57.46875 6.40625 56.15625 10.09375 56.15625 
L 15.296875 56.15625 
C 20.09375 56.15625 20.09375 58.28125 20.09375 63.03125 
C 20.09375 67.875 20.09375 70 15.296875 70 
z
M 19.40625 41.15625 
C 19.40625 44.390625 18.703125 46 14.59375 46 
L 10.90625 46 
C 7.296875 46 6.09375 44.890625 6.09375 41.15625 
L 6.09375 4.5625 
C 6.09375 0.9375 7.203125 -0.28125 10.90625 -0.28125 
L 14.59375 -0.28125 
C 18.40625 -0.28125 19.40625 1.03125 19.40625 4.5625 
z
" id="CMSSBX10-105"/>
      <path d="M 45.703125 5.15625 
C 45.703125 6.28125 45.296875 10.90625 45.09375 12.21875 
C 45.09375 12.515625 44.90625 13.53125 43.90625 13.53125 
C 43.5 13.53125 43.296875 13.53125 42.296875 12.515625 
C 40.59375 11 35.90625 6.875 27.703125 6.875 
C 17.296875 6.875 17.296875 17.0625 17.296875 23.484375 
C 17.296875 31.65625 17.796875 40.125 28 40.125 
C 34.5 40.125 37.203125 38.5 40.796875 35.484375 
C 42 34.375 42.203125 34.375 42.59375 34.375 
C 43.59375 34.375 43.796875 35.28125 43.90625 35.6875 
C 44.09375 36.5 45.09375 42.140625 45.09375 42.640625 
C 45.09375 43.546875 44.40625 43.953125 42.703125 44.765625 
C 37.90625 46.984375 34.90625 48 27.90625 48 
C 13 48 3.703125 40.9375 3.703125 23.296875 
C 3.703125 6.5625 12.296875 -1 27.40625 -1 
C 30.09375 -1 36.09375 -1 42.796875 2.484375 
C 45.59375 4.03125 45.703125 4.140625 45.703125 5.15625 
z
" id="CMSSBX10-99"/>
      <path d="M 21.90625 39 
L 27.59375 39 
C 28.796875 39 32.40625 39 32.40625 42.640625 
C 32.40625 46.28125 28.796875 46.28125 27.59375 46.28125 
L 21.59375 46.28125 
L 21.59375 57.640625 
C 21.59375 60.4375 21.796875 63.734375 24.90625 63.734375 
C 28.09375 63.734375 29.296875 61.734375 29.796875 61.03125 
C 30.203125 60.34375 30.5 59.9375 31.09375 59.9375 
C 32.40625 59.9375 32.40625 60.953125 32.40625 62.546875 
L 32.40625 67.1875 
C 32.40625 69.484375 32.40625 69.6875 29.90625 70.296875 
C 27.40625 71 26.203125 71 24.703125 71 
C 14.296875 71 8.59375 65.5 8.59375 54.484375 
L 8.59375 46.28125 
C 6.5 46.28125 3 46.28125 3 42.640625 
C 3 39 6.40625 39 8.59375 39 
L 8.59375 4.734375 
C 8.59375 1.09375 9.703125 -0.125 13.40625 -0.125 
L 17.09375 -0.125 
C 20.90625 -0.125 21.90625 1.1875 21.90625 4.734375 
z
M 52.40625 65.15625 
C 52.40625 68.390625 51.703125 70 47.59375 70 
L 43.90625 70 
C 40.09375 70 39.09375 68.6875 39.09375 65.15625 
L 39.09375 4.71875 
C 39.09375 1.484375 39.796875 -0.125 43.90625 -0.125 
L 47.59375 -0.125 
C 51.40625 -0.125 52.40625 1.1875 52.40625 4.71875 
z
" id="CMSSBX10-13"/>
      <path d="M 71.90625 43.65625 
C 71.59375 46.5 69.796875 46.5 66.703125 46.5 
C 62 46.5 60.796875 46.203125 59.40625 40.90625 
C 57.203125 33.09375 52.796875 17.25 51.296875 11.46875 
L 42.796875 41.9375 
C 42.203125 44.15625 41.5 46.5 36.90625 46.5 
C 35.40625 46.5 33.09375 46.5 31.703125 44.15625 
C 30.796875 42.640625 26.40625 25.078125 22.90625 13.203125 
L 14.90625 41.9375 
C 13.90625 45.390625 12.796875 46.5 8.703125 46.5 
L 6.703125 46.5 
C 4.796875 46.5 2.703125 46.5 2.40625 43.65625 
L 13 4.65625 
C 14.296875 0 16.90625 0 19.40625 0 
L 22.203125 0 
C 26.90625 0 27.703125 1.515625 28.796875 5.59375 
C 31.09375 14 34.703125 26.796875 35.09375 32.078125 
L 35.203125 32.171875 
C 35.796875 26.390625 40.203125 10.359375 41.5 5.59375 
C 42.59375 1.9375 43.09375 0 48.09375 0 
L 54.90625 0 
C 59.203125 0 60.203125 1.21875 61.203125 4.65625 
z
" id="CMSSBX10-119"/>
      <path d="M 46.40625 32.03125 
C 46.40625 48 31.203125 48 26.203125 48 
C 21.5 48 16.5 47.59375 9.796875 44.8125 
C 7.703125 43.921875 7.203125 43.625 7.203125 42.53125 
C 7.203125 41.828125 7.796875 35.9375 7.90625 35.125 
C 8 34.515625 8.5 34.015625 9.203125 34.015625 
C 9.703125 34.015625 10 34.3125 10.296875 34.625 
C 14.59375 39.1875 19.59375 41.421875 25.796875 41.421875 
C 31.203125 41.421875 32.796875 38.046875 32.796875 32.015625 
L 32.796875 28.4375 
C 29.296875 28.4375 3.09375 28.4375 3.09375 13.5625 
C 3.09375 6.484375 8.703125 -1 17.5 -1 
C 20.90625 -1 28.40625 0.015625 33.09375 6.984375 
L 33.09375 4.953125 
C 33.09375 1.71875 33.796875 0.109375 37.90625 0.109375 
L 41.59375 0.109375 
C 45.40625 0.109375 46.40625 1.421875 46.40625 4.953125 
z
M 32.796875 15.4375 
C 32.796875 6.28125 23.296875 6.28125 23 6.28125 
C 18.796875 6.28125 16.09375 9.984375 16.09375 13.890625 
C 16.09375 24 30 24 32.796875 24 
z
" id="CMSSBX10-97"/>
      <path d="M 21.703125 68.71875 
L 27 68.71875 
C 28.203125 68.71875 31.796875 68.71875 31.796875 72.359375 
C 31.796875 76 28.203125 76 27 76 
L 13.5 76 
C 9.703125 76 8.703125 74.671875 8.703125 71.140625 
L 8.703125 -20.140625 
C 8.703125 -23.375 9.40625 -25 13.5 -25 
L 27 -25 
C 28.203125 -25 31.796875 -25 31.796875 -21.359375 
C 31.796875 -17.71875 28.203125 -17.71875 27 -17.71875 
L 21.703125 -17.71875 
z
" id="CMSSBX10-91"/>
      <path d="M 48.203125 69.421875 
C 48.796875 70.9375 48.796875 71.046875 48.796875 71.75 
C 48.796875 73.96875 47 76 44.59375 76 
C 41.703125 76 40.703125 73.46875 40.40625 72.5625 
L 6.703125 -18.421875 
C 6.09375 -19.9375 6.09375 -20.046875 6.09375 -20.75 
C 6.09375 -22.96875 7.90625 -25 10.296875 -25 
C 13.203125 -25 14.203125 -22.46875 14.5 -21.5625 
z
" id="CMSSBX10-47"/>
      <path d="M 50 32.75 
C 50 43.140625 45.59375 47.265625 35.40625 47.265625 
C 24.90625 47.265625 20.40625 39.609375 19.09375 36.875 
L 19 36.875 
L 19 41.984375 
C 19 45.25 18.296875 46.890625 14.203125 46.890625 
L 10.796875 46.890625 
C 7.203125 46.890625 6 45.78125 6 42.03125 
L 6 4.84375 
C 6 1.21875 7.09375 0 10.796875 0 
L 14.796875 0 
C 18.59375 0 19.59375 1.3125 19.59375 4.828125 
L 19.59375 27.109375 
C 19.59375 35.859375 25.40625 40 30.59375 40 
C 35.40625 40 36.40625 37.671875 36.40625 32.53125 
L 36.40625 4.828125 
C 36.40625 1.609375 37.09375 0 41.203125 0 
L 45.203125 0 
C 49 0 50 1.3125 50 4.828125 
z
" id="CMSSBX10-110"/>
      <path d="M 25.5 71.140625 
C 25.5 74.375 24.796875 76 20.703125 76 
L 7.203125 76 
C 6 76 2.40625 76 2.40625 72.359375 
C 2.40625 68.71875 6 68.71875 7.203125 68.71875 
L 12.5 68.71875 
L 12.5 -17.71875 
L 7.203125 -17.71875 
C 6 -17.71875 2.40625 -17.71875 2.40625 -21.359375 
C 2.40625 -25 6 -25 7.203125 -25 
L 20.703125 -25 
C 24.5 -25 25.5 -23.6875 25.5 -20.140625 
z
" id="CMSSBX10-93"/>
     </defs>
     <g transform="translate(150.663561 249.993152)scale(0.12 -0.12)">
      <use transform="scale(0.996264)" xlink:href="#CMSSBX10-86"/>
      <use transform="translate(70.015609 0)scale(0.996264)" xlink:href="#CMSSBX10-111"/>
      <use transform="translate(124.810434 0)scale(0.996264)" xlink:href="#CMSSBX10-108"/>
      <use transform="translate(150.270653 0)scale(0.996264)" xlink:href="#CMSSBX10-117"/>
      <use transform="translate(206.172441 0)scale(0.996264)" xlink:href="#CMSSBX10-109"/>
      <use transform="translate(292.515798 0)scale(0.996264)" xlink:href="#CMSSBX10-101"/>
      <use transform="translate(343.43625 0)scale(0.996264)" xlink:href="#CMSSBX10-116"/>
      <use transform="translate(383.702154 0)scale(0.996264)" xlink:href="#CMSSBX10-114"/>
      <use transform="translate(420.785564 0)scale(0.996264)" xlink:href="#CMSSBX10-105"/>
      <use transform="translate(446.245783 0)scale(0.996264)" xlink:href="#CMSSBX10-99"/>
      <use transform="translate(531.482177 0)scale(0.996264)" xlink:href="#CMSSBX10-13"/>
      <use transform="translate(589.874686 0)scale(0.996264)" xlink:href="#CMSSBX10-111"/>
      <use transform="translate(641.625353 0)scale(0.996264)" xlink:href="#CMSSBX10-119"/>
      <use transform="translate(752.321966 0)scale(0.996264)" xlink:href="#CMSSBX10-114"/>
      <use transform="translate(789.405376 0)scale(0.996264)" xlink:href="#CMSSBX10-97"/>
      <use transform="translate(841.709571 0)scale(0.996264)" xlink:href="#CMSSBX10-116"/>
      <use transform="translate(881.975475 0)scale(0.996264)" xlink:href="#CMSSBX10-101"/>
      <use transform="translate(969.42581 0)scale(0.996264)" xlink:href="#CMSSBX10-91"/>
      <use transform="translate(1003.6034 0)scale(0.996264)" xlink:href="#CMSSBX10-108"/>
      <use transform="translate(1029.063619 0)scale(0.996264)" xlink:href="#CMSSBX10-47"/>
      <use transform="translate(1083.858443 0)scale(0.996264)" xlink:href="#CMSSBX10-109"/>
      <use transform="translate(1170.201801 0)scale(0.996264)" xlink:href="#CMSSBX10-105"/>
      <use transform="translate(1195.662019 0)scale(0.996264)" xlink:href="#CMSSBX10-110"/>
      <use transform="translate(1251.563807 0)scale(0.996264)" xlink:href="#CMSSBX10-93"/>
     </g>
    </g>
   </g>
   <g id="matplotlib.axis_2">
    <g id="ytick_1">
     <g id="line2d_43">
      <path clip-path="url(#p9b64a229d6)" d="M 72.576 210.282353 
L 383.04 210.282353 
" style="fill:none;stroke:#b0b0b0;stroke-linecap:square;stroke-width:0.8;"/>
     </g>
     <g id="line2d_44">
      <defs>
       <path d="M 0 0 
L -3.5 0 
" id="m9099f08922" style="stroke:#000000;stroke-width:0.8;"/>
      </defs>
      <g>
       <use style="stroke:#000000;stroke-width:0.8;" x="72.576" xlink:href="#m9099f08922" y="210.282353"/>
      </g>
     </g>
     <g id="text_13">
      <!-- $100$ -->
      <g transform="translate(45.849863 214.433443)scale(0.12 -0.12)">
       <use transform="scale(0.996264)" xlink:href="#CMSSBX10-49"/>
       <use transform="translate(54.794825 0)scale(0.996264)" xlink:href="#CMSSBX10-48"/>
       <use transform="translate(109.589649 0)scale(0.996264)" xlink:href="#CMSSBX10-48"/>
      </g>
     </g>
    </g>
    <g id="ytick_2">
     <g id="line2d_45">
      <path clip-path="url(#p9b64a229d6)" d="M 72.576 165.811765 
L 383.04 165.811765 
" style="fill:none;stroke:#b0b0b0;stroke-linecap:square;stroke-width:0.8;"/>
     </g>
     <g id="line2d_46">
      <g>
       <use style="stroke:#000000;stroke-width:0.8;" x="72.576" xlink:href="#m9099f08922" y="165.811765"/>
      </g>
     </g>
     <g id="text_14">
      <!-- $140$ -->
      <g transform="translate(45.849863 169.962855)scale(0.12 -0.12)">
       <use transform="scale(0.996264)" xlink:href="#CMSSBX10-49"/>
       <use transform="translate(54.794825 0)scale(0.996264)" xlink:href="#CMSSBX10-52"/>
       <use transform="translate(109.589649 0)scale(0.996264)" xlink:href="#CMSSBX10-48"/>
      </g>
     </g>
    </g>
    <g id="ytick_3">
     <g id="line2d_47">
      <path clip-path="url(#p9b64a229d6)" d="M 72.576 121.341176 
L 383.04 121.341176 
" style="fill:none;stroke:#b0b0b0;stroke-linecap:square;stroke-width:0.8;"/>
     </g>
     <g id="line2d_48">
      <g>
       <use style="stroke:#000000;stroke-width:0.8;" x="72.576" xlink:href="#m9099f08922" y="121.341176"/>
      </g>
     </g>
     <g id="text_15">
      <!-- $180$ -->
      <g transform="translate(45.849863 125.492266)scale(0.12 -0.12)">
       <use transform="scale(0.996264)" xlink:href="#CMSSBX10-49"/>
       <use transform="translate(54.794825 0)scale(0.996264)" xlink:href="#CMSSBX10-56"/>
       <use transform="translate(109.589649 0)scale(0.996264)" xlink:href="#CMSSBX10-48"/>
      </g>
     </g>
    </g>
    <g id="ytick_4">
     <g id="line2d_49">
      <path clip-path="url(#p9b64a229d6)" d="M 72.576 76.870588 
L 383.04 76.870588 
" style="fill:none;stroke:#b0b0b0;stroke-linecap:square;stroke-width:0.8;"/>
     </g>
     <g id="line2d_50">
      <g>
       <use style="stroke:#000000;stroke-width:0.8;" x="72.576" xlink:href="#m9099f08922" y="76.870588"/>
      </g>
     </g>
     <g id="text_16">
      <!-- $220$ -->
      <g transform="translate(45.849863 81.021678)scale(0.12 -0.12)">
       <use transform="scale(0.996264)" xlink:href="#CMSSBX10-50"/>
       <use transform="translate(54.794825 0)scale(0.996264)" xlink:href="#CMSSBX10-50"/>
       <use transform="translate(109.589649 0)scale(0.996264)" xlink:href="#CMSSBX10-48"/>
      </g>
     </g>
    </g>
    <g id="ytick_5">
     <g id="line2d_51">
      <path clip-path="url(#p9b64a229d6)" d="M 72.576 32.4 
L 383.04 32.4 
" style="fill:none;stroke:#b0b0b0;stroke-linecap:square;stroke-width:0.8;"/>
     </g>
     <g id="line2d_52">
      <g>
       <use style="stroke:#000000;stroke-width:0.8;" x="72.576" xlink:href="#m9099f08922" y="32.4"/>
      </g>
     </g>
     <g id="text_17">
      <!-- $260$ -->
      <g transform="translate(45.849863 36.55109)scale(0.12 -0.12)">
       <use transform="scale(0.996264)" xlink:href="#CMSSBX10-50"/>
       <use transform="translate(54.794825 0)scale(0.996264)" xlink:href="#CMSSBX10-54"/>
       <use transform="translate(109.589649 0)scale(0.996264)" xlink:href="#CMSSBX10-48"/>
      </g>
     </g>
    </g>
    <g id="ytick_6">
     <g id="line2d_53">
      <path clip-path="url(#p9b64a229d6)" d="M 72.576 188.047059 
L 383.04 188.047059 
" style="fill:none;stroke:#b0b0b0;stroke-dasharray:2.96,1.28;stroke-dashoffset:0;stroke-width:0.8;"/>
     </g>
     <g id="line2d_54">
      <defs>
       <path d="M 0 0 
L -2 0 
" id="mc3b909142b" style="stroke:#000000;stroke-width:0.6;"/>
      </defs>
      <g>
       <use style="stroke:#000000;stroke-width:0.6;" x="72.576" xlink:href="#mc3b909142b" y="188.047059"/>
      </g>
     </g>
    </g>
    <g id="ytick_7">
     <g id="line2d_55">
      <path clip-path="url(#p9b64a229d6)" d="M 72.576 143.576471 
L 383.04 143.576471 
" style="fill:none;stroke:#b0b0b0;stroke-dasharray:2.96,1.28;stroke-dashoffset:0;stroke-width:0.8;"/>
     </g>
     <g id="line2d_56">
      <g>
       <use style="stroke:#000000;stroke-width:0.6;" x="72.576" xlink:href="#mc3b909142b" y="143.576471"/>
      </g>
     </g>
    </g>
    <g id="ytick_8">
     <g id="line2d_57">
      <path clip-path="url(#p9b64a229d6)" d="M 72.576 99.105882 
L 383.04 99.105882 
" style="fill:none;stroke:#b0b0b0;stroke-dasharray:2.96,1.28;stroke-dashoffset:0;stroke-width:0.8;"/>
     </g>
     <g id="line2d_58">
      <g>
       <use style="stroke:#000000;stroke-width:0.6;" x="72.576" xlink:href="#mc3b909142b" y="99.105882"/>
      </g>
     </g>
    </g>
    <g id="ytick_9">
     <g id="line2d_59">
      <path clip-path="url(#p9b64a229d6)" d="M 72.576 54.635294 
L 383.04 54.635294 
" style="fill:none;stroke:#b0b0b0;stroke-dasharray:2.96,1.28;stroke-dashoffset:0;stroke-width:0.8;"/>
     </g>
     <g id="line2d_60">
      <g>
       <use style="stroke:#000000;stroke-width:0.6;" x="72.576" xlink:href="#mc3b909142b" y="54.635294"/>
      </g>
     </g>
    </g>
    <g id="text_18">
     <!-- \textbf{Maximum target temperature [$^{\circ}$C]} -->
     <defs>
      <path d="M 55.5 32.90625 
C 53.40625 27.75 49.703125 18.453125 48.90625 14.921875 
L 48.796875 14.921875 
C 47.90625 18.546875 43.796875 28.5625 41.703125 33.921875 
L 28.90625 65.859375 
C 27.203125 70 24 70 22.203125 70 
L 13.90625 70 
C 10.296875 70 9.09375 68.890625 9.09375 65.15625 
L 9.09375 4.71875 
C 9.09375 1.09375 10.203125 -0.125 13.90625 -0.125 
L 16.59375 -0.125 
C 20.40625 -0.125 21.40625 1.1875 21.40625 4.71875 
L 21.40625 56.96875 
L 21.5 56.96875 
C 22.59375 52.421875 27.09375 41.203125 29.5 35.25 
L 41.09375 6.4375 
C 42.90625 2.09375 45.296875 2.09375 48.703125 2.09375 
C 52.09375 2.09375 54.5 2.09375 56.296875 6.4375 
L 69.09375 38.171875 
C 70.09375 40.59375 75.5 54.34375 76.203125 56.96875 
L 76.296875 56.96875 
L 76.296875 4.71875 
C 76.296875 1.484375 77 -0.125 81.09375 -0.125 
L 83.796875 -0.125 
C 87.59375 -0.125 88.59375 1.1875 88.59375 4.71875 
L 88.59375 65.15625 
C 88.59375 68.390625 87.90625 70 83.796875 70 
L 75.40625 70 
C 72.90625 70 70.40625 69.796875 68.703125 65.65625 
z
" id="CMSSBX10-77"/>
      <path d="M 30.09375 23.953125 
L 44.59375 41.9375 
C 45.59375 43.15625 45.59375 43.546875 45.59375 44.0625 
C 45.59375 46.28125 43.59375 46.28125 42.09375 46.28125 
L 37.796875 46.28125 
C 36 46.28125 34.796875 46.28125 33.40625 44.765625 
C 32.90625 44.265625 26.40625 35.46875 24.703125 33.140625 
L 16.09375 44.0625 
C 14.40625 46.1875 13.296875 46.28125 11 46.28125 
L 6.59375 46.28125 
C 5.296875 46.28125 3.09375 46.28125 3.09375 44.0625 
C 3.09375 43.34375 3.40625 42.953125 4.09375 42.140625 
L 19.203125 23.953125 
L 3.40625 4.25 
C 2.796875 3.53125 2.40625 3.03125 2.40625 2.21875 
C 2.40625 0 4.59375 0 6 0 
L 10.296875 0 
C 13.59375 0 13.796875 0.296875 16 3.640625 
L 24.59375 16.578125 
L 34.796875 2.015625 
C 36.203125 0 37.40625 0 39.5 0 
L 43.90625 0 
C 45.296875 0 47.40625 0 47.40625 2.21875 
C 47.40625 3.03125 47 3.4375 46.296875 4.34375 
z
" id="CMSSBX10-120"/>
      <path d="M 20 9.015625 
C 16.40625 9.015625 15 9.015625 13.59375 10.25 
C 13.203125 10.640625 11.5 12.171875 11.5 14.828125 
C 11.5 15.53125 11.59375 15.734375 11.703125 16.34375 
C 16.40625 13.71875 22.296875 13.71875 24.40625 13.71875 
C 28.59375 13.71875 44.5 13.71875 44.5 30.46875 
C 44.5 36.34375 42.296875 39.890625 41.40625 41 
C 43.09375 41 46.59375 41 50.703125 39.890625 
C 51.09375 39.6875 51.796875 39.484375 52.09375 39.484375 
C 52.90625 39.484375 53.40625 40.09375 53.40625 40.796875 
C 53.40625 41.203125 52.90625 43.625 52.703125 44.640625 
C 52.296875 47.0625 52.296875 47.265625 50.5 47.265625 
C 47.40625 47.265625 42.40625 46.0625 38.59375 43.734375 
C 33.90625 46.859375 28.703125 47.265625 24.40625 47.265625 
C 20.203125 47.265625 4.296875 47.265625 4.296875 30.53125 
C 4.296875 26.46875 5.40625 21.40625 9.203125 18.0625 
C 6.5 14.296875 6.5 10.359375 6.5 9.84375 
C 6.5 7.921875 7.09375 4.578125 9.203125 1.84375 
C 7.703125 1.234375 2.5 -0.578125 2.5 -7.046875 
C 2.5 -10.1875 4 -15.4375 10.296875 -18.375 
C 16 -21 22.703125 -21 27.40625 -21 
C 33.296875 -21 52.40625 -21 52.40625 -6.703125 
C 52.40625 9.015625 38.296875 9.015625 24.796875 9.015625 
z
M 24.40625 21 
C 17.40625 21 17.09375 24.859375 17.09375 30.453125 
C 17.09375 36.03125 17.40625 40 24.40625 40 
C 31.40625 40 31.703125 36.140625 31.703125 30.546875 
C 31.703125 24.953125 31.40625 21 24.40625 21 
z
M 29.796875 -2 
C 37.90625 -2 42.09375 -3.390625 42.09375 -7 
C 42.09375 -13.734375 30.703125 -13.734375 27.5 -13.734375 
C 23.5 -13.734375 12.796875 -13.734375 12.796875 -6.71875 
C 12.796875 -2 15.90625 -2 18.203125 -2 
z
" id="CMSSBX10-103"/>
      <path d="M 19.703125 3.78125 
C 24.203125 -1.28125 29.703125 -1.28125 31.09375 -1.28125 
C 52.296875 -1.28125 52.296875 18.03125 52.296875 23.0625 
C 52.296875 27.984375 52.296875 47 34.203125 47 
C 28.296875 47 23 44.578125 19.40625 41.140625 
C 19.40625 44.875 18 45.890625 14.59375 45.890625 
L 10.90625 45.890625 
C 7.296875 45.890625 6.09375 44.78125 6.09375 41.046875 
L 6.09375 -15.140625 
C 6.09375 -18.78125 7.203125 -20 10.90625 -20 
L 14.90625 -20 
C 18.703125 -20 19.703125 -18.671875 19.703125 -15.09375 
z
M 19.703125 35.8125 
C 20.796875 36.8125 24.09375 39.125 28.40625 39.125 
C 38.59375 39.125 38.703125 27.28125 38.703125 22.859375 
C 38.703125 18.84375 38.703125 6 27.40625 6 
C 25.09375 6 23.296875 6.796875 22.09375 7.6875 
C 19.703125 9.40625 19.703125 9.90625 19.703125 11.71875 
z
" id="CMSSBX10-112"/>
      <path d="M 51 24.953125 
C 51 38.390625 41.796875 47.25 28.703125 47.25 
C 15.203125 47.25 6.40625 37.984375 6.40625 25.046875 
C 6.40625 11.609375 15.59375 2.765625 28.703125 2.765625 
C 42.203125 2.765625 51 12.015625 51 24.953125 
z
M 28.703125 8.859375 
C 18.296875 8.859375 12.5 15.609375 12.5 24.953125 
C 12.5 34.984375 18.90625 41.140625 28.703125 41.140625 
C 38.59375 41.140625 44.90625 34.890625 44.90625 24.953125 
C 44.90625 15.421875 39 8.859375 28.703125 8.859375 
z
" id="CMBSY10-14"/>
      <path d="M 64 14.453125 
C 64 15.265625 63.296875 15.65625 62.90625 15.65625 
C 60.5 15.65625 57.59375 9.109375 43.5 9.109375 
C 25.90625 9.109375 20.90625 20 20.90625 35.109375 
C 20.90625 50.109375 26.296875 61 42.703125 61 
C 51.59375 61 56.296875 57.46875 59 55.25 
C 59.59375 54.75 59.90625 54.34375 60.59375 54.34375 
C 61 54.34375 61.5 54.84375 61.59375 55.25 
L 63.59375 66.453125 
C 63.703125 66.859375 63.59375 67.265625 62.796875 67.5625 
C 56.90625 69.78125 50.796875 71.203125 43 71.203125 
C 18.59375 71.203125 6.09375 59.203125 6.09375 35.203125 
C 6.09375 10.5 18.796875 -1 43.09375 -1 
C 51.59375 -1 56.90625 0.21875 64.203125 4.765625 
C 65 5.265625 64.796875 5.984375 64.796875 5.984375 
z
" id="CMSSBX10-67"/>
     </defs>
     <g transform="translate(35.436168 221.864987)rotate(-90)scale(0.12 -0.12)">
      <use transform="scale(0.996264)" xlink:href="#CMSSBX10-77"/>
      <use transform="translate(97.413021 0)scale(0.996264)" xlink:href="#CMSSBX10-97"/>
      <use transform="translate(149.717216 0)scale(0.996264)" xlink:href="#CMSSBX10-120"/>
      <use transform="translate(199.530691 0)scale(0.996264)" xlink:href="#CMSSBX10-105"/>
      <use transform="translate(224.990909 0)scale(0.996264)" xlink:href="#CMSSBX10-109"/>
      <use transform="translate(311.334267 0)scale(0.996264)" xlink:href="#CMSSBX10-117"/>
      <use transform="translate(367.236054 0)scale(0.996264)" xlink:href="#CMSSBX10-109"/>
      <use transform="translate(490.109295 0)scale(0.996264)" xlink:href="#CMSSBX10-116"/>
      <use transform="translate(530.375198 0)scale(0.996264)" xlink:href="#CMSSBX10-97"/>
      <use transform="translate(579.635236 0)scale(0.996264)" xlink:href="#CMSSBX10-114"/>
      <use transform="translate(616.718647 0)scale(0.996264)" xlink:href="#CMSSBX10-103"/>
      <use transform="translate(671.513471 0)scale(0.996264)" xlink:href="#CMSSBX10-101"/>
      <use transform="translate(722.433924 0)scale(0.996264)" xlink:href="#CMSSBX10-116"/>
      <use transform="translate(799.22971 0)scale(0.996264)" xlink:href="#CMSSBX10-116"/>
      <use transform="translate(839.495614 0)scale(0.996264)" xlink:href="#CMSSBX10-101"/>
      <use transform="translate(890.416067 0)scale(0.996264)" xlink:href="#CMSSBX10-109"/>
      <use transform="translate(976.759424 0)scale(0.996264)" xlink:href="#CMSSBX10-112"/>
      <use transform="translate(1035.705369 0)scale(0.996264)" xlink:href="#CMSSBX10-101"/>
      <use transform="translate(1086.625822 0)scale(0.996264)" xlink:href="#CMSSBX10-114"/>
      <use transform="translate(1123.709232 0)scale(0.996264)" xlink:href="#CMSSBX10-97"/>
      <use transform="translate(1176.013427 0)scale(0.996264)" xlink:href="#CMSSBX10-116"/>
      <use transform="translate(1216.27933 0)scale(0.996264)" xlink:href="#CMSSBX10-117"/>
      <use transform="translate(1272.181118 0)scale(0.996264)" xlink:href="#CMSSBX10-114"/>
      <use transform="translate(1309.264529 0)scale(0.996264)" xlink:href="#CMSSBX10-101"/>
      <use transform="translate(1396.714864 0)scale(0.996264)" xlink:href="#CMSSBX10-91"/>
      <use transform="translate(1430.892454 36.153639)scale(0.697382)" xlink:href="#CMBSY10-14"/>
      <use transform="translate(1471.489817 0)scale(0.996264)" xlink:href="#CMSSBX10-67"/>
      <use transform="translate(1541.505426 0)scale(0.996264)" xlink:href="#CMSSBX10-93"/>
     </g>
    </g>
   </g>
   <g id="line2d_61">
    <path clip-path="url(#p9b64a229d6)" d="M 88.0992 122.553 
L 119.1456 124.998882 
L 227.808 128.656588 
L 351.9936 130.524353 
" style="fill:none;stroke:#00008b;stroke-linecap:square;"/>
    <defs>
     <path d="M -3 3 
L 3 3 
L 3 -3 
L -3 -3 
z
" id="mfef05c7fe4" style="stroke:#00008b;stroke-linejoin:miter;"/>
    </defs>
    <g clip-path="url(#p9b64a229d6)">
     <use style="fill:#00008b;stroke:#00008b;stroke-linejoin:miter;" x="88.0992" xlink:href="#mfef05c7fe4" y="122.553"/>
     <use style="fill:#00008b;stroke:#00008b;stroke-linejoin:miter;" x="119.1456" xlink:href="#mfef05c7fe4" y="124.998882"/>
     <use style="fill:#00008b;stroke:#00008b;stroke-linejoin:miter;" x="227.808" xlink:href="#mfef05c7fe4" y="128.656588"/>
     <use style="fill:#00008b;stroke:#00008b;stroke-linejoin:miter;" x="351.9936" xlink:href="#mfef05c7fe4" y="130.524353"/>
    </g>
   </g>
   <g id="patch_3">
    <path d="M 72.576 221.4 
L 72.576 32.4 
" style="fill:none;stroke:#000000;stroke-linecap:square;stroke-linejoin:miter;stroke-width:0.8;"/>
   </g>
   <g id="patch_4">
    <path d="M 383.04 221.4 
L 383.04 32.4 
" style="fill:none;stroke:#000000;stroke-linecap:square;stroke-linejoin:miter;stroke-width:0.8;"/>
   </g>
   <g id="patch_5">
    <path d="M 72.576 221.4 
L 383.04 221.4 
" style="fill:none;stroke:#000000;stroke-linecap:square;stroke-linejoin:miter;stroke-width:0.8;"/>
   </g>
   <g id="patch_6">
    <path d="M 72.576 32.4 
L 383.04 32.4 
" style="fill:none;stroke:#000000;stroke-linecap:square;stroke-linejoin:miter;stroke-width:0.8;"/>
   </g>
   <g id="text_19">
    <!-- \textbf{T$_{outgas}$} -->
    <defs>
     <path d="M 29.296875 59 
L 29.296875 4.8125 
C 29.296875 1.21875 30.40625 0 34.09375 0 
L 39.203125 0 
C 43 0 44 1.3125 44 4.8125 
L 44 59 
C 48.40625 59 59.59375 59 64 59 
C 66.796875 59 69.203125 59 69.203125 63.796875 
L 69.203125 64.609375 
C 69.203125 67.8125 68.5 69.421875 64.40625 69.421875 
L 8.796875 69.421875 
C 5.203125 69.421875 4 68.3125 4 64.609375 
L 4 63.796875 
C 4 59 6.40625 59 9.203125 59 
z
" id="CMSSBX10-84"/>
     <path d="M 39.59375 14.09375 
C 39.59375 19.796875 36.59375 23.375 34.796875 25 
C 30.796875 28.6875 27.296875 29.296875 23.09375 30.109375 
C 17.59375 31.125 13.59375 31.953125 13.59375 35.921875 
C 13.59375 40.09375 16.90625 40.921875 20.796875 40.921875 
C 27.5 40.921875 31.09375 38.375 33.703125 36.140625 
C 34.703125 35.125 34.90625 35.125 35.296875 35.125 
C 36.296875 35.125 36.5 36.03125 36.59375 36.4375 
C 36.796875 37.25 37.796875 42.921875 37.796875 43.421875 
C 37.796875 45.0625 32.5 46.484375 31.40625 46.875 
C 27.40625 48 24.203125 48 21.59375 48 
C 17.09375 48 3.703125 48 3.703125 33.515625 
C 3.703125 28.546875 5.90625 25.515625 8.59375 23.078125 
C 12.09375 19.84375 16 19.140625 21.703125 18.03125 
C 24.59375 17.515625 29.703125 16.59375 29.703125 12.15625 
C 29.703125 7.390625 25.796875 6.671875 21.90625 6.671875 
C 17.5 6.671875 11.90625 8 7.203125 13.703125 
C 6.703125 14.203125 6.40625 14.5 5.796875 14.5 
C 4.796875 14.5 4.59375 13.609375 4.5 13 
C 4.296875 11.609375 3.09375 5.90625 3.09375 4.890625 
C 3.09375 3.09375 10.5 0.796875 10.59375 0.703125 
C 16.09375 -1 20.203125 -1 21.90625 -1 
C 27 -1 39.59375 -1 39.59375 14.09375 
z
" id="CMSSBX10-115"/>
    </defs>
    <g style="fill:#ff0000;" transform="translate(107.5032 49.076471)scale(0.12 -0.12)">
     <use transform="translate(0 14.943915)scale(0.996264)" xlink:href="#CMSSBX10-84"/>
     <use transform="translate(73.059766 0)scale(0.697382)" xlink:href="#CMSSBX10-111"/>
     <use transform="translate(111.415961 0)scale(0.697382)" xlink:href="#CMSSBX10-117"/>
     <use transform="translate(150.547036 0)scale(0.697382)" xlink:href="#CMSSBX10-116"/>
     <use transform="translate(178.733041 0)scale(0.697382)" xlink:href="#CMSSBX10-103"/>
     <use transform="translate(217.089236 0)scale(0.697382)" xlink:href="#CMSSBX10-97"/>
     <use transform="translate(253.702014 0)scale(0.697382)" xlink:href="#CMSSBX10-115"/>
    </g>
   </g>
  </g>
 </g>
 <defs>
  <clipPath id="p9b64a229d6">
   <rect height="189" width="310.464" x="72.576" y="32.4"/>
  </clipPath>
 </defs>
</svg>
