<?xml version="1.0" encoding="utf-8" standalone="no"?>
<!DOCTYPE svg PUBLIC "-//W3C//DTD SVG 1.1//EN"
  "http://www.w3.org/Graphics/SVG/1.1/DTD/svg11.dtd">
<!-- Created with matplotlib (http://matplotlib.org/) -->
<svg height="216pt" version="1.1" viewBox="0 0 345 216" width="345pt" xmlns="http://www.w3.org/2000/svg" xmlns:xlink="http://www.w3.org/1999/xlink">
 <defs>
  <style type="text/css">
*{stroke-linecap:butt;stroke-linejoin:round;}
  </style>
 </defs>
 <g id="figure_1">
  <g id="patch_1">
   <path d="M 0 216 
L 345.6 216 
L 345.6 0 
L 0 0 
z
" style="fill:#ffffff;"/>
  </g>
  <g id="axes_1">
   <g id="patch_2">
    <path d="M 51.84 177.12 
L 335.232 177.12 
L 335.232 6.48 
L 51.84 6.48 
z
" style="fill:#ffffff;"/>
   </g>
   <g id="matplotlib.axis_1">
    <g id="xtick_1">
     <g id="line2d_1">
      <path clip-path="url(#p672c97bc6a)" d="M 51.84 177.12 
L 51.84 6.48 
" style="fill:none;stroke:#b0b0b0;stroke-linecap:square;stroke-width:0.8;"/>
     </g>
     <g id="line2d_2">
      <defs>
       <path d="M 0 0 
L 0 3.5 
" id="mf4dc2c1074" style="stroke:#000000;stroke-width:0.8;"/>
      </defs>
      <g>
       <use style="stroke:#000000;stroke-width:0.8;" x="51.84" xlink:href="#mf4dc2c1074" y="177.12"/>
      </g>
     </g>
     <g id="text_1">
      <!-- $0.5$ -->
      <defs>
       <path d="M 50.59375 34.734375 
C 50.59375 48.515625 50.59375 72.28125 27.5 72.28125 
C 4.296875 72.28125 4.296875 48.71875 4.296875 34.734375 
C 4.296875 20.9375 4.296875 -2 27.40625 -2 
C 50.59375 -2 50.59375 20.734375 50.59375 34.734375 
z
M 27.40625 5.265625 
C 20 5.265625 18.90625 14.515625 18.59375 17.234375 
C 17.90625 22.5625 17.90625 32.015625 17.90625 36.140625 
C 17.90625 42.0625 17.90625 48.5 18.5 53.4375 
C 18.796875 56.15625 19.796875 65 27.40625 65 
C 34.796875 65 36 56.5625 36.296875 54.53125 
C 37 49.421875 37 41.46875 37 36.140625 
C 37 30.40625 37 22.5625 36.296875 17.03125 
C 36 14.421875 34.90625 5.265625 27.40625 5.265625 
z
" id="CMSSBX10-48"/>
       <path d="M 21.796875 10.515625 
C 21.796875 13.140625 21.703125 13.140625 19.09375 13.140625 
L 11.40625 13.140625 
C 8.796875 13.140625 8.703125 13.046875 8.703125 10.421875 
L 8.703125 2.640625 
C 8.703125 0 8.796875 0 11.40625 0 
L 19.09375 0 
C 21.703125 0 21.796875 0.09375 21.796875 2.734375 
z
" id="CMSSBX10-46"/>
       <path d="M 21.296875 59.90625 
L 40.90625 59.90625 
C 45.59375 59.90625 45.703125 62.21875 45.703125 64.953125 
C 45.703125 67.578125 45.703125 70 40.90625 70 
L 13.09375 70 
C 9.90625 70 8.296875 69.40625 8.296875 65.328125 
L 8.296875 34.1875 
C 8.296875 29.609375 10.59375 29.609375 13.296875 29.609375 
C 15.90625 29.609375 16.796875 29.609375 18.203125 32.046875 
C 20.59375 35.984375 24 38 28.203125 38 
C 34.703125 38 34.703125 30.328125 34.703125 22.453125 
C 34.703125 14.671875 34.703125 7 24.203125 7 
C 21.09375 7 14.296875 7.90625 10.296875 15.890625 
C 10 16.5 9.703125 17.09375 9 17.09375 
C 8.203125 17.09375 8 16.59375 7.40625 15.78125 
C 6 13.46875 3.703125 9.921875 3.703125 9.21875 
C 3.703125 8.40625 10.203125 -2.5 24.5 -2.5 
C 40.59375 -2.5 49.40625 5.6875 49.40625 22.03125 
C 49.40625 35.375 43.90625 45.28125 28.59375 45.28125 
C 26.09375 45.28125 23.703125 44.875 21.296875 43.96875 
z
" id="CMSSBX10-53"/>
      </defs>
      <g transform="translate(43.438127 192.42218)scale(0.12 -0.12)">
       <use transform="scale(0.996264)" xlink:href="#CMSSBX10-48"/>
       <use transform="translate(54.794825 0)scale(0.996264)" xlink:href="#CMSSBX10-46"/>
       <use transform="translate(85.236394 0)scale(0.996264)" xlink:href="#CMSSBX10-53"/>
      </g>
     </g>
    </g>
    <g id="xtick_2">
     <g id="line2d_3">
      <path clip-path="url(#p672c97bc6a)" d="M 99.072 177.12 
L 99.072 6.48 
" style="fill:none;stroke:#b0b0b0;stroke-linecap:square;stroke-width:0.8;"/>
     </g>
     <g id="line2d_4">
      <g>
       <use style="stroke:#000000;stroke-width:0.8;" x="99.072" xlink:href="#mf4dc2c1074" y="177.12"/>
      </g>
     </g>
     <g id="text_2">
      <!-- $1.0$ -->
      <defs>
       <path d="M 35.5 67.625 
C 35.5 69.5625 35.5 72.5 31.09375 72.5 
C 29.09375 72.5 28.703125 72.28125 27.5 71 
C 25.703125 69.3125 21.90625 65.375 12 65.375 
C 10.203125 65.375 7.59375 64.65625 7.59375 61.703125 
C 7.59375 58 11.09375 58 12.40625 58 
C 15.40625 58 18.90625 58.5 21.796875 59.3125 
L 21.796875 7.28125 
L 14 7.28125 
C 12.703125 7.28125 9.203125 7.28125 9.203125 3.640625 
C 9.203125 0 12.703125 0 14 0 
L 42.5 0 
C 43.59375 0 47.296875 0 47.296875 3.640625 
C 47.296875 7.28125 43.59375 7.28125 42.5 7.28125 
L 35.5 7.28125 
z
" id="CMSSBX10-49"/>
      </defs>
      <g transform="translate(90.670127 192.42218)scale(0.12 -0.12)">
       <use transform="scale(0.996264)" xlink:href="#CMSSBX10-49"/>
       <use transform="translate(54.794825 0)scale(0.996264)" xlink:href="#CMSSBX10-46"/>
       <use transform="translate(85.236394 0)scale(0.996264)" xlink:href="#CMSSBX10-48"/>
      </g>
     </g>
    </g>
    <g id="xtick_3">
     <g id="line2d_5">
      <path clip-path="url(#p672c97bc6a)" d="M 146.304 177.12 
L 146.304 6.48 
" style="fill:none;stroke:#b0b0b0;stroke-linecap:square;stroke-width:0.8;"/>
     </g>
     <g id="line2d_6">
      <g>
       <use style="stroke:#000000;stroke-width:0.8;" x="146.304" xlink:href="#mf4dc2c1074" y="177.12"/>
      </g>
     </g>
     <g id="text_3">
      <!-- $1.5$ -->
      <g transform="translate(137.902127 192.42218)scale(0.12 -0.12)">
       <use transform="scale(0.996264)" xlink:href="#CMSSBX10-49"/>
       <use transform="translate(54.794825 0)scale(0.996264)" xlink:href="#CMSSBX10-46"/>
       <use transform="translate(85.236394 0)scale(0.996264)" xlink:href="#CMSSBX10-53"/>
      </g>
     </g>
    </g>
    <g id="xtick_4">
     <g id="line2d_7">
      <path clip-path="url(#p672c97bc6a)" d="M 193.536 177.12 
L 193.536 6.48 
" style="fill:none;stroke:#b0b0b0;stroke-linecap:square;stroke-width:0.8;"/>
     </g>
     <g id="line2d_8">
      <g>
       <use style="stroke:#000000;stroke-width:0.8;" x="193.536" xlink:href="#mf4dc2c1074" y="177.12"/>
      </g>
     </g>
     <g id="text_4">
      <!-- $2.0$ -->
      <defs>
       <path d="M 6.5 8.5625 
C 5.5 7.546875 5.5 7.34375 5.5 5.640625 
L 5.5 4.828125 
C 5.5 1.21875 6.59375 0 10.296875 0 
L 44.59375 0 
C 48.40625 0 49.40625 1.296875 49.40625 4.796875 
L 49.40625 6.015625 
C 49.40625 7.625 49.40625 9.515625 47.296875 10.421875 
C 46.59375 10.8125 43.40625 10.8125 41.40625 10.8125 
C 39.203125 10.8125 36.796875 10.8125 34.59375 10.8125 
L 18.40625 10.8125 
L 31.59375 23.390625 
C 33.09375 24.703125 36.90625 27.828125 38.40625 29.234375 
C 43.90625 34.671875 49.40625 40 49.40625 48.953125 
C 49.40625 61.234375 40.59375 72.109375 25.90625 72.109375 
C 22.40625 72.109375 16.703125 71.59375 11.90625 67.65625 
C 11 66.953125 6.40625 63.328125 4.59375 56.5625 
L 9.59375 50.140625 
C 10.203125 49.328125 10.5 48.921875 11.203125 48.921875 
C 12.09375 48.921875 12.296875 49.625 12.59375 50.828125 
C 14.59375 57.765625 18 62 24.40625 62 
C 32.203125 62 35.40625 54.859375 35.40625 48.703125 
C 35.40625 42.265625 31.59375 35.53125 25.59375 29.078125 
z
" id="CMSSBX10-50"/>
      </defs>
      <g transform="translate(185.134127 192.42218)scale(0.12 -0.12)">
       <use transform="scale(0.996264)" xlink:href="#CMSSBX10-50"/>
       <use transform="translate(54.794825 0)scale(0.996264)" xlink:href="#CMSSBX10-46"/>
       <use transform="translate(85.236394 0)scale(0.996264)" xlink:href="#CMSSBX10-48"/>
      </g>
     </g>
    </g>
    <g id="xtick_5">
     <g id="line2d_9">
      <path clip-path="url(#p672c97bc6a)" d="M 240.768 177.12 
L 240.768 6.48 
" style="fill:none;stroke:#b0b0b0;stroke-linecap:square;stroke-width:0.8;"/>
     </g>
     <g id="line2d_10">
      <g>
       <use style="stroke:#000000;stroke-width:0.8;" x="240.768" xlink:href="#mf4dc2c1074" y="177.12"/>
      </g>
     </g>
     <g id="text_5">
      <!-- $2.5$ -->
      <g transform="translate(232.366127 192.42218)scale(0.12 -0.12)">
       <use transform="scale(0.996264)" xlink:href="#CMSSBX10-50"/>
       <use transform="translate(54.794825 0)scale(0.996264)" xlink:href="#CMSSBX10-46"/>
       <use transform="translate(85.236394 0)scale(0.996264)" xlink:href="#CMSSBX10-53"/>
      </g>
     </g>
    </g>
    <g id="xtick_6">
     <g id="line2d_11">
      <path clip-path="url(#p672c97bc6a)" d="M 288 177.12 
L 288 6.48 
" style="fill:none;stroke:#b0b0b0;stroke-linecap:square;stroke-width:0.8;"/>
     </g>
     <g id="line2d_12">
      <g>
       <use style="stroke:#000000;stroke-width:0.8;" x="288" xlink:href="#mf4dc2c1074" y="177.12"/>
      </g>
     </g>
     <g id="text_6">
      <!-- $3.0$ -->
      <defs>
       <path d="M 9.59375 56.546875 
C 10.40625 55.328125 10.90625 55.328125 11.09375 55.328125 
C 11.796875 55.328125 12 55.75 12.5 56.46875 
C 17.59375 64 24.703125 64 26 64 
C 32.40625 64 33.296875 60.578125 33.296875 55.5 
C 33.296875 54.03125 33.296875 49.0625 30.203125 45.109375 
C 27.796875 42.203125 25.296875 42 22.296875 42 
C 21.203125 41.703125 19.296875 41.703125 19 41.5 
C 18.296875 41.203125 18.296875 40.578125 18.296875 38.921875 
L 18.296875 37.09375 
C 18.296875 34.421875 18.40625 34.421875 21 34.421875 
L 25.40625 34.421875 
C 34.5 34.421875 35.59375 28.6875 35.59375 20.921875 
C 35.59375 14.140625 34.90625 7.5 25.796875 7.5 
C 22.59375 7.5 15.203125 8.203125 8.5 14.546875 
C 7.59375 15.46875 7.5 15.46875 7.09375 15.46875 
C 6.09375 15.46875 5.90625 14.5625 5.796875 14.359375 
C 5.796875 14.25 4.59375 7.9375 4.59375 7.4375 
C 4.59375 6.140625 13.203125 -2 26.296875 -2 
C 43.5 -2 50.296875 7.28125 50.296875 20.703125 
C 50.296875 29.796875 45.5 35.9375 36.5 38.265625 
C 44.59375 42.78125 47.296875 49.4375 47.296875 55.28125 
C 47.296875 71.671875 33 73 26.5 73 
C 12.796875 73 6.09375 62.984375 6.09375 62.171875 
C 6.09375 61.546875 6.703125 60.75 6.796875 60.640625 
z
" id="CMSSBX10-51"/>
      </defs>
      <g transform="translate(279.598127 192.42218)scale(0.12 -0.12)">
       <use transform="scale(0.996264)" xlink:href="#CMSSBX10-51"/>
       <use transform="translate(54.794825 0)scale(0.996264)" xlink:href="#CMSSBX10-46"/>
       <use transform="translate(85.236394 0)scale(0.996264)" xlink:href="#CMSSBX10-48"/>
      </g>
     </g>
    </g>
    <g id="xtick_7">
     <g id="line2d_13">
      <path clip-path="url(#p672c97bc6a)" d="M 335.232 177.12 
L 335.232 6.48 
" style="fill:none;stroke:#b0b0b0;stroke-linecap:square;stroke-width:0.8;"/>
     </g>
     <g id="line2d_14">
      <g>
       <use style="stroke:#000000;stroke-width:0.8;" x="335.232" xlink:href="#mf4dc2c1074" y="177.12"/>
      </g>
     </g>
     <g id="text_7">
      <!-- $3.5$ -->
      <g transform="translate(326.830127 192.42218)scale(0.12 -0.12)">
       <use transform="scale(0.996264)" xlink:href="#CMSSBX10-51"/>
       <use transform="translate(54.794825 0)scale(0.996264)" xlink:href="#CMSSBX10-46"/>
       <use transform="translate(85.236394 0)scale(0.996264)" xlink:href="#CMSSBX10-53"/>
      </g>
     </g>
    </g>
    <g id="text_8">
     <!-- \textbf{Depth in target [mm]} -->
     <defs>
      <path d="M 13.90625 70 
C 10.296875 70 9.09375 68.890625 9.09375 65.171875 
L 9.09375 4.828125 
C 9.09375 1.21875 10.203125 0 13.90625 0 
L 40.296875 0 
C 64.703125 0 73.203125 14.71875 73.203125 34.5 
C 73.203125 42.46875 71.90625 52.25 66.296875 59.40625 
C 58.796875 68.796875 46.796875 70 40.296875 70 
z
M 23.5 8.6875 
L 23.5 61.3125 
L 36.296875 61.3125 
C 57.90625 61.3125 58.796875 45.78125 58.796875 34.5 
C 58.796875 23.109375 57.703125 8.6875 36.40625 8.6875 
z
" id="CMSSBX10-68"/>
      <path d="M 43.09375 21.640625 
C 45.40625 21.640625 47.90625 21.640625 47.90625 26.21875 
C 47.90625 39.28125 41.90625 48 27 48 
C 11 48 3.09375 38.921875 3.09375 23.59375 
C 3.09375 7.0625 12.59375 -1 28.296875 -1 
C 32.09375 -1 37.796875 -0.5 44.40625 2.84375 
C 46.59375 3.953125 47.296875 4.25 47.296875 5.46875 
C 47.296875 6.171875 47 9.09375 46.90625 9.890625 
C 46.5 13.015625 46.40625 13.109375 45.5 13.109375 
C 45.09375 13.109375 44.90625 13.109375 43.796875 12.109375 
C 37.90625 6.984375 31.90625 6.28125 28.703125 6.28125 
C 17.40625 6.28125 16.203125 15.21875 15.90625 21.640625 
z
M 16 27 
C 16.296875 33.15625 18.296875 40.71875 27 40.71875 
C 35 40.71875 36.5 34.859375 36.796875 27 
z
" id="CMSSBX10-101"/>
      <path d="M 19.703125 3.78125 
C 24.203125 -1.28125 29.703125 -1.28125 31.09375 -1.28125 
C 52.296875 -1.28125 52.296875 18.03125 52.296875 23.0625 
C 52.296875 27.984375 52.296875 47 34.203125 47 
C 28.296875 47 23 44.578125 19.40625 41.140625 
C 19.40625 44.875 18 45.890625 14.59375 45.890625 
L 10.90625 45.890625 
C 7.296875 45.890625 6.09375 44.78125 6.09375 41.046875 
L 6.09375 -15.140625 
C 6.09375 -18.78125 7.203125 -20 10.90625 -20 
L 14.90625 -20 
C 18.703125 -20 19.703125 -18.671875 19.703125 -15.09375 
z
M 19.703125 35.8125 
C 20.796875 36.8125 24.09375 39.125 28.40625 39.125 
C 38.59375 39.125 38.703125 27.28125 38.703125 22.859375 
C 38.703125 18.84375 38.703125 6 27.40625 6 
C 25.09375 6 23.296875 6.796875 22.09375 7.6875 
C 19.703125 9.40625 19.703125 9.90625 19.703125 11.71875 
z
" id="CMSSBX10-112"/>
      <path d="M 21.796875 39 
L 30.703125 39 
C 31.90625 39 35.5 39 35.5 42.640625 
C 35.5 46.28125 31.90625 46.28125 30.703125 46.28125 
L 21.796875 46.28125 
L 21.796875 54.65625 
C 21.796875 57.890625 21.09375 59.5 17 59.5 
L 13.90625 59.5 
C 10.296875 59.5 9.09375 58.390625 9.09375 54.65625 
L 9.09375 46.28125 
L 6.796875 46.28125 
C 5.703125 46.28125 2 46.28125 2 42.640625 
C 2 39 5.59375 39 6.796875 39 
L 8.796875 39 
L 8.796875 13.5 
C 8.796875 3.328125 12.40625 -1 19.296875 -1 
C 20.203125 -1 24.59375 -1 29.796875 0.609375 
C 31.5 1.125 37.296875 2.9375 37.296875 4.859375 
C 37.296875 5.15625 37.09375 5.875 36.5 7.96875 
C 36 9.984375 35.796875 10.59375 34.90625 10.59375 
C 34.40625 10.59375 34.296875 10.484375 33.703125 9.875 
C 32.59375 9.09375 29.90625 6.875 25.703125 6.875 
C 23.296875 6.875 21.796875 8.59375 21.796875 15.234375 
z
" id="CMSSBX10-116"/>
      <path d="M 50 32.71875 
C 50 43.125 45.59375 47.265625 35.40625 47.265625 
C 25.40625 47.265625 20.796875 40.296875 19.40625 37.46875 
L 19.296875 37.46875 
L 19.296875 65.15625 
C 19.296875 68.390625 18.59375 70 14.5 70 
L 10.796875 70 
C 7.203125 70 6 68.890625 6 65.15625 
L 6 4.71875 
C 6 1.09375 7.09375 -0.125 10.796875 -0.125 
L 14.796875 -0.125 
C 18.59375 -0.125 19.59375 1.1875 19.59375 4.71875 
L 19.59375 27.0625 
C 19.59375 35.84375 25.40625 40 30.59375 40 
C 35.40625 40 36.40625 37.671875 36.40625 32.515625 
L 36.40625 4.71875 
C 36.40625 1.484375 37.09375 -0.125 41.203125 -0.125 
L 45.203125 -0.125 
C 49 -0.125 50 1.1875 50 4.71875 
z
" id="CMSSBX10-104"/>
      <path d="M 10.203125 70 
C 7 70 5.40625 69.390625 5.40625 65.34375 
L 5.40625 60.703125 
C 5.40625 57.46875 6.40625 56.15625 10.09375 56.15625 
L 15.296875 56.15625 
C 20.09375 56.15625 20.09375 58.28125 20.09375 63.03125 
C 20.09375 67.875 20.09375 70 15.296875 70 
z
M 19.40625 41.15625 
C 19.40625 44.390625 18.703125 46 14.59375 46 
L 10.90625 46 
C 7.296875 46 6.09375 44.890625 6.09375 41.15625 
L 6.09375 4.5625 
C 6.09375 0.9375 7.203125 -0.28125 10.90625 -0.28125 
L 14.59375 -0.28125 
C 18.40625 -0.28125 19.40625 1.03125 19.40625 4.5625 
z
" id="CMSSBX10-105"/>
      <path d="M 50 32.75 
C 50 43.140625 45.59375 47.265625 35.40625 47.265625 
C 24.90625 47.265625 20.40625 39.609375 19.09375 36.875 
L 19 36.875 
L 19 41.984375 
C 19 45.25 18.296875 46.890625 14.203125 46.890625 
L 10.796875 46.890625 
C 7.203125 46.890625 6 45.78125 6 42.03125 
L 6 4.84375 
C 6 1.21875 7.09375 0 10.796875 0 
L 14.796875 0 
C 18.59375 0 19.59375 1.3125 19.59375 4.828125 
L 19.59375 27.109375 
C 19.59375 35.859375 25.40625 40 30.59375 40 
C 35.40625 40 36.40625 37.671875 36.40625 32.53125 
L 36.40625 4.828125 
C 36.40625 1.609375 37.09375 0 41.203125 0 
L 45.203125 0 
C 49 0 50 1.3125 50 4.828125 
z
" id="CMSSBX10-110"/>
      <path d="M 46.40625 32.03125 
C 46.40625 48 31.203125 48 26.203125 48 
C 21.5 48 16.5 47.59375 9.796875 44.8125 
C 7.703125 43.921875 7.203125 43.625 7.203125 42.53125 
C 7.203125 41.828125 7.796875 35.9375 7.90625 35.125 
C 8 34.515625 8.5 34.015625 9.203125 34.015625 
C 9.703125 34.015625 10 34.3125 10.296875 34.625 
C 14.59375 39.1875 19.59375 41.421875 25.796875 41.421875 
C 31.203125 41.421875 32.796875 38.046875 32.796875 32.015625 
L 32.796875 28.4375 
C 29.296875 28.4375 3.09375 28.4375 3.09375 13.5625 
C 3.09375 6.484375 8.703125 -1 17.5 -1 
C 20.90625 -1 28.40625 0.015625 33.09375 6.984375 
L 33.09375 4.953125 
C 33.09375 1.71875 33.796875 0.109375 37.90625 0.109375 
L 41.59375 0.109375 
C 45.40625 0.109375 46.40625 1.421875 46.40625 4.953125 
z
M 32.796875 15.4375 
C 32.796875 6.28125 23.296875 6.28125 23 6.28125 
C 18.796875 6.28125 16.09375 9.984375 16.09375 13.890625 
C 16.09375 24 30 24 32.796875 24 
z
" id="CMSSBX10-97"/>
      <path d="M 19.40625 23.375 
C 19.40625 33.046875 27.296875 37 33.59375 37 
C 35.40625 37 35.59375 37 35.59375 39.921875 
L 35.59375 44.6875 
C 35.59375 46.703125 35.59375 47.40625 33.796875 47.40625 
C 31 47.40625 23.703125 46.40625 19 35.484375 
L 18.90625 35.484375 
L 18.90625 42.03125 
C 18.90625 45.265625 18.203125 46.890625 14.09375 46.890625 
L 10.90625 46.890625 
C 7.296875 46.890625 6.09375 45.78125 6.09375 42.03125 
L 6.09375 4.84375 
C 6.09375 1.21875 7.203125 0 10.90625 0 
L 14.59375 0 
C 18.40625 0 19.40625 1.3125 19.40625 4.875 
z
" id="CMSSBX10-114"/>
      <path d="M 20 9.015625 
C 16.40625 9.015625 15 9.015625 13.59375 10.25 
C 13.203125 10.640625 11.5 12.171875 11.5 14.828125 
C 11.5 15.53125 11.59375 15.734375 11.703125 16.34375 
C 16.40625 13.71875 22.296875 13.71875 24.40625 13.71875 
C 28.59375 13.71875 44.5 13.71875 44.5 30.46875 
C 44.5 36.34375 42.296875 39.890625 41.40625 41 
C 43.09375 41 46.59375 41 50.703125 39.890625 
C 51.09375 39.6875 51.796875 39.484375 52.09375 39.484375 
C 52.90625 39.484375 53.40625 40.09375 53.40625 40.796875 
C 53.40625 41.203125 52.90625 43.625 52.703125 44.640625 
C 52.296875 47.0625 52.296875 47.265625 50.5 47.265625 
C 47.40625 47.265625 42.40625 46.0625 38.59375 43.734375 
C 33.90625 46.859375 28.703125 47.265625 24.40625 47.265625 
C 20.203125 47.265625 4.296875 47.265625 4.296875 30.53125 
C 4.296875 26.46875 5.40625 21.40625 9.203125 18.0625 
C 6.5 14.296875 6.5 10.359375 6.5 9.84375 
C 6.5 7.921875 7.09375 4.578125 9.203125 1.84375 
C 7.703125 1.234375 2.5 -0.578125 2.5 -7.046875 
C 2.5 -10.1875 4 -15.4375 10.296875 -18.375 
C 16 -21 22.703125 -21 27.40625 -21 
C 33.296875 -21 52.40625 -21 52.40625 -6.703125 
C 52.40625 9.015625 38.296875 9.015625 24.796875 9.015625 
z
M 24.40625 21 
C 17.40625 21 17.09375 24.859375 17.09375 30.453125 
C 17.09375 36.03125 17.40625 40 24.40625 40 
C 31.40625 40 31.703125 36.140625 31.703125 30.546875 
C 31.703125 24.953125 31.40625 21 24.40625 21 
z
M 29.796875 -2 
C 37.90625 -2 42.09375 -3.390625 42.09375 -7 
C 42.09375 -13.734375 30.703125 -13.734375 27.5 -13.734375 
C 23.5 -13.734375 12.796875 -13.734375 12.796875 -6.71875 
C 12.796875 -2 15.90625 -2 18.203125 -2 
z
" id="CMSSBX10-103"/>
      <path d="M 21.703125 68.71875 
L 27 68.71875 
C 28.203125 68.71875 31.796875 68.71875 31.796875 72.359375 
C 31.796875 76 28.203125 76 27 76 
L 13.5 76 
C 9.703125 76 8.703125 74.671875 8.703125 71.140625 
L 8.703125 -20.140625 
C 8.703125 -23.375 9.40625 -25 13.5 -25 
L 27 -25 
C 28.203125 -25 31.796875 -25 31.796875 -21.359375 
C 31.796875 -17.71875 28.203125 -17.71875 27 -17.71875 
L 21.703125 -17.71875 
z
" id="CMSSBX10-91"/>
      <path d="M 80.59375 32.75 
C 80.59375 43.140625 76.203125 47.265625 66 47.265625 
C 58.90625 47.265625 53.40625 43.9375 49.796875 37.28125 
C 48.203125 47.0625 39.703125 47.0625 35.5 47.0625 
C 33.59375 47.0625 29.40625 47.0625 24.90625 43.796875 
C 21.796875 41.53125 19.796875 38.359375 19.09375 36.875 
L 19 36.875 
L 19 41.984375 
C 19 45.25 18.296875 46.890625 14.203125 46.890625 
L 10.796875 46.890625 
C 7.203125 46.890625 6 45.78125 6 42.03125 
L 6 4.84375 
C 6 1.21875 7.09375 0 10.796875 0 
L 14.796875 0 
C 18.59375 0 19.59375 1.3125 19.59375 4.828125 
L 19.59375 27.109375 
C 19.59375 36.171875 25.703125 40 30.59375 40 
C 35.40625 40 36.5 37.875 36.5 32.53125 
L 36.5 4.828125 
C 36.5 1.21875 37.59375 0 41.296875 0 
L 45.296875 0 
C 49.09375 0 50.09375 1.3125 50.09375 4.828125 
L 50.09375 27.109375 
C 50.09375 36.171875 56.203125 40 61.09375 40 
C 65.90625 40 67 37.875 67 32.53125 
L 67 4.828125 
C 67 1.21875 68.09375 0 71.796875 0 
L 75.796875 0 
C 79.59375 0 80.59375 1.3125 80.59375 4.828125 
z
" id="CMSSBX10-109"/>
      <path d="M 25.5 71.140625 
C 25.5 74.375 24.796875 76 20.703125 76 
L 7.203125 76 
C 6 76 2.40625 76 2.40625 72.359375 
C 2.40625 68.71875 6 68.71875 7.203125 68.71875 
L 12.5 68.71875 
L 12.5 -17.71875 
L 7.203125 -17.71875 
C 6 -17.71875 2.40625 -17.71875 2.40625 -21.359375 
C 2.40625 -25 6 -25 7.203125 -25 
L 20.703125 -25 
C 24.5 -25 25.5 -23.6875 25.5 -20.140625 
z
" id="CMSSBX10-93"/>
     </defs>
     <g transform="translate(134.332712 213.713152)scale(0.12 -0.12)">
      <use transform="scale(0.996264)" xlink:href="#CMSSBX10-68"/>
      <use transform="translate(79.14808 0)scale(0.996264)" xlink:href="#CMSSBX10-101"/>
      <use transform="translate(130.068533 0)scale(0.996264)" xlink:href="#CMSSBX10-112"/>
      <use transform="translate(185.970321 0)scale(0.996264)" xlink:href="#CMSSBX10-116"/>
      <use transform="translate(226.236224 0)scale(0.996264)" xlink:href="#CMSSBX10-104"/>
      <use transform="translate(318.667895 0)scale(0.996264)" xlink:href="#CMSSBX10-105"/>
      <use transform="translate(344.128114 0)scale(0.996264)" xlink:href="#CMSSBX10-110"/>
      <use transform="translate(436.559785 0)scale(0.996264)" xlink:href="#CMSSBX10-116"/>
      <use transform="translate(476.825688 0)scale(0.996264)" xlink:href="#CMSSBX10-97"/>
      <use transform="translate(526.085726 0)scale(0.996264)" xlink:href="#CMSSBX10-114"/>
      <use transform="translate(563.169137 0)scale(0.996264)" xlink:href="#CMSSBX10-103"/>
      <use transform="translate(617.963961 0)scale(0.996264)" xlink:href="#CMSSBX10-101"/>
      <use transform="translate(668.884414 0)scale(0.996264)" xlink:href="#CMSSBX10-116"/>
      <use transform="translate(745.680201 0)scale(0.996264)" xlink:href="#CMSSBX10-91"/>
      <use transform="translate(779.85779 0)scale(0.996264)" xlink:href="#CMSSBX10-109"/>
      <use transform="translate(866.201148 0)scale(0.996264)" xlink:href="#CMSSBX10-109"/>
      <use transform="translate(952.544505 0)scale(0.996264)" xlink:href="#CMSSBX10-93"/>
     </g>
    </g>
   </g>
   <g id="matplotlib.axis_2">
    <g id="ytick_1">
     <g id="line2d_15">
      <path clip-path="url(#p672c97bc6a)" d="M 51.84 147.443478 
L 335.232 147.443478 
" style="fill:none;stroke:#b0b0b0;stroke-linecap:square;stroke-width:0.8;"/>
     </g>
     <g id="line2d_16">
      <defs>
       <path d="M 0 0 
L -3.5 0 
" id="m479971593f" style="stroke:#000000;stroke-width:0.8;"/>
      </defs>
      <g>
       <use style="stroke:#000000;stroke-width:0.8;" x="51.84" xlink:href="#m479971593f" y="147.443478"/>
      </g>
     </g>
     <g id="text_9">
      <!-- $50$ -->
      <g transform="translate(31.689242 151.594568)scale(0.12 -0.12)">
       <use transform="scale(0.996264)" xlink:href="#CMSSBX10-53"/>
       <use transform="translate(54.794825 0)scale(0.996264)" xlink:href="#CMSSBX10-48"/>
      </g>
     </g>
    </g>
    <g id="ytick_2">
     <g id="line2d_17">
      <path clip-path="url(#p672c97bc6a)" d="M 51.84 110.347826 
L 335.232 110.347826 
" style="fill:none;stroke:#b0b0b0;stroke-linecap:square;stroke-width:0.8;"/>
     </g>
     <g id="line2d_18">
      <g>
       <use style="stroke:#000000;stroke-width:0.8;" x="51.84" xlink:href="#m479971593f" y="110.347826"/>
      </g>
     </g>
     <g id="text_10">
      <!-- $100$ -->
      <g transform="translate(25.113863 114.498916)scale(0.12 -0.12)">
       <use transform="scale(0.996264)" xlink:href="#CMSSBX10-49"/>
       <use transform="translate(54.794825 0)scale(0.996264)" xlink:href="#CMSSBX10-48"/>
       <use transform="translate(109.589649 0)scale(0.996264)" xlink:href="#CMSSBX10-48"/>
      </g>
     </g>
    </g>
    <g id="ytick_3">
     <g id="line2d_19">
      <path clip-path="url(#p672c97bc6a)" d="M 51.84 73.252174 
L 335.232 73.252174 
" style="fill:none;stroke:#b0b0b0;stroke-linecap:square;stroke-width:0.8;"/>
     </g>
     <g id="line2d_20">
      <g>
       <use style="stroke:#000000;stroke-width:0.8;" x="51.84" xlink:href="#m479971593f" y="73.252174"/>
      </g>
     </g>
     <g id="text_11">
      <!-- $150$ -->
      <g transform="translate(25.113863 77.403264)scale(0.12 -0.12)">
       <use transform="scale(0.996264)" xlink:href="#CMSSBX10-49"/>
       <use transform="translate(54.794825 0)scale(0.996264)" xlink:href="#CMSSBX10-53"/>
       <use transform="translate(109.589649 0)scale(0.996264)" xlink:href="#CMSSBX10-48"/>
      </g>
     </g>
    </g>
    <g id="ytick_4">
     <g id="line2d_21">
      <path clip-path="url(#p672c97bc6a)" d="M 51.84 36.156522 
L 335.232 36.156522 
" style="fill:none;stroke:#b0b0b0;stroke-linecap:square;stroke-width:0.8;"/>
     </g>
     <g id="line2d_22">
      <g>
       <use style="stroke:#000000;stroke-width:0.8;" x="51.84" xlink:href="#m479971593f" y="36.156522"/>
      </g>
     </g>
     <g id="text_12">
      <!-- $200$ -->
      <g transform="translate(25.113863 40.307612)scale(0.12 -0.12)">
       <use transform="scale(0.996264)" xlink:href="#CMSSBX10-50"/>
       <use transform="translate(54.794825 0)scale(0.996264)" xlink:href="#CMSSBX10-48"/>
       <use transform="translate(109.589649 0)scale(0.996264)" xlink:href="#CMSSBX10-48"/>
      </g>
     </g>
    </g>
    <g id="ytick_5">
     <g id="line2d_23">
      <path clip-path="url(#p672c97bc6a)" d="M 51.84 165.991304 
L 335.232 165.991304 
" style="fill:none;stroke:#b0b0b0;stroke-dasharray:2.96,1.28;stroke-dashoffset:0;stroke-width:0.8;"/>
     </g>
     <g id="line2d_24">
      <defs>
       <path d="M 0 0 
L -2 0 
" id="mb7d7957014" style="stroke:#000000;stroke-width:0.6;"/>
      </defs>
      <g>
       <use style="stroke:#000000;stroke-width:0.6;" x="51.84" xlink:href="#mb7d7957014" y="165.991304"/>
      </g>
     </g>
    </g>
    <g id="ytick_6">
     <g id="line2d_25">
      <path clip-path="url(#p672c97bc6a)" d="M 51.84 128.895652 
L 335.232 128.895652 
" style="fill:none;stroke:#b0b0b0;stroke-dasharray:2.96,1.28;stroke-dashoffset:0;stroke-width:0.8;"/>
     </g>
     <g id="line2d_26">
      <g>
       <use style="stroke:#000000;stroke-width:0.6;" x="51.84" xlink:href="#mb7d7957014" y="128.895652"/>
      </g>
     </g>
    </g>
    <g id="ytick_7">
     <g id="line2d_27">
      <path clip-path="url(#p672c97bc6a)" d="M 51.84 91.8 
L 335.232 91.8 
" style="fill:none;stroke:#b0b0b0;stroke-dasharray:2.96,1.28;stroke-dashoffset:0;stroke-width:0.8;"/>
     </g>
     <g id="line2d_28">
      <g>
       <use style="stroke:#000000;stroke-width:0.6;" x="51.84" xlink:href="#mb7d7957014" y="91.8"/>
      </g>
     </g>
    </g>
    <g id="ytick_8">
     <g id="line2d_29">
      <path clip-path="url(#p672c97bc6a)" d="M 51.84 54.704348 
L 335.232 54.704348 
" style="fill:none;stroke:#b0b0b0;stroke-dasharray:2.96,1.28;stroke-dashoffset:0;stroke-width:0.8;"/>
     </g>
     <g id="line2d_30">
      <g>
       <use style="stroke:#000000;stroke-width:0.6;" x="51.84" xlink:href="#mb7d7957014" y="54.704348"/>
      </g>
     </g>
    </g>
    <g id="ytick_9">
     <g id="line2d_31">
      <path clip-path="url(#p672c97bc6a)" d="M 51.84 17.608696 
L 335.232 17.608696 
" style="fill:none;stroke:#b0b0b0;stroke-dasharray:2.96,1.28;stroke-dashoffset:0;stroke-width:0.8;"/>
     </g>
     <g id="line2d_32">
      <g>
       <use style="stroke:#000000;stroke-width:0.6;" x="51.84" xlink:href="#mb7d7957014" y="17.608696"/>
      </g>
     </g>
    </g>
    <g id="text_13">
     <!-- \textbf{Temperature [$^{\circ}$C]} -->
     <defs>
      <path d="M 29.296875 59 
L 29.296875 4.8125 
C 29.296875 1.21875 30.40625 0 34.09375 0 
L 39.203125 0 
C 43 0 44 1.3125 44 4.8125 
L 44 59 
C 48.40625 59 59.59375 59 64 59 
C 66.796875 59 69.203125 59 69.203125 63.796875 
L 69.203125 64.609375 
C 69.203125 67.8125 68.5 69.421875 64.40625 69.421875 
L 8.796875 69.421875 
C 5.203125 69.421875 4 68.3125 4 64.609375 
L 4 63.796875 
C 4 59 6.40625 59 9.203125 59 
z
" id="CMSSBX10-84"/>
      <path d="M 50 41.4375 
C 50 44.671875 49.296875 46.28125 45.203125 46.28125 
L 41.203125 46.28125 
C 37.40625 46.28125 36.40625 44.96875 36.40625 41.453125 
L 36.40625 17.5625 
C 36.40625 10.90625 32.90625 5.15625 25.796875 5.15625 
C 20.203125 5.15625 19.59375 6.578125 19.59375 11.921875 
L 19.59375 41.453125 
C 19.59375 44.671875 18.90625 46.28125 14.796875 46.28125 
L 10.796875 46.28125 
C 7.203125 46.28125 6 45.171875 6 41.453125 
L 6 12.8125 
C 6 2.03125 11.796875 -1 22.203125 -1 
C 24.90625 -1 32 -1 36.703125 7.578125 
L 36.703125 4.90625 
C 36.703125 1.625 37.40625 0 41.5 0 
L 45.203125 0 
C 49 0 50 1.3125 50 4.84375 
z
" id="CMSSBX10-117"/>
      <path d="M 51 24.953125 
C 51 38.390625 41.796875 47.25 28.703125 47.25 
C 15.203125 47.25 6.40625 37.984375 6.40625 25.046875 
C 6.40625 11.609375 15.59375 2.765625 28.703125 2.765625 
C 42.203125 2.765625 51 12.015625 51 24.953125 
z
M 28.703125 8.859375 
C 18.296875 8.859375 12.5 15.609375 12.5 24.953125 
C 12.5 34.984375 18.90625 41.140625 28.703125 41.140625 
C 38.59375 41.140625 44.90625 34.890625 44.90625 24.953125 
C 44.90625 15.421875 39 8.859375 28.703125 8.859375 
z
" id="CMBSY10-14"/>
      <path d="M 64 14.453125 
C 64 15.265625 63.296875 15.65625 62.90625 15.65625 
C 60.5 15.65625 57.59375 9.109375 43.5 9.109375 
C 25.90625 9.109375 20.90625 20 20.90625 35.109375 
C 20.90625 50.109375 26.296875 61 42.703125 61 
C 51.59375 61 56.296875 57.46875 59 55.25 
C 59.59375 54.75 59.90625 54.34375 60.59375 54.34375 
C 61 54.34375 61.5 54.84375 61.59375 55.25 
L 63.59375 66.453125 
C 63.703125 66.859375 63.59375 67.265625 62.796875 67.5625 
C 56.90625 69.78125 50.796875 71.203125 43 71.203125 
C 18.59375 71.203125 6.09375 59.203125 6.09375 35.203125 
C 6.09375 10.5 18.796875 -1 43.09375 -1 
C 51.59375 -1 56.90625 0.21875 64.203125 4.765625 
C 65 5.265625 64.796875 5.984375 64.796875 5.984375 
z
" id="CMSSBX10-67"/>
     </defs>
     <g transform="translate(12.125071 140.230918)rotate(-90)scale(0.12 -0.12)">
      <use transform="scale(0.996264)" xlink:href="#CMSSBX10-84"/>
      <use transform="translate(63.927295 0)scale(0.996264)" xlink:href="#CMSSBX10-101"/>
      <use transform="translate(114.847748 0)scale(0.996264)" xlink:href="#CMSSBX10-109"/>
      <use transform="translate(201.191105 0)scale(0.996264)" xlink:href="#CMSSBX10-112"/>
      <use transform="translate(260.13705 0)scale(0.996264)" xlink:href="#CMSSBX10-101"/>
      <use transform="translate(311.057503 0)scale(0.996264)" xlink:href="#CMSSBX10-114"/>
      <use transform="translate(348.140913 0)scale(0.996264)" xlink:href="#CMSSBX10-97"/>
      <use transform="translate(400.445108 0)scale(0.996264)" xlink:href="#CMSSBX10-116"/>
      <use transform="translate(440.711012 0)scale(0.996264)" xlink:href="#CMSSBX10-117"/>
      <use transform="translate(496.6128 0)scale(0.996264)" xlink:href="#CMSSBX10-114"/>
      <use transform="translate(533.69621 0)scale(0.996264)" xlink:href="#CMSSBX10-101"/>
      <use transform="translate(621.146546 0)scale(0.996264)" xlink:href="#CMSSBX10-91"/>
      <use transform="translate(655.324135 36.153639)scale(0.697382)" xlink:href="#CMBSY10-14"/>
      <use transform="translate(695.921499 0)scale(0.996264)" xlink:href="#CMSSBX10-67"/>
      <use transform="translate(765.937108 0)scale(0.996264)" xlink:href="#CMSSBX10-93"/>
     </g>
    </g>
   </g>
   <g id="line2d_33">
    <path clip-path="url(#p672c97bc6a)" d="M 51.967736 -1 
L 68.05632 10.690395 
L 99.54432 18.661023 
L 100.584562 39.079711 
L 102.035647 66.134794 
L 104.059841 98.772652 
L 106.883491 130.117244 
L 110.822343 153.53482 
L 116.316849 165.0768 
L 123.981414 168.717394 
L 134.673106 169.527635 
L 149.587489 169.675917 
L 170.39232 169.695681 
L 191.197151 169.698388 
L 206.111534 169.700186 
L 216.803226 169.700593 
L 224.467791 169.70072 
L 229.962297 169.700761 
L 233.901149 169.700774 
L 236.724799 169.700778 
L 238.748993 169.700779 
L 240.200078 169.700779 
L 241.24032 169.700779 
" style="fill:none;stroke:#ff8c00;stroke-linecap:square;stroke-width:1.5;"/>
    <defs>
     <path d="M -3 3 
L 3 3 
L 3 -3 
L -3 -3 
z
" id="mf6908fd252" style="stroke:#ff8c00;stroke-linejoin:miter;"/>
    </defs>
    <g clip-path="url(#p672c97bc6a)">
     <use style="fill:#ff8c00;stroke:#ff8c00;stroke-linejoin:miter;" x="51.967736" xlink:href="#mf6908fd252" y="-1"/>
     <use style="fill:#ff8c00;stroke:#ff8c00;stroke-linejoin:miter;" x="68.05632" xlink:href="#mf6908fd252" y="10.690395"/>
     <use style="fill:#ff8c00;stroke:#ff8c00;stroke-linejoin:miter;" x="99.54432" xlink:href="#mf6908fd252" y="18.661023"/>
     <use style="fill:#ff8c00;stroke:#ff8c00;stroke-linejoin:miter;" x="100.584562" xlink:href="#mf6908fd252" y="39.079711"/>
     <use style="fill:#ff8c00;stroke:#ff8c00;stroke-linejoin:miter;" x="102.035647" xlink:href="#mf6908fd252" y="66.134794"/>
     <use style="fill:#ff8c00;stroke:#ff8c00;stroke-linejoin:miter;" x="104.059841" xlink:href="#mf6908fd252" y="98.772652"/>
     <use style="fill:#ff8c00;stroke:#ff8c00;stroke-linejoin:miter;" x="106.883491" xlink:href="#mf6908fd252" y="130.117244"/>
     <use style="fill:#ff8c00;stroke:#ff8c00;stroke-linejoin:miter;" x="110.822343" xlink:href="#mf6908fd252" y="153.53482"/>
     <use style="fill:#ff8c00;stroke:#ff8c00;stroke-linejoin:miter;" x="116.316849" xlink:href="#mf6908fd252" y="165.0768"/>
     <use style="fill:#ff8c00;stroke:#ff8c00;stroke-linejoin:miter;" x="123.981414" xlink:href="#mf6908fd252" y="168.717394"/>
     <use style="fill:#ff8c00;stroke:#ff8c00;stroke-linejoin:miter;" x="134.673106" xlink:href="#mf6908fd252" y="169.527635"/>
     <use style="fill:#ff8c00;stroke:#ff8c00;stroke-linejoin:miter;" x="149.587489" xlink:href="#mf6908fd252" y="169.675917"/>
     <use style="fill:#ff8c00;stroke:#ff8c00;stroke-linejoin:miter;" x="170.39232" xlink:href="#mf6908fd252" y="169.695681"/>
     <use style="fill:#ff8c00;stroke:#ff8c00;stroke-linejoin:miter;" x="191.197151" xlink:href="#mf6908fd252" y="169.698388"/>
     <use style="fill:#ff8c00;stroke:#ff8c00;stroke-linejoin:miter;" x="206.111534" xlink:href="#mf6908fd252" y="169.700186"/>
     <use style="fill:#ff8c00;stroke:#ff8c00;stroke-linejoin:miter;" x="216.803226" xlink:href="#mf6908fd252" y="169.700593"/>
     <use style="fill:#ff8c00;stroke:#ff8c00;stroke-linejoin:miter;" x="224.467791" xlink:href="#mf6908fd252" y="169.70072"/>
     <use style="fill:#ff8c00;stroke:#ff8c00;stroke-linejoin:miter;" x="229.962297" xlink:href="#mf6908fd252" y="169.700761"/>
     <use style="fill:#ff8c00;stroke:#ff8c00;stroke-linejoin:miter;" x="233.901149" xlink:href="#mf6908fd252" y="169.700774"/>
     <use style="fill:#ff8c00;stroke:#ff8c00;stroke-linejoin:miter;" x="236.724799" xlink:href="#mf6908fd252" y="169.700778"/>
     <use style="fill:#ff8c00;stroke:#ff8c00;stroke-linejoin:miter;" x="238.748993" xlink:href="#mf6908fd252" y="169.700779"/>
     <use style="fill:#ff8c00;stroke:#ff8c00;stroke-linejoin:miter;" x="240.200078" xlink:href="#mf6908fd252" y="169.700779"/>
     <use style="fill:#ff8c00;stroke:#ff8c00;stroke-linejoin:miter;" x="241.24032" xlink:href="#mf6908fd252" y="169.700779"/>
    </g>
   </g>
   <g id="line2d_34">
    <path clip-path="url(#p672c97bc6a)" d="M 4.664863 -1 
L 4.84416 3.613734 
L 5.08032 9.689115 
L 99.54432 100.33146 
L 194.00832 124.340599 
L 288.47232 130.997464 
L 289.512562 134.538609 
L 290.963647 139.473716 
L 292.987841 146.064591 
L 295.811491 153.697747 
L 299.750343 160.872464 
L 305.244849 165.839967 
L 312.909414 168.315499 
L 323.601106 169.302739 
L 338.515489 169.61862 
L 346.6 169.644533 
" style="fill:none;stroke:#00008b;stroke-linecap:square;stroke-width:1.5;"/>
    <defs>
     <path d="M 0 3 
C 0.795609 3 1.55874 2.683901 2.12132 2.12132 
C 2.683901 1.55874 3 0.795609 3 0 
C 3 -0.795609 2.683901 -1.55874 2.12132 -2.12132 
C 1.55874 -2.683901 0.795609 -3 0 -3 
C -0.795609 -3 -1.55874 -2.683901 -2.12132 -2.12132 
C -2.683901 -1.55874 -3 -0.795609 -3 0 
C -3 0.795609 -2.683901 1.55874 -2.12132 2.12132 
C -1.55874 2.683901 -0.795609 3 0 3 
z
" id="m130448f133" style="stroke:#00008b;"/>
    </defs>
    <g clip-path="url(#p672c97bc6a)">
     <use style="fill:#00008b;stroke:#00008b;" x="4.664863" xlink:href="#m130448f133" y="-1"/>
     <use style="fill:#00008b;stroke:#00008b;" x="4.84416" xlink:href="#m130448f133" y="3.613734"/>
     <use style="fill:#00008b;stroke:#00008b;" x="5.08032" xlink:href="#m130448f133" y="9.689115"/>
     <use style="fill:#00008b;stroke:#00008b;" x="99.54432" xlink:href="#m130448f133" y="100.33146"/>
     <use style="fill:#00008b;stroke:#00008b;" x="194.00832" xlink:href="#m130448f133" y="124.340599"/>
     <use style="fill:#00008b;stroke:#00008b;" x="288.47232" xlink:href="#m130448f133" y="130.997464"/>
     <use style="fill:#00008b;stroke:#00008b;" x="289.512562" xlink:href="#m130448f133" y="134.538609"/>
     <use style="fill:#00008b;stroke:#00008b;" x="290.963647" xlink:href="#m130448f133" y="139.473716"/>
     <use style="fill:#00008b;stroke:#00008b;" x="292.987841" xlink:href="#m130448f133" y="146.064591"/>
     <use style="fill:#00008b;stroke:#00008b;" x="295.811491" xlink:href="#m130448f133" y="153.697747"/>
     <use style="fill:#00008b;stroke:#00008b;" x="299.750343" xlink:href="#m130448f133" y="160.872464"/>
     <use style="fill:#00008b;stroke:#00008b;" x="305.244849" xlink:href="#m130448f133" y="165.839967"/>
     <use style="fill:#00008b;stroke:#00008b;" x="312.909414" xlink:href="#m130448f133" y="168.315499"/>
     <use style="fill:#00008b;stroke:#00008b;" x="323.601106" xlink:href="#m130448f133" y="169.302739"/>
     <use style="fill:#00008b;stroke:#00008b;" x="338.515489" xlink:href="#m130448f133" y="169.61862"/>
     <use style="fill:#00008b;stroke:#00008b;" x="359.32032" xlink:href="#m130448f133" y="169.685304"/>
     <use style="fill:#00008b;stroke:#00008b;" x="380.125151" xlink:href="#m130448f133" y="169.693278"/>
     <use style="fill:#00008b;stroke:#00008b;" x="395.039534" xlink:href="#m130448f133" y="169.697731"/>
     <use style="fill:#00008b;stroke:#00008b;" x="405.731226" xlink:href="#m130448f133" y="169.699294"/>
     <use style="fill:#00008b;stroke:#00008b;" x="413.395791" xlink:href="#m130448f133" y="169.699862"/>
     <use style="fill:#00008b;stroke:#00008b;" x="418.890297" xlink:href="#m130448f133" y="169.70007"/>
     <use style="fill:#00008b;stroke:#00008b;" x="422.829149" xlink:href="#m130448f133" y="169.700138"/>
     <use style="fill:#00008b;stroke:#00008b;" x="425.652799" xlink:href="#m130448f133" y="169.700159"/>
     <use style="fill:#00008b;stroke:#00008b;" x="427.676993" xlink:href="#m130448f133" y="169.700164"/>
     <use style="fill:#00008b;stroke:#00008b;" x="429.128078" xlink:href="#m130448f133" y="169.700165"/>
     <use style="fill:#00008b;stroke:#00008b;" x="430.16832" xlink:href="#m130448f133" y="169.700165"/>
    </g>
   </g>
   <g id="line2d_35">
    <path clip-path="url(#p672c97bc6a)" d="M 288 184.53913 
L 288 6.48 
" style="fill:none;stroke:#000000;stroke-dasharray:7.4,3.2;stroke-dashoffset:0;stroke-width:2;"/>
   </g>
   <g id="line2d_36">
    <path clip-path="url(#p672c97bc6a)" d="M 99.072 184.53913 
L 99.072 6.48 
" style="fill:none;stroke:#000000;stroke-dasharray:7.4,3.2;stroke-dashoffset:0;stroke-width:2;"/>
   </g>
   <g id="patch_3">
    <path d="M 51.84 177.12 
L 51.84 6.48 
" style="fill:none;stroke:#000000;stroke-linecap:square;stroke-linejoin:miter;stroke-width:0.8;"/>
   </g>
   <g id="patch_4">
    <path d="M 335.232 177.12 
L 335.232 6.48 
" style="fill:none;stroke:#000000;stroke-linecap:square;stroke-linejoin:miter;stroke-width:0.8;"/>
   </g>
   <g id="patch_5">
    <path d="M 51.84 177.12 
L 335.232 177.12 
" style="fill:none;stroke:#000000;stroke-linecap:square;stroke-linejoin:miter;stroke-width:0.8;"/>
   </g>
   <g id="patch_6">
    <path d="M 51.84 6.48 
L 335.232 6.48 
" style="fill:none;stroke:#000000;stroke-linecap:square;stroke-linejoin:miter;stroke-width:0.8;"/>
   </g>
   <g id="legend_1">
    <g id="patch_7">
     <path d="M 206.87168 66.204 
L 281.578833 66.204 
Q 283.578833 66.204 283.578833 64.204 
L 283.578833 23.473967 
Q 283.578833 21.473967 281.578833 21.473967 
L 206.87168 21.473967 
Q 204.87168 21.473967 204.87168 23.473967 
L 204.87168 64.204 
Q 204.87168 66.204 206.87168 66.204 
z
" style="fill:#ffffff;opacity:0.8;stroke:#cccccc;stroke-linejoin:miter;"/>
    </g>
    <g id="text_14">
     <!-- Copper thickness -->
     <defs>
      <path d="M 54.703125 11.15625 
C 48 6.671875 44.90625 5.375 36.796875 5.375 
C 22.796875 5.375 14.59375 20.359375 14.59375 34.046875 
C 14.59375 48.625 23 63 37.203125 63 
C 43.59375 63 47.796875 61.21875 52.90625 58.046875 
L 54.296875 65.890625 
C 49.5 68.28125 43.40625 69.375 37.296875 69.375 
C 18.09375 69.375 6.203125 51.8125 6.203125 34.046875 
C 6.203125 14.484375 20.296875 -1 36.296875 -1 
C 44.90625 -1 47.90625 -0.296875 55.296875 4.375 
z
" id="CMSS17-67"/>
      <path d="M 44.203125 21.1875 
C 44.203125 34 34.703125 44 23.5 44 
C 12 44 2.703125 33.703125 2.703125 21.1875 
C 2.703125 8.5 12.296875 -1 23.40625 -1 
C 34.796875 -1 44.203125 8.796875 44.203125 21.1875 
z
M 23.5 5.265625 
C 16.40625 5.265625 10.296875 11.078125 10.296875 22 
C 10.296875 33.609375 17.40625 37.921875 23.40625 37.921875 
C 29.90625 37.921875 36.59375 33.21875 36.59375 22 
C 36.59375 10.671875 30.09375 5.265625 23.5 5.265625 
z
" id="CMSS17-111"/>
      <path d="M 15.09375 5.203125 
C 18.40625 2.015625 22.90625 -0.078125 27.703125 -0.078125 
C 37 -0.078125 45 9.421875 45 22.0625 
C 45 33.734375 39 44 30.40625 44 
C 25.40625 44 19.40625 42.21875 14.90625 38.625 
L 14.90625 43.203125 
L 7.5 43.203125 
L 7.5 -19 
L 15.09375 -19 
z
M 15.09375 32.8125 
C 15.90625 34 19.296875 37.734375 24.796875 37.734375 
C 31.796875 37.734375 37.40625 30.625 37.40625 22.0625 
C 37.40625 12.296875 30.59375 6 23.90625 6 
C 21.90625 6 19.796875 6.484375 17.796875 8.171875 
C 15.09375 10.53125 15.09375 12 15.09375 13.390625 
z
" id="CMSS17-112"/>
      <path d="M 39.09375 21.515625 
C 39.09375 24.84375 38.90625 31.296875 35.703125 36.640625 
C 32.203125 42.390625 26.5 44 22.203125 44 
C 11.796875 44 3 34.1875 3 21.484375 
C 3 9.09375 12.09375 -1 23.59375 -1 
C 28.09375 -1 33.59375 0.296875 38.59375 3.875 
C 38.59375 4.28125 38.40625 6.46875 38.296875 6.5625 
C 38.296875 6.765625 38 9.84375 38 10.25 
C 33.203125 6.359375 27.703125 5.078125 23.703125 5.078125 
C 17.296875 5.078125 10.40625 10.421875 10.09375 21.515625 
z
M 10.90625 27 
C 12.203125 32.5625 16.59375 37.828125 22.203125 37.828125 
C 23.703125 37.828125 30.703125 37.828125 32.5 27 
z
" id="CMSS17-101"/>
      <path d="M 14.90625 21.296875 
C 14.90625 30.703125 21.796875 37 30.59375 37 
L 30.59375 43.578125 
C 24.203125 43.578125 18.203125 40.390625 14.59375 35.203125 
L 14.59375 43.09375 
L 7.5 43.09375 
L 7.5 0 
L 14.90625 0 
z
" id="CMSS17-114"/>
      <path d="M 16.703125 37 
L 29.703125 37 
L 29.703125 42.765625 
L 16.703125 42.765625 
L 16.703125 55 
L 9.59375 55 
L 9.59375 42.765625 
L 1.703125 42.765625 
L 1.703125 37 
L 9.40625 37 
L 9.40625 11.703125 
C 9.40625 6 10.703125 -1 17.296875 -1 
C 22.296875 -1 26.90625 0.390625 31.296875 2.6875 
L 29.703125 8.5625 
C 27.296875 6.46875 24.40625 5.265625 21.296875 5.265625 
C 16.90625 5.265625 16.703125 10.875 16.703125 13.375 
z
" id="CMSS17-116"/>
      <path d="M 40.90625 29.546875 
C 40.90625 35.8125 39.40625 44.0625 28.09375 44.0625 
C 21.796875 44.0625 17.703125 40.984375 14.796875 37.609375 
L 14.796875 69.5 
L 7.40625 69.5 
L 7.40625 0.5 
L 15 0.5 
L 15 24.578125 
C 15 30.828125 17.40625 38 24.203125 38 
C 33 38 33.296875 32.125 33.296875 28.734375 
L 33.296875 0.5 
L 40.90625 0.5 
z
" id="CMSS17-104"/>
      <path d="M 15.296875 65.359375 
L 6.90625 65.359375 
L 6.90625 57 
L 15.296875 57 
z
M 14.796875 42.796875 
L 7.40625 42.796875 
L 7.40625 0 
L 14.796875 0 
z
" id="CMSS17-105"/>
      <path d="M 38.5 39.703125 
C 38.5 40.390625 33.90625 42.40625 32.703125 42.796875 
C 29.40625 44 25.203125 44 24.09375 44 
C 11.09375 44 3.296875 32.703125 3.296875 21.296875 
C 3.296875 9.296875 12 -1 23.703125 -1 
C 30.40625 -1 35.203125 1.1875 39.09375 3.78125 
L 38.5 10.375 
C 34.203125 7.078125 29.203125 5.265625 23.796875 5.265625 
C 16 5.265625 10.90625 12.09375 10.90625 21.390625 
C 10.90625 28.609375 14.203125 37.71875 24.203125 37.71875 
C 29.703125 37.71875 32.796875 36.609375 37.40625 33.515625 
z
" id="CMSS17-99"/>
      <path d="M 26.5 26.375 
L 42 42.796875 
L 32.40625 42.796875 
L 14.90625 24.28125 
L 14.90625 69 
L 7.5 69 
L 7.5 0 
L 14.796875 0 
L 14.796875 13.9375 
L 21.5 21 
L 35.59375 0 
L 44.09375 0 
z
" id="CMSS17-107"/>
      <path d="M 40.90625 29.328125 
C 40.90625 35.671875 39.40625 44 28.09375 44 
C 21.703125 44 17.5 40.71875 14.703125 37.328125 
L 14.703125 43.09375 
L 7.40625 43.09375 
L 7.40625 0 
L 15 0 
L 15 24.359375 
C 15 30.6875 17.40625 37.9375 24.203125 37.9375 
C 33 37.9375 33.296875 32 33.296875 28.578125 
L 33.296875 0 
L 40.90625 0 
z
" id="CMSS17-110"/>
      <path d="M 32.203125 41.046875 
C 26.296875 43.859375 21.703125 43.859375 18.703125 43.859375 
C 11.59375 43.859375 3.09375 41.375 3.09375 31.296875 
C 3.09375 21.234375 14.09375 19.03125 17.09375 18.421875 
C 21.703125 17.53125 26.796875 16.53125 26.796875 11.5625 
C 26.796875 5.265625 19.59375 5.265625 18.296875 5.265625 
C 14.296875 5.265625 8.796875 6.359375 3.796875 9.96875 
L 2.59375 3.28125 
C 8.296875 0 13.796875 -1 18.40625 -1 
C 30.703125 -1 33.796875 6.5 33.796875 12.203125 
C 33.796875 17.09375 31 20.390625 29.09375 21.890625 
C 25.796875 24.5 24.59375 24.796875 16.40625 26.5 
C 15 26.703125 10.09375 27.796875 10.09375 32.28125 
C 10.09375 38 16.40625 38 17.796875 38 
C 24.296875 38 28.296875 35.984375 31 34.5 
z
" id="CMSS17-115"/>
     </defs>
     <g transform="translate(208.87168 32.392465)scale(0.1 -0.1)">
      <use transform="scale(0.996264)" xlink:href="#CMSS17-67"/>
      <use transform="translate(59.855772 0)scale(0.996264)" xlink:href="#CMSS17-111"/>
      <use transform="translate(106.699395 0)scale(0.996264)" xlink:href="#CMSS17-112"/>
      <use transform="translate(154.904338 0)scale(0.996264)" xlink:href="#CMSS17-112"/>
      <use transform="translate(205.71172 0)scale(0.996264)" xlink:href="#CMSS17-101"/>
      <use transform="translate(247.350542 0)scale(0.996264)" xlink:href="#CMSS17-114"/>
      <use transform="translate(310.489427 0)scale(0.996264)" xlink:href="#CMSS17-116"/>
      <use transform="translate(344.320994 0)scale(0.996264)" xlink:href="#CMSS17-104"/>
      <use transform="translate(392.525937 0)scale(0.996264)" xlink:href="#CMSS17-105"/>
      <use transform="translate(414.70666 0)scale(0.996264)" xlink:href="#CMSS17-99"/>
      <use transform="translate(456.345482 0)scale(0.996264)" xlink:href="#CMSS17-107"/>
      <use transform="translate(501.947972 0)scale(0.996264)" xlink:href="#CMSS17-110"/>
      <use transform="translate(550.152915 0)scale(0.996264)" xlink:href="#CMSS17-101"/>
      <use transform="translate(591.791737 0)scale(0.996264)" xlink:href="#CMSS17-115"/>
      <use transform="translate(627.705279 0)scale(0.996264)" xlink:href="#CMSS17-115"/>
     </g>
    </g>
    <g id="line2d_37">
     <path d="M 218.159374 42.829643 
L 238.159374 42.829643 
" style="fill:none;stroke:#ff8c00;stroke-linecap:square;stroke-width:1.5;"/>
    </g>
    <g id="line2d_38">
     <g>
      <use style="fill:#ff8c00;stroke:#ff8c00;stroke-linejoin:miter;" x="228.159374" xlink:href="#mf6908fd252" y="42.829643"/>
     </g>
    </g>
    <g id="text_15">
     <!-- 1 mm -->
     <defs>
      <path d="M 28.40625 67 
L 26.5 67 
C 21.09375 61.5625 14.796875 60.78125 8.40625 60.78125 
L 8.40625 55 
C 11.296875 55 16 55 20.703125 57.296875 
L 20.703125 5.765625 
L 8.90625 5.765625 
L 8.90625 0 
L 40.203125 0 
L 40.203125 5.765625 
L 28.40625 5.765625 
z
" id="CMSS17-49"/>
      <path d="M 67 29.328125 
C 67 36.0625 65.296875 44 54.09375 44 
C 46.59375 44 42.09375 39.3125 40.09375 36.421875 
C 38.296875 41.71875 34.09375 44 28.09375 44 
C 21.296875 44 17 40.125 14.703125 37.328125 
L 14.703125 43.09375 
L 7.40625 43.09375 
L 7.40625 0 
L 15 0 
L 15 24.359375 
C 15 30.296875 17.203125 37.9375 24.296875 37.9375 
C 33.40625 37.9375 33.40625 31.5 33.40625 28.578125 
L 33.40625 0 
L 41 0 
L 41 24.359375 
C 41 30.296875 43.203125 37.9375 50.296875 37.9375 
C 59.40625 37.9375 59.40625 31.5 59.40625 28.578125 
L 59.40625 0 
L 67 0 
z
" id="CMSS17-109"/>
     </defs>
     <g transform="translate(246.159374 46.329643)scale(0.1 -0.1)">
      <use transform="scale(0.996264)" xlink:href="#CMSS17-49"/>
      <use transform="translate(78.072736 0)scale(0.996264)" xlink:href="#CMSS17-109"/>
      <use transform="translate(152.301991 0)scale(0.996264)" xlink:href="#CMSS17-109"/>
     </g>
    </g>
    <g id="line2d_39">
     <path d="M 218.159374 56.766822 
L 238.159374 56.766822 
" style="fill:none;stroke:#00008b;stroke-linecap:square;stroke-width:1.5;"/>
    </g>
    <g id="line2d_40">
     <g>
      <use style="fill:#00008b;stroke:#00008b;" x="228.159374" xlink:href="#m130448f133" y="56.766822"/>
     </g>
    </g>
    <g id="text_16">
     <!-- 3 mm -->
     <defs>
      <path d="M 15.703125 31.640625 
L 22.5 31.640625 
C 31.90625 31.640625 34.59375 23.546875 34.59375 17.90625 
C 34.59375 10.203125 30.203125 4.171875 23 4.171875 
C 17.40625 4.171875 9.5 6.9375 5 14.25 
C 4.296875 10.796875 4.296875 10.59375 3.90625 8.21875 
C 8.59375 1.375 16.203125 -2 23.203125 -2 
C 34.59375 -2 43 7.390625 43 17.78125 
C 43 25.59375 37.5 32.140625 30 34.609375 
C 36 37.875 40.40625 44 40.40625 51.140625 
C 40.40625 59.453125 32.703125 66.078125 23.296875 66.078125 
C 14.703125 66.078125 8 60.8125 5.203125 55.15625 
C 5.90625 54.1875 7.703125 51.3125 8.59375 49.828125 
C 10.796875 55.65625 16.5 60 23.203125 60 
C 28.796875 60 32.5 56.359375 32.5 51.109375 
C 32.5 45.671875 29 39.734375 23.09375 38.359375 
C 22.703125 38.359375 16.5 37.765625 15.703125 37.671875 
z
" id="CMSS17-51"/>
     </defs>
     <g transform="translate(246.159374 60.266822)scale(0.1 -0.1)">
      <use transform="scale(0.996264)" xlink:href="#CMSS17-51"/>
      <use transform="translate(78.072736 0)scale(0.996264)" xlink:href="#CMSS17-109"/>
      <use transform="translate(152.301991 0)scale(0.996264)" xlink:href="#CMSS17-109"/>
     </g>
    </g>
   </g>
  </g>
 </g>
 <defs>
  <clipPath id="p672c97bc6a">
   <rect height="170.64" width="283.392" x="51.84" y="6.48"/>
  </clipPath>
 </defs>
</svg>
