<?xml version="1.0" encoding="utf-8" standalone="no"?>
<!DOCTYPE svg PUBLIC "-//W3C//DTD SVG 1.1//EN"
  "http://www.w3.org/Graphics/SVG/1.1/DTD/svg11.dtd">
<!-- Created with matplotlib (http://matplotlib.org/) -->
<svg height="360pt" version="1.1" viewBox="0 0 576 360" width="576pt" xmlns="http://www.w3.org/2000/svg" xmlns:xlink="http://www.w3.org/1999/xlink">
 <defs>
  <style type="text/css">
*{stroke-linecap:butt;stroke-linejoin:round;}
  </style>
 </defs>
 <g id="figure_1">
  <g id="patch_1">
   <path d="M 0 360 
L 576 360 
L 576 0 
L 0 0 
z
" style="fill:#ffffff;"/>
  </g>
  <g id="axes_1">
   <g id="patch_2">
    <path d="M 103.68 295.2 
L 432 295.2 
L 432 43.2 
L 103.68 43.2 
z
" style="fill:#ffffff;"/>
   </g>
   <g id="matplotlib.axis_1">
    <g id="xtick_1">
     <g id="line2d_1">
      <path clip-path="url(#pa491ab0a2f)" d="M 118.603636 295.2 
L 118.603636 43.2 
" style="fill:none;stroke:#b0b0b0;stroke-linecap:square;stroke-width:0.8;"/>
     </g>
     <g id="line2d_2">
      <defs>
       <path d="M 0 0 
L 0 3.5 
" id="m9a1e9d5fc2" style="stroke:#000000;stroke-width:0.8;"/>
      </defs>
      <g>
       <use style="stroke:#000000;stroke-width:0.8;" x="118.603636" xlink:href="#m9a1e9d5fc2" y="295.2"/>
      </g>
     </g>
     <g id="text_1">
      <!-- $1.5$ -->
      <defs>
       <path d="M 35.5 67.625 
C 35.5 69.5625 35.5 72.5 31.09375 72.5 
C 29.09375 72.5 28.703125 72.28125 27.5 71 
C 25.703125 69.3125 21.90625 65.375 12 65.375 
C 10.203125 65.375 7.59375 64.65625 7.59375 61.703125 
C 7.59375 58 11.09375 58 12.40625 58 
C 15.40625 58 18.90625 58.5 21.796875 59.3125 
L 21.796875 7.28125 
L 14 7.28125 
C 12.703125 7.28125 9.203125 7.28125 9.203125 3.640625 
C 9.203125 0 12.703125 0 14 0 
L 42.5 0 
C 43.59375 0 47.296875 0 47.296875 3.640625 
C 47.296875 7.28125 43.59375 7.28125 42.5 7.28125 
L 35.5 7.28125 
z
" id="CMSSBX10-49"/>
       <path d="M 21.796875 10.515625 
C 21.796875 13.140625 21.703125 13.140625 19.09375 13.140625 
L 11.40625 13.140625 
C 8.796875 13.140625 8.703125 13.046875 8.703125 10.421875 
L 8.703125 2.640625 
C 8.703125 0 8.796875 0 11.40625 0 
L 19.09375 0 
C 21.703125 0 21.796875 0.09375 21.796875 2.734375 
z
" id="CMSSBX10-46"/>
       <path d="M 21.296875 59.90625 
L 40.90625 59.90625 
C 45.59375 59.90625 45.703125 62.21875 45.703125 64.953125 
C 45.703125 67.578125 45.703125 70 40.90625 70 
L 13.09375 70 
C 9.90625 70 8.296875 69.40625 8.296875 65.328125 
L 8.296875 34.1875 
C 8.296875 29.609375 10.59375 29.609375 13.296875 29.609375 
C 15.90625 29.609375 16.796875 29.609375 18.203125 32.046875 
C 20.59375 35.984375 24 38 28.203125 38 
C 34.703125 38 34.703125 30.328125 34.703125 22.453125 
C 34.703125 14.671875 34.703125 7 24.203125 7 
C 21.09375 7 14.296875 7.90625 10.296875 15.890625 
C 10 16.5 9.703125 17.09375 9 17.09375 
C 8.203125 17.09375 8 16.59375 7.40625 15.78125 
C 6 13.46875 3.703125 9.921875 3.703125 9.21875 
C 3.703125 8.40625 10.203125 -2.5 24.5 -2.5 
C 40.59375 -2.5 49.40625 5.6875 49.40625 22.03125 
C 49.40625 35.375 43.90625 45.28125 28.59375 45.28125 
C 26.09375 45.28125 23.703125 44.875 21.296875 43.96875 
z
" id="CMSSBX10-53"/>
      </defs>
      <g transform="translate(106.000827 314.6533)scale(0.18 -0.18)">
       <use transform="scale(0.996264)" xlink:href="#CMSSBX10-49"/>
       <use transform="translate(54.794825 0)scale(0.996264)" xlink:href="#CMSSBX10-46"/>
       <use transform="translate(85.236394 0)scale(0.996264)" xlink:href="#CMSSBX10-53"/>
      </g>
     </g>
    </g>
    <g id="xtick_2">
     <g id="line2d_3">
      <path clip-path="url(#pa491ab0a2f)" d="M 200.005289 295.2 
L 200.005289 43.2 
" style="fill:none;stroke:#b0b0b0;stroke-linecap:square;stroke-width:0.8;"/>
     </g>
     <g id="line2d_4">
      <g>
       <use style="stroke:#000000;stroke-width:0.8;" x="200.005289" xlink:href="#m9a1e9d5fc2" y="295.2"/>
      </g>
     </g>
     <g id="text_2">
      <!-- $3.0$ -->
      <defs>
       <path d="M 9.59375 56.546875 
C 10.40625 55.328125 10.90625 55.328125 11.09375 55.328125 
C 11.796875 55.328125 12 55.75 12.5 56.46875 
C 17.59375 64 24.703125 64 26 64 
C 32.40625 64 33.296875 60.578125 33.296875 55.5 
C 33.296875 54.03125 33.296875 49.0625 30.203125 45.109375 
C 27.796875 42.203125 25.296875 42 22.296875 42 
C 21.203125 41.703125 19.296875 41.703125 19 41.5 
C 18.296875 41.203125 18.296875 40.578125 18.296875 38.921875 
L 18.296875 37.09375 
C 18.296875 34.421875 18.40625 34.421875 21 34.421875 
L 25.40625 34.421875 
C 34.5 34.421875 35.59375 28.6875 35.59375 20.921875 
C 35.59375 14.140625 34.90625 7.5 25.796875 7.5 
C 22.59375 7.5 15.203125 8.203125 8.5 14.546875 
C 7.59375 15.46875 7.5 15.46875 7.09375 15.46875 
C 6.09375 15.46875 5.90625 14.5625 5.796875 14.359375 
C 5.796875 14.25 4.59375 7.9375 4.59375 7.4375 
C 4.59375 6.140625 13.203125 -2 26.296875 -2 
C 43.5 -2 50.296875 7.28125 50.296875 20.703125 
C 50.296875 29.796875 45.5 35.9375 36.5 38.265625 
C 44.59375 42.78125 47.296875 49.4375 47.296875 55.28125 
C 47.296875 71.671875 33 73 26.5 73 
C 12.796875 73 6.09375 62.984375 6.09375 62.171875 
C 6.09375 61.546875 6.703125 60.75 6.796875 60.640625 
z
" id="CMSSBX10-51"/>
       <path d="M 50.59375 34.734375 
C 50.59375 48.515625 50.59375 72.28125 27.5 72.28125 
C 4.296875 72.28125 4.296875 48.71875 4.296875 34.734375 
C 4.296875 20.9375 4.296875 -2 27.40625 -2 
C 50.59375 -2 50.59375 20.734375 50.59375 34.734375 
z
M 27.40625 5.265625 
C 20 5.265625 18.90625 14.515625 18.59375 17.234375 
C 17.90625 22.5625 17.90625 32.015625 17.90625 36.140625 
C 17.90625 42.0625 17.90625 48.5 18.5 53.4375 
C 18.796875 56.15625 19.796875 65 27.40625 65 
C 34.796875 65 36 56.5625 36.296875 54.53125 
C 37 49.421875 37 41.46875 37 36.140625 
C 37 30.40625 37 22.5625 36.296875 17.03125 
C 36 14.421875 34.90625 5.265625 27.40625 5.265625 
z
" id="CMSSBX10-48"/>
      </defs>
      <g transform="translate(187.40248 314.6533)scale(0.18 -0.18)">
       <use transform="scale(0.996264)" xlink:href="#CMSSBX10-51"/>
       <use transform="translate(54.794825 0)scale(0.996264)" xlink:href="#CMSSBX10-46"/>
       <use transform="translate(85.236394 0)scale(0.996264)" xlink:href="#CMSSBX10-48"/>
      </g>
     </g>
    </g>
    <g id="xtick_3">
     <g id="line2d_5">
      <path clip-path="url(#pa491ab0a2f)" d="M 335.674711 295.2 
L 335.674711 43.2 
" style="fill:none;stroke:#b0b0b0;stroke-linecap:square;stroke-width:0.8;"/>
     </g>
     <g id="line2d_6">
      <g>
       <use style="stroke:#000000;stroke-width:0.8;" x="335.674711" xlink:href="#m9a1e9d5fc2" y="295.2"/>
      </g>
     </g>
     <g id="text_3">
      <!-- $5.5$ -->
      <g transform="translate(323.071901 314.6533)scale(0.18 -0.18)">
       <use transform="scale(0.996264)" xlink:href="#CMSSBX10-53"/>
       <use transform="translate(54.794825 0)scale(0.996264)" xlink:href="#CMSSBX10-46"/>
       <use transform="translate(85.236394 0)scale(0.996264)" xlink:href="#CMSSBX10-53"/>
      </g>
     </g>
    </g>
    <g id="xtick_4">
     <g id="line2d_7">
      <path clip-path="url(#pa491ab0a2f)" d="M 417.076364 295.2 
L 417.076364 43.2 
" style="fill:none;stroke:#b0b0b0;stroke-linecap:square;stroke-width:0.8;"/>
     </g>
     <g id="line2d_8">
      <g>
       <use style="stroke:#000000;stroke-width:0.8;" x="417.076364" xlink:href="#m9a1e9d5fc2" y="295.2"/>
      </g>
     </g>
     <g id="text_4">
      <!-- $7.0$ -->
      <defs>
       <path d="M 36.703125 59.09375 
C 14.296875 34.109375 14.296875 8.609375 14.296875 3.4375 
C 14.296875 0.203125 15 -1.40625 19.09375 -1.40625 
L 23.703125 -1.40625 
C 25.296875 -1.40625 28.5 -1.40625 28.5 2.546875 
C 28.796875 27.703125 37.5 46.0625 49.5 61.375 
C 50.296875 62.390625 50.296875 63.203125 50.296875 65.03125 
C 50.296875 67.25 50.296875 70 46.09375 70 
C 42.703125 70 22.59375 70 17.703125 70 
L 11.40625 70 
C 6.59375 70 4.59375 70 4.59375 65.1875 
L 4.59375 63.890625 
C 4.59375 62.296875 4.59375 60.390625 6.703125 59.5 
C 7.40625 59.09375 10.703125 59.09375 12.796875 59.09375 
C 15.09375 59.09375 17.5 59.09375 19.796875 59.09375 
z
" id="CMSSBX10-55"/>
      </defs>
      <g transform="translate(404.473554 314.6533)scale(0.18 -0.18)">
       <use transform="scale(0.996264)" xlink:href="#CMSSBX10-55"/>
       <use transform="translate(54.794825 0)scale(0.996264)" xlink:href="#CMSSBX10-46"/>
       <use transform="translate(85.236394 0)scale(0.996264)" xlink:href="#CMSSBX10-48"/>
      </g>
     </g>
    </g>
    <g id="xtick_5">
     <g id="line2d_9">
      <path clip-path="url(#pa491ab0a2f)" d="M 159.304463 295.2 
L 159.304463 43.2 
" style="fill:none;stroke:#b0b0b0;stroke-dasharray:2.96,1.28;stroke-dashoffset:0;stroke-width:0.8;"/>
     </g>
     <g id="line2d_10">
      <defs>
       <path d="M 0 0 
L 0 2 
" id="mf7a8aecfa9" style="stroke:#000000;stroke-width:0.6;"/>
      </defs>
      <g>
       <use style="stroke:#000000;stroke-width:0.6;" x="159.304463" xlink:href="#mf7a8aecfa9" y="295.2"/>
      </g>
     </g>
    </g>
    <g id="xtick_6">
     <g id="line2d_11">
      <path clip-path="url(#pa491ab0a2f)" d="M 240.706116 295.2 
L 240.706116 43.2 
" style="fill:none;stroke:#b0b0b0;stroke-dasharray:2.96,1.28;stroke-dashoffset:0;stroke-width:0.8;"/>
     </g>
     <g id="line2d_12">
      <g>
       <use style="stroke:#000000;stroke-width:0.6;" x="240.706116" xlink:href="#mf7a8aecfa9" y="295.2"/>
      </g>
     </g>
    </g>
    <g id="xtick_7">
     <g id="line2d_13">
      <path clip-path="url(#pa491ab0a2f)" d="M 322.107769 295.2 
L 322.107769 43.2 
" style="fill:none;stroke:#b0b0b0;stroke-dasharray:2.96,1.28;stroke-dashoffset:0;stroke-width:0.8;"/>
     </g>
     <g id="line2d_14">
      <g>
       <use style="stroke:#000000;stroke-width:0.6;" x="322.107769" xlink:href="#mf7a8aecfa9" y="295.2"/>
      </g>
     </g>
    </g>
    <g id="xtick_8">
     <g id="line2d_15">
      <path clip-path="url(#pa491ab0a2f)" d="M 403.509421 295.2 
L 403.509421 43.2 
" style="fill:none;stroke:#b0b0b0;stroke-dasharray:2.96,1.28;stroke-dashoffset:0;stroke-width:0.8;"/>
     </g>
     <g id="line2d_16">
      <g>
       <use style="stroke:#000000;stroke-width:0.6;" x="403.509421" xlink:href="#mf7a8aecfa9" y="295.2"/>
      </g>
     </g>
    </g>
    <g id="text_5">
     <!-- \textbf{Coolant channel thickness [mm]} -->
     <defs>
      <path d="M 64 14.453125 
C 64 15.265625 63.296875 15.65625 62.90625 15.65625 
C 60.5 15.65625 57.59375 9.109375 43.5 9.109375 
C 25.90625 9.109375 20.90625 20 20.90625 35.109375 
C 20.90625 50.109375 26.296875 61 42.703125 61 
C 51.59375 61 56.296875 57.46875 59 55.25 
C 59.59375 54.75 59.90625 54.34375 60.59375 54.34375 
C 61 54.34375 61.5 54.84375 61.59375 55.25 
L 63.59375 66.453125 
C 63.703125 66.859375 63.59375 67.265625 62.796875 67.5625 
C 56.90625 69.78125 50.796875 71.203125 43 71.203125 
C 18.59375 71.203125 6.09375 59.203125 6.09375 35.203125 
C 6.09375 10.5 18.796875 -1 43.09375 -1 
C 51.59375 -1 56.90625 0.21875 64.203125 4.765625 
C 65 5.265625 64.796875 5.984375 64.796875 5.984375 
z
" id="CMSSBX10-67"/>
      <path d="M 51.796875 22.796875 
C 51.796875 39.328125 43.796875 48 27.5 48 
C 10.796875 48 3.09375 39.015625 3.09375 22.796875 
C 3.09375 6.359375 11.703125 -1 27.40625 -1 
C 43.09375 -1 51.796875 6.265625 51.796875 22.796875 
z
M 27.5 6.875 
C 16.703125 6.875 16.703125 15.9375 16.703125 24 
C 16.703125 31.765625 16.703125 40.71875 27.40625 40.71875 
C 38.203125 40.71875 38.203125 31.859375 38.203125 24 
C 38.203125 16.046875 38.203125 6.875 27.5 6.875 
z
" id="CMSSBX10-111"/>
      <path d="M 19.40625 65.15625 
C 19.40625 68.390625 18.703125 70 14.59375 70 
L 10.90625 70 
C 7.296875 70 6.09375 68.890625 6.09375 65.15625 
L 6.09375 4.71875 
C 6.09375 1.09375 7.203125 -0.125 10.90625 -0.125 
L 14.59375 -0.125 
C 18.40625 -0.125 19.40625 1.1875 19.40625 4.71875 
z
" id="CMSSBX10-108"/>
      <path d="M 46.40625 32.03125 
C 46.40625 48 31.203125 48 26.203125 48 
C 21.5 48 16.5 47.59375 9.796875 44.8125 
C 7.703125 43.921875 7.203125 43.625 7.203125 42.53125 
C 7.203125 41.828125 7.796875 35.9375 7.90625 35.125 
C 8 34.515625 8.5 34.015625 9.203125 34.015625 
C 9.703125 34.015625 10 34.3125 10.296875 34.625 
C 14.59375 39.1875 19.59375 41.421875 25.796875 41.421875 
C 31.203125 41.421875 32.796875 38.046875 32.796875 32.015625 
L 32.796875 28.4375 
C 29.296875 28.4375 3.09375 28.4375 3.09375 13.5625 
C 3.09375 6.484375 8.703125 -1 17.5 -1 
C 20.90625 -1 28.40625 0.015625 33.09375 6.984375 
L 33.09375 4.953125 
C 33.09375 1.71875 33.796875 0.109375 37.90625 0.109375 
L 41.59375 0.109375 
C 45.40625 0.109375 46.40625 1.421875 46.40625 4.953125 
z
M 32.796875 15.4375 
C 32.796875 6.28125 23.296875 6.28125 23 6.28125 
C 18.796875 6.28125 16.09375 9.984375 16.09375 13.890625 
C 16.09375 24 30 24 32.796875 24 
z
" id="CMSSBX10-97"/>
      <path d="M 50 32.75 
C 50 43.140625 45.59375 47.265625 35.40625 47.265625 
C 24.90625 47.265625 20.40625 39.609375 19.09375 36.875 
L 19 36.875 
L 19 41.984375 
C 19 45.25 18.296875 46.890625 14.203125 46.890625 
L 10.796875 46.890625 
C 7.203125 46.890625 6 45.78125 6 42.03125 
L 6 4.84375 
C 6 1.21875 7.09375 0 10.796875 0 
L 14.796875 0 
C 18.59375 0 19.59375 1.3125 19.59375 4.828125 
L 19.59375 27.109375 
C 19.59375 35.859375 25.40625 40 30.59375 40 
C 35.40625 40 36.40625 37.671875 36.40625 32.53125 
L 36.40625 4.828125 
C 36.40625 1.609375 37.09375 0 41.203125 0 
L 45.203125 0 
C 49 0 50 1.3125 50 4.828125 
z
" id="CMSSBX10-110"/>
      <path d="M 21.796875 39 
L 30.703125 39 
C 31.90625 39 35.5 39 35.5 42.640625 
C 35.5 46.28125 31.90625 46.28125 30.703125 46.28125 
L 21.796875 46.28125 
L 21.796875 54.65625 
C 21.796875 57.890625 21.09375 59.5 17 59.5 
L 13.90625 59.5 
C 10.296875 59.5 9.09375 58.390625 9.09375 54.65625 
L 9.09375 46.28125 
L 6.796875 46.28125 
C 5.703125 46.28125 2 46.28125 2 42.640625 
C 2 39 5.59375 39 6.796875 39 
L 8.796875 39 
L 8.796875 13.5 
C 8.796875 3.328125 12.40625 -1 19.296875 -1 
C 20.203125 -1 24.59375 -1 29.796875 0.609375 
C 31.5 1.125 37.296875 2.9375 37.296875 4.859375 
C 37.296875 5.15625 37.09375 5.875 36.5 7.96875 
C 36 9.984375 35.796875 10.59375 34.90625 10.59375 
C 34.40625 10.59375 34.296875 10.484375 33.703125 9.875 
C 32.59375 9.09375 29.90625 6.875 25.703125 6.875 
C 23.296875 6.875 21.796875 8.59375 21.796875 15.234375 
z
" id="CMSSBX10-116"/>
      <path d="M 45.703125 5.15625 
C 45.703125 6.28125 45.296875 10.90625 45.09375 12.21875 
C 45.09375 12.515625 44.90625 13.53125 43.90625 13.53125 
C 43.5 13.53125 43.296875 13.53125 42.296875 12.515625 
C 40.59375 11 35.90625 6.875 27.703125 6.875 
C 17.296875 6.875 17.296875 17.0625 17.296875 23.484375 
C 17.296875 31.65625 17.796875 40.125 28 40.125 
C 34.5 40.125 37.203125 38.5 40.796875 35.484375 
C 42 34.375 42.203125 34.375 42.59375 34.375 
C 43.59375 34.375 43.796875 35.28125 43.90625 35.6875 
C 44.09375 36.5 45.09375 42.140625 45.09375 42.640625 
C 45.09375 43.546875 44.40625 43.953125 42.703125 44.765625 
C 37.90625 46.984375 34.90625 48 27.90625 48 
C 13 48 3.703125 40.9375 3.703125 23.296875 
C 3.703125 6.5625 12.296875 -1 27.40625 -1 
C 30.09375 -1 36.09375 -1 42.796875 2.484375 
C 45.59375 4.03125 45.703125 4.140625 45.703125 5.15625 
z
" id="CMSSBX10-99"/>
      <path d="M 50 32.71875 
C 50 43.125 45.59375 47.265625 35.40625 47.265625 
C 25.40625 47.265625 20.796875 40.296875 19.40625 37.46875 
L 19.296875 37.46875 
L 19.296875 65.15625 
C 19.296875 68.390625 18.59375 70 14.5 70 
L 10.796875 70 
C 7.203125 70 6 68.890625 6 65.15625 
L 6 4.71875 
C 6 1.09375 7.09375 -0.125 10.796875 -0.125 
L 14.796875 -0.125 
C 18.59375 -0.125 19.59375 1.1875 19.59375 4.71875 
L 19.59375 27.0625 
C 19.59375 35.84375 25.40625 40 30.59375 40 
C 35.40625 40 36.40625 37.671875 36.40625 32.515625 
L 36.40625 4.71875 
C 36.40625 1.484375 37.09375 -0.125 41.203125 -0.125 
L 45.203125 -0.125 
C 49 -0.125 50 1.1875 50 4.71875 
z
" id="CMSSBX10-104"/>
      <path d="M 43.09375 21.640625 
C 45.40625 21.640625 47.90625 21.640625 47.90625 26.21875 
C 47.90625 39.28125 41.90625 48 27 48 
C 11 48 3.09375 38.921875 3.09375 23.59375 
C 3.09375 7.0625 12.59375 -1 28.296875 -1 
C 32.09375 -1 37.796875 -0.5 44.40625 2.84375 
C 46.59375 3.953125 47.296875 4.25 47.296875 5.46875 
C 47.296875 6.171875 47 9.09375 46.90625 9.890625 
C 46.5 13.015625 46.40625 13.109375 45.5 13.109375 
C 45.09375 13.109375 44.90625 13.109375 43.796875 12.109375 
C 37.90625 6.984375 31.90625 6.28125 28.703125 6.28125 
C 17.40625 6.28125 16.203125 15.21875 15.90625 21.640625 
z
M 16 27 
C 16.296875 33.15625 18.296875 40.71875 27 40.71875 
C 35 40.71875 36.5 34.859375 36.796875 27 
z
" id="CMSSBX10-101"/>
      <path d="M 10.203125 70 
C 7 70 5.40625 69.390625 5.40625 65.34375 
L 5.40625 60.703125 
C 5.40625 57.46875 6.40625 56.15625 10.09375 56.15625 
L 15.296875 56.15625 
C 20.09375 56.15625 20.09375 58.28125 20.09375 63.03125 
C 20.09375 67.875 20.09375 70 15.296875 70 
z
M 19.40625 41.15625 
C 19.40625 44.390625 18.703125 46 14.59375 46 
L 10.90625 46 
C 7.296875 46 6.09375 44.890625 6.09375 41.15625 
L 6.09375 4.5625 
C 6.09375 0.9375 7.203125 -0.28125 10.90625 -0.28125 
L 14.59375 -0.28125 
C 18.40625 -0.28125 19.40625 1.03125 19.40625 4.5625 
z
" id="CMSSBX10-105"/>
      <path d="M 31.296875 27.359375 
L 46.703125 41.8125 
C 47.90625 42.921875 48.203125 43.21875 48.203125 44.03125 
C 48.203125 46.15625 46.203125 46.15625 44.796875 46.15625 
L 39 46.15625 
C 37.203125 46.15625 35.296875 46.15625 33 44.03125 
L 18.59375 30.5 
L 18.59375 65.15625 
C 18.59375 68.390625 17.90625 70 13.796875 70 
L 11.703125 70 
C 8.09375 70 6.90625 68.890625 6.90625 65.15625 
L 6.90625 4.71875 
C 6.90625 1.09375 8 -0.125 11.703125 -0.125 
L 13.5 -0.125 
C 17.296875 -0.125 18.296875 1.1875 18.296875 4.71875 
L 18.296875 15.234375 
L 23 19.578125 
L 36 2.40625 
C 37.703125 0.171875 38.40625 -0.125 41.296875 -0.125 
L 46.09375 -0.125 
C 47.5 -0.125 49.703125 -0.125 49.703125 2.09375 
C 49.703125 2.296875 49.703125 3 48.703125 4.328125 
z
" id="CMSSBX10-107"/>
      <path d="M 39.59375 14.09375 
C 39.59375 19.796875 36.59375 23.375 34.796875 25 
C 30.796875 28.6875 27.296875 29.296875 23.09375 30.109375 
C 17.59375 31.125 13.59375 31.953125 13.59375 35.921875 
C 13.59375 40.09375 16.90625 40.921875 20.796875 40.921875 
C 27.5 40.921875 31.09375 38.375 33.703125 36.140625 
C 34.703125 35.125 34.90625 35.125 35.296875 35.125 
C 36.296875 35.125 36.5 36.03125 36.59375 36.4375 
C 36.796875 37.25 37.796875 42.921875 37.796875 43.421875 
C 37.796875 45.0625 32.5 46.484375 31.40625 46.875 
C 27.40625 48 24.203125 48 21.59375 48 
C 17.09375 48 3.703125 48 3.703125 33.515625 
C 3.703125 28.546875 5.90625 25.515625 8.59375 23.078125 
C 12.09375 19.84375 16 19.140625 21.703125 18.03125 
C 24.59375 17.515625 29.703125 16.59375 29.703125 12.15625 
C 29.703125 7.390625 25.796875 6.671875 21.90625 6.671875 
C 17.5 6.671875 11.90625 8 7.203125 13.703125 
C 6.703125 14.203125 6.40625 14.5 5.796875 14.5 
C 4.796875 14.5 4.59375 13.609375 4.5 13 
C 4.296875 11.609375 3.09375 5.90625 3.09375 4.890625 
C 3.09375 3.09375 10.5 0.796875 10.59375 0.703125 
C 16.09375 -1 20.203125 -1 21.90625 -1 
C 27 -1 39.59375 -1 39.59375 14.09375 
z
" id="CMSSBX10-115"/>
      <path d="M 21.703125 68.71875 
L 27 68.71875 
C 28.203125 68.71875 31.796875 68.71875 31.796875 72.359375 
C 31.796875 76 28.203125 76 27 76 
L 13.5 76 
C 9.703125 76 8.703125 74.671875 8.703125 71.140625 
L 8.703125 -20.140625 
C 8.703125 -23.375 9.40625 -25 13.5 -25 
L 27 -25 
C 28.203125 -25 31.796875 -25 31.796875 -21.359375 
C 31.796875 -17.71875 28.203125 -17.71875 27 -17.71875 
L 21.703125 -17.71875 
z
" id="CMSSBX10-91"/>
      <path d="M 80.59375 32.75 
C 80.59375 43.140625 76.203125 47.265625 66 47.265625 
C 58.90625 47.265625 53.40625 43.9375 49.796875 37.28125 
C 48.203125 47.0625 39.703125 47.0625 35.5 47.0625 
C 33.59375 47.0625 29.40625 47.0625 24.90625 43.796875 
C 21.796875 41.53125 19.796875 38.359375 19.09375 36.875 
L 19 36.875 
L 19 41.984375 
C 19 45.25 18.296875 46.890625 14.203125 46.890625 
L 10.796875 46.890625 
C 7.203125 46.890625 6 45.78125 6 42.03125 
L 6 4.84375 
C 6 1.21875 7.09375 0 10.796875 0 
L 14.796875 0 
C 18.59375 0 19.59375 1.3125 19.59375 4.828125 
L 19.59375 27.109375 
C 19.59375 36.171875 25.703125 40 30.59375 40 
C 35.40625 40 36.5 37.875 36.5 32.53125 
L 36.5 4.828125 
C 36.5 1.21875 37.59375 0 41.296875 0 
L 45.296875 0 
C 49.09375 0 50.09375 1.3125 50.09375 4.828125 
L 50.09375 27.109375 
C 50.09375 36.171875 56.203125 40 61.09375 40 
C 65.90625 40 67 37.875 67 32.53125 
L 67 4.828125 
C 67 1.21875 68.09375 0 71.796875 0 
L 75.796875 0 
C 79.59375 0 80.59375 1.3125 80.59375 4.828125 
z
" id="CMSSBX10-109"/>
      <path d="M 25.5 71.140625 
C 25.5 74.375 24.796875 76 20.703125 76 
L 7.203125 76 
C 6 76 2.40625 76 2.40625 72.359375 
C 2.40625 68.71875 6 68.71875 7.203125 68.71875 
L 12.5 68.71875 
L 12.5 -17.71875 
L 7.203125 -17.71875 
C 6 -17.71875 2.40625 -17.71875 2.40625 -21.359375 
C 2.40625 -25 6 -25 7.203125 -25 
L 20.703125 -25 
C 24.5 -25 25.5 -23.6875 25.5 -20.140625 
z
" id="CMSSBX10-93"/>
     </defs>
     <g transform="translate(121.205796 343.085324)scale(0.2 -0.2)">
      <use transform="scale(0.996264)" xlink:href="#CMSSBX10-67"/>
      <use transform="translate(70.015609 0)scale(0.996264)" xlink:href="#CMSSBX10-111"/>
      <use transform="translate(127.854591 0)scale(0.996264)" xlink:href="#CMSSBX10-111"/>
      <use transform="translate(182.649415 0)scale(0.996264)" xlink:href="#CMSSBX10-108"/>
      <use transform="translate(208.109634 0)scale(0.996264)" xlink:href="#CMSSBX10-97"/>
      <use transform="translate(260.413829 0)scale(0.996264)" xlink:href="#CMSSBX10-110"/>
      <use transform="translate(316.315617 0)scale(0.996264)" xlink:href="#CMSSBX10-116"/>
      <use transform="translate(393.111404 0)scale(0.996264)" xlink:href="#CMSSBX10-99"/>
      <use transform="translate(441.817914 0)scale(0.996264)" xlink:href="#CMSSBX10-104"/>
      <use transform="translate(497.719702 0)scale(0.996264)" xlink:href="#CMSSBX10-97"/>
      <use transform="translate(550.023897 0)scale(0.996264)" xlink:href="#CMSSBX10-110"/>
      <use transform="translate(605.925685 0)scale(0.996264)" xlink:href="#CMSSBX10-110"/>
      <use transform="translate(661.827473 0)scale(0.996264)" xlink:href="#CMSSBX10-101"/>
      <use transform="translate(712.747926 0)scale(0.996264)" xlink:href="#CMSSBX10-108"/>
      <use transform="translate(774.738028 0)scale(0.996264)" xlink:href="#CMSSBX10-116"/>
      <use transform="translate(815.003931 0)scale(0.996264)" xlink:href="#CMSSBX10-104"/>
      <use transform="translate(870.905719 0)scale(0.996264)" xlink:href="#CMSSBX10-105"/>
      <use transform="translate(896.365938 0)scale(0.996264)" xlink:href="#CMSSBX10-99"/>
      <use transform="translate(945.072449 0)scale(0.996264)" xlink:href="#CMSSBX10-107"/>
      <use transform="translate(997.93008 0)scale(0.996264)" xlink:href="#CMSSBX10-110"/>
      <use transform="translate(1053.831868 0)scale(0.996264)" xlink:href="#CMSSBX10-101"/>
      <use transform="translate(1104.75232 0)scale(0.996264)" xlink:href="#CMSSBX10-115"/>
      <use transform="translate(1146.761686 0)scale(0.996264)" xlink:href="#CMSSBX10-115"/>
      <use transform="translate(1225.300934 0)scale(0.996264)" xlink:href="#CMSSBX10-91"/>
      <use transform="translate(1259.478524 0)scale(0.996264)" xlink:href="#CMSSBX10-109"/>
      <use transform="translate(1345.821881 0)scale(0.996264)" xlink:href="#CMSSBX10-109"/>
      <use transform="translate(1432.165239 0)scale(0.996264)" xlink:href="#CMSSBX10-93"/>
     </g>
    </g>
   </g>
   <g id="matplotlib.axis_2">
    <g id="ytick_1">
     <g id="line2d_17">
      <path clip-path="url(#pa491ab0a2f)" d="M 103.68 295.2 
L 432 295.2 
" style="fill:none;stroke:#b0b0b0;stroke-linecap:square;stroke-width:0.8;"/>
     </g>
     <g id="line2d_18">
      <defs>
       <path d="M 0 0 
L -3.5 0 
" id="m3516a3948e" style="stroke:#000000;stroke-width:0.8;"/>
      </defs>
      <g>
       <use style="stroke:#000000;stroke-width:0.8;" x="103.68" xlink:href="#m3516a3948e" y="295.2"/>
      </g>
     </g>
     <g id="text_6">
      <!-- $100$ -->
      <g transform="translate(67.090795 301.42665)scale(0.18 -0.18)">
       <use transform="scale(0.996264)" xlink:href="#CMSSBX10-49"/>
       <use transform="translate(54.794825 0)scale(0.996264)" xlink:href="#CMSSBX10-48"/>
       <use transform="translate(109.589649 0)scale(0.996264)" xlink:href="#CMSSBX10-48"/>
      </g>
     </g>
    </g>
    <g id="ytick_2">
     <g id="line2d_19">
      <path clip-path="url(#pa491ab0a2f)" d="M 103.68 232.503957 
L 432 232.503957 
" style="fill:none;stroke:#b0b0b0;stroke-linecap:square;stroke-width:0.8;"/>
     </g>
     <g id="line2d_20">
      <g>
       <use style="stroke:#000000;stroke-width:0.8;" x="103.68" xlink:href="#m3516a3948e" y="232.503957"/>
      </g>
     </g>
     <g id="text_7">
      <!-- $140$ -->
      <defs>
       <path d="M 3.90625 26.484375 
C 3.09375 24.96875 3.09375 24.671875 3.09375 22.875 
L 3.09375 20.34375 
C 3.09375 17.125 3.796875 15.515625 7.90625 15.515625 
L 30.40625 15.515625 
L 30.40625 4.859375 
C 30.40625 1.609375 31.09375 0 35.203125 0 
L 38 0 
C 41.796875 0 42.796875 1.3125 42.796875 4.859375 
L 42.796875 15.515625 
L 47 15.515625 
C 50.09375 15.515625 51.796875 16.21875 51.796875 20.25 
C 51.796875 24 50.5 25 47 25 
L 42.796875 25 
L 42.796875 65.171875 
C 42.796875 68.796875 41.703125 70 38 70 
L 30.703125 70 
C 28.796875 70 27.296875 70 26.09375 67.6875 
z
M 13.5 25 
C 29.5 54.59375 30.40625 57.703125 30.90625 59.421875 
L 31 59.421875 
L 31 25 
z
" id="CMSSBX10-52"/>
      </defs>
      <g transform="translate(67.090795 238.730607)scale(0.18 -0.18)">
       <use transform="scale(0.996264)" xlink:href="#CMSSBX10-49"/>
       <use transform="translate(54.794825 0)scale(0.996264)" xlink:href="#CMSSBX10-52"/>
       <use transform="translate(109.589649 0)scale(0.996264)" xlink:href="#CMSSBX10-48"/>
      </g>
     </g>
    </g>
    <g id="ytick_3">
     <g id="line2d_21">
      <path clip-path="url(#pa491ab0a2f)" d="M 103.68 169.807914 
L 432 169.807914 
" style="fill:none;stroke:#b0b0b0;stroke-linecap:square;stroke-width:0.8;"/>
     </g>
     <g id="line2d_22">
      <g>
       <use style="stroke:#000000;stroke-width:0.8;" x="103.68" xlink:href="#m3516a3948e" y="169.807914"/>
      </g>
     </g>
     <g id="text_8">
      <!-- $180$ -->
      <defs>
       <path d="M 38 38.234375 
C 47.59375 41.5 48.796875 48.59375 48.796875 53.171875 
C 48.796875 68.109375 39.40625 73 27.5 73 
C 16.59375 73 6.09375 69.03125 6.09375 53.1875 
C 6.09375 47.8125 7.90625 41.3125 16.90625 38.265625 
C 6.59375 35.3125 4.59375 27.28125 4.59375 20.875 
C 4.59375 5.015625 13 -2 27.40625 -2 
C 42.5 -2 50.296875 5.625 50.296875 20.859375 
C 50.296875 30.109375 46 35.90625 38 38.234375 
z
M 27.5 42 
C 19.09375 42 18.90625 46.984375 18.90625 53.109375 
C 18.90625 60.125 19.5 64 27.40625 64 
C 35.296875 64 36 60.328125 36 53.109375 
C 36 47.203125 35.90625 42 27.5 42 
z
M 27.5 7.5 
C 18.703125 7.5 18.5 13.203125 18.5 21.0625 
C 18.5 27.6875 18.5 34.71875 27.40625 34.71875 
C 36.40625 34.71875 36.40625 27.796875 36.40625 21.0625 
C 36.40625 13.40625 36.203125 7.5 27.5 7.5 
z
" id="CMSSBX10-56"/>
      </defs>
      <g transform="translate(67.090795 176.034564)scale(0.18 -0.18)">
       <use transform="scale(0.996264)" xlink:href="#CMSSBX10-49"/>
       <use transform="translate(54.794825 0)scale(0.996264)" xlink:href="#CMSSBX10-56"/>
       <use transform="translate(109.589649 0)scale(0.996264)" xlink:href="#CMSSBX10-48"/>
      </g>
     </g>
    </g>
    <g id="ytick_4">
     <g id="line2d_23">
      <path clip-path="url(#pa491ab0a2f)" d="M 103.68 107.111871 
L 432 107.111871 
" style="fill:none;stroke:#b0b0b0;stroke-linecap:square;stroke-width:0.8;"/>
     </g>
     <g id="line2d_24">
      <g>
       <use style="stroke:#000000;stroke-width:0.8;" x="103.68" xlink:href="#m3516a3948e" y="107.111871"/>
      </g>
     </g>
     <g id="text_9">
      <!-- $220$ -->
      <defs>
       <path d="M 6.5 8.5625 
C 5.5 7.546875 5.5 7.34375 5.5 5.640625 
L 5.5 4.828125 
C 5.5 1.21875 6.59375 0 10.296875 0 
L 44.59375 0 
C 48.40625 0 49.40625 1.296875 49.40625 4.796875 
L 49.40625 6.015625 
C 49.40625 7.625 49.40625 9.515625 47.296875 10.421875 
C 46.59375 10.8125 43.40625 10.8125 41.40625 10.8125 
C 39.203125 10.8125 36.796875 10.8125 34.59375 10.8125 
L 18.40625 10.8125 
L 31.59375 23.390625 
C 33.09375 24.703125 36.90625 27.828125 38.40625 29.234375 
C 43.90625 34.671875 49.40625 40 49.40625 48.953125 
C 49.40625 61.234375 40.59375 72.109375 25.90625 72.109375 
C 22.40625 72.109375 16.703125 71.59375 11.90625 67.65625 
C 11 66.953125 6.40625 63.328125 4.59375 56.5625 
L 9.59375 50.140625 
C 10.203125 49.328125 10.5 48.921875 11.203125 48.921875 
C 12.09375 48.921875 12.296875 49.625 12.59375 50.828125 
C 14.59375 57.765625 18 62 24.40625 62 
C 32.203125 62 35.40625 54.859375 35.40625 48.703125 
C 35.40625 42.265625 31.59375 35.53125 25.59375 29.078125 
z
" id="CMSSBX10-50"/>
      </defs>
      <g transform="translate(67.090795 113.338521)scale(0.18 -0.18)">
       <use transform="scale(0.996264)" xlink:href="#CMSSBX10-50"/>
       <use transform="translate(54.794825 0)scale(0.996264)" xlink:href="#CMSSBX10-50"/>
       <use transform="translate(109.589649 0)scale(0.996264)" xlink:href="#CMSSBX10-48"/>
      </g>
     </g>
    </g>
    <g id="ytick_5">
     <g id="line2d_25">
      <path clip-path="url(#pa491ab0a2f)" d="M 103.68 44.415828 
L 432 44.415828 
" style="fill:none;stroke:#b0b0b0;stroke-linecap:square;stroke-width:0.8;"/>
     </g>
     <g id="line2d_26">
      <g>
       <use style="stroke:#000000;stroke-width:0.8;" x="103.68" xlink:href="#m3516a3948e" y="44.415828"/>
      </g>
     </g>
     <g id="text_10">
      <!-- $260$ -->
      <defs>
       <path d="M 43.203125 68.09375 
C 43.203125 70.53125 43.203125 70.640625 39.703125 71.96875 
C 37.09375 73 34.40625 73 33.40625 73 
C 4.59375 73 4.59375 43.71875 4.59375 34.78125 
C 4.59375 24.3125 4.59375 -2 27.90625 -2 
C 35.59375 -2 40.40625 -0.09375 44.5 4.515625 
C 49.703125 10.34375 50.296875 16.0625 50.296875 23.890625 
C 50.296875 29.609375 50.296875 48.28125 30.796875 48.28125 
C 25.296875 48.28125 21.296875 45.140625 18.59375 39.296875 
C 19.09375 48.671875 19.203125 50.984375 20.703125 55.140625 
C 23.59375 63.0625 30.203125 64 33.703125 64 
C 35.5 64 38.09375 63.6875 40.5 62.296875 
C 41.203125 61.765625 41.5 61.546875 42 61.546875 
C 43.203125 61.546875 43.203125 62.78125 43.203125 64.3125 
z
M 27.796875 7.5 
C 19.90625 7.5 18.796875 16.5 18.796875 25.09375 
C 18.796875 33.40625 21.203125 41 28.296875 41 
C 36.296875 41 36.296875 33.90625 36.296875 24 
C 36.296875 14.203125 36.296875 7.5 27.796875 7.5 
z
" id="CMSSBX10-54"/>
      </defs>
      <g transform="translate(67.090795 50.642478)scale(0.18 -0.18)">
       <use transform="scale(0.996264)" xlink:href="#CMSSBX10-50"/>
       <use transform="translate(54.794825 0)scale(0.996264)" xlink:href="#CMSSBX10-54"/>
       <use transform="translate(109.589649 0)scale(0.996264)" xlink:href="#CMSSBX10-48"/>
      </g>
     </g>
    </g>
    <g id="ytick_6">
     <g id="line2d_27">
      <path clip-path="url(#pa491ab0a2f)" d="M 103.68 263.851979 
L 432 263.851979 
" style="fill:none;stroke:#b0b0b0;stroke-dasharray:2.96,1.28;stroke-dashoffset:0;stroke-width:0.8;"/>
     </g>
     <g id="line2d_28">
      <defs>
       <path d="M 0 0 
L -2 0 
" id="m4aa97ab56e" style="stroke:#000000;stroke-width:0.6;"/>
      </defs>
      <g>
       <use style="stroke:#000000;stroke-width:0.6;" x="103.68" xlink:href="#m4aa97ab56e" y="263.851979"/>
      </g>
     </g>
    </g>
    <g id="ytick_7">
     <g id="line2d_29">
      <path clip-path="url(#pa491ab0a2f)" d="M 103.68 201.155936 
L 432 201.155936 
" style="fill:none;stroke:#b0b0b0;stroke-dasharray:2.96,1.28;stroke-dashoffset:0;stroke-width:0.8;"/>
     </g>
     <g id="line2d_30">
      <g>
       <use style="stroke:#000000;stroke-width:0.6;" x="103.68" xlink:href="#m4aa97ab56e" y="201.155936"/>
      </g>
     </g>
    </g>
    <g id="ytick_8">
     <g id="line2d_31">
      <path clip-path="url(#pa491ab0a2f)" d="M 103.68 138.459893 
L 432 138.459893 
" style="fill:none;stroke:#b0b0b0;stroke-dasharray:2.96,1.28;stroke-dashoffset:0;stroke-width:0.8;"/>
     </g>
     <g id="line2d_32">
      <g>
       <use style="stroke:#000000;stroke-width:0.6;" x="103.68" xlink:href="#m4aa97ab56e" y="138.459893"/>
      </g>
     </g>
    </g>
    <g id="ytick_9">
     <g id="line2d_33">
      <path clip-path="url(#pa491ab0a2f)" d="M 103.68 75.76385 
L 432 75.76385 
" style="fill:none;stroke:#b0b0b0;stroke-dasharray:2.96,1.28;stroke-dashoffset:0;stroke-width:0.8;"/>
     </g>
     <g id="line2d_34">
      <g>
       <use style="stroke:#000000;stroke-width:0.6;" x="103.68" xlink:href="#m4aa97ab56e" y="75.76385"/>
      </g>
     </g>
    </g>
    <g id="text_11">
     <!-- \textbf{Maximum target temperature [$^{\circ}$C]} -->
     <defs>
      <path d="M 55.5 32.90625 
C 53.40625 27.75 49.703125 18.453125 48.90625 14.921875 
L 48.796875 14.921875 
C 47.90625 18.546875 43.796875 28.5625 41.703125 33.921875 
L 28.90625 65.859375 
C 27.203125 70 24 70 22.203125 70 
L 13.90625 70 
C 10.296875 70 9.09375 68.890625 9.09375 65.15625 
L 9.09375 4.71875 
C 9.09375 1.09375 10.203125 -0.125 13.90625 -0.125 
L 16.59375 -0.125 
C 20.40625 -0.125 21.40625 1.1875 21.40625 4.71875 
L 21.40625 56.96875 
L 21.5 56.96875 
C 22.59375 52.421875 27.09375 41.203125 29.5 35.25 
L 41.09375 6.4375 
C 42.90625 2.09375 45.296875 2.09375 48.703125 2.09375 
C 52.09375 2.09375 54.5 2.09375 56.296875 6.4375 
L 69.09375 38.171875 
C 70.09375 40.59375 75.5 54.34375 76.203125 56.96875 
L 76.296875 56.96875 
L 76.296875 4.71875 
C 76.296875 1.484375 77 -0.125 81.09375 -0.125 
L 83.796875 -0.125 
C 87.59375 -0.125 88.59375 1.1875 88.59375 4.71875 
L 88.59375 65.15625 
C 88.59375 68.390625 87.90625 70 83.796875 70 
L 75.40625 70 
C 72.90625 70 70.40625 69.796875 68.703125 65.65625 
z
" id="CMSSBX10-77"/>
      <path d="M 30.09375 23.953125 
L 44.59375 41.9375 
C 45.59375 43.15625 45.59375 43.546875 45.59375 44.0625 
C 45.59375 46.28125 43.59375 46.28125 42.09375 46.28125 
L 37.796875 46.28125 
C 36 46.28125 34.796875 46.28125 33.40625 44.765625 
C 32.90625 44.265625 26.40625 35.46875 24.703125 33.140625 
L 16.09375 44.0625 
C 14.40625 46.1875 13.296875 46.28125 11 46.28125 
L 6.59375 46.28125 
C 5.296875 46.28125 3.09375 46.28125 3.09375 44.0625 
C 3.09375 43.34375 3.40625 42.953125 4.09375 42.140625 
L 19.203125 23.953125 
L 3.40625 4.25 
C 2.796875 3.53125 2.40625 3.03125 2.40625 2.21875 
C 2.40625 0 4.59375 0 6 0 
L 10.296875 0 
C 13.59375 0 13.796875 0.296875 16 3.640625 
L 24.59375 16.578125 
L 34.796875 2.015625 
C 36.203125 0 37.40625 0 39.5 0 
L 43.90625 0 
C 45.296875 0 47.40625 0 47.40625 2.21875 
C 47.40625 3.03125 47 3.4375 46.296875 4.34375 
z
" id="CMSSBX10-120"/>
      <path d="M 50 41.4375 
C 50 44.671875 49.296875 46.28125 45.203125 46.28125 
L 41.203125 46.28125 
C 37.40625 46.28125 36.40625 44.96875 36.40625 41.453125 
L 36.40625 17.5625 
C 36.40625 10.90625 32.90625 5.15625 25.796875 5.15625 
C 20.203125 5.15625 19.59375 6.578125 19.59375 11.921875 
L 19.59375 41.453125 
C 19.59375 44.671875 18.90625 46.28125 14.796875 46.28125 
L 10.796875 46.28125 
C 7.203125 46.28125 6 45.171875 6 41.453125 
L 6 12.8125 
C 6 2.03125 11.796875 -1 22.203125 -1 
C 24.90625 -1 32 -1 36.703125 7.578125 
L 36.703125 4.90625 
C 36.703125 1.625 37.40625 0 41.5 0 
L 45.203125 0 
C 49 0 50 1.3125 50 4.84375 
z
" id="CMSSBX10-117"/>
      <path d="M 19.40625 23.375 
C 19.40625 33.046875 27.296875 37 33.59375 37 
C 35.40625 37 35.59375 37 35.59375 39.921875 
L 35.59375 44.6875 
C 35.59375 46.703125 35.59375 47.40625 33.796875 47.40625 
C 31 47.40625 23.703125 46.40625 19 35.484375 
L 18.90625 35.484375 
L 18.90625 42.03125 
C 18.90625 45.265625 18.203125 46.890625 14.09375 46.890625 
L 10.90625 46.890625 
C 7.296875 46.890625 6.09375 45.78125 6.09375 42.03125 
L 6.09375 4.84375 
C 6.09375 1.21875 7.203125 0 10.90625 0 
L 14.59375 0 
C 18.40625 0 19.40625 1.3125 19.40625 4.875 
z
" id="CMSSBX10-114"/>
      <path d="M 20 9.015625 
C 16.40625 9.015625 15 9.015625 13.59375 10.25 
C 13.203125 10.640625 11.5 12.171875 11.5 14.828125 
C 11.5 15.53125 11.59375 15.734375 11.703125 16.34375 
C 16.40625 13.71875 22.296875 13.71875 24.40625 13.71875 
C 28.59375 13.71875 44.5 13.71875 44.5 30.46875 
C 44.5 36.34375 42.296875 39.890625 41.40625 41 
C 43.09375 41 46.59375 41 50.703125 39.890625 
C 51.09375 39.6875 51.796875 39.484375 52.09375 39.484375 
C 52.90625 39.484375 53.40625 40.09375 53.40625 40.796875 
C 53.40625 41.203125 52.90625 43.625 52.703125 44.640625 
C 52.296875 47.0625 52.296875 47.265625 50.5 47.265625 
C 47.40625 47.265625 42.40625 46.0625 38.59375 43.734375 
C 33.90625 46.859375 28.703125 47.265625 24.40625 47.265625 
C 20.203125 47.265625 4.296875 47.265625 4.296875 30.53125 
C 4.296875 26.46875 5.40625 21.40625 9.203125 18.0625 
C 6.5 14.296875 6.5 10.359375 6.5 9.84375 
C 6.5 7.921875 7.09375 4.578125 9.203125 1.84375 
C 7.703125 1.234375 2.5 -0.578125 2.5 -7.046875 
C 2.5 -10.1875 4 -15.4375 10.296875 -18.375 
C 16 -21 22.703125 -21 27.40625 -21 
C 33.296875 -21 52.40625 -21 52.40625 -6.703125 
C 52.40625 9.015625 38.296875 9.015625 24.796875 9.015625 
z
M 24.40625 21 
C 17.40625 21 17.09375 24.859375 17.09375 30.453125 
C 17.09375 36.03125 17.40625 40 24.40625 40 
C 31.40625 40 31.703125 36.140625 31.703125 30.546875 
C 31.703125 24.953125 31.40625 21 24.40625 21 
z
M 29.796875 -2 
C 37.90625 -2 42.09375 -3.390625 42.09375 -7 
C 42.09375 -13.734375 30.703125 -13.734375 27.5 -13.734375 
C 23.5 -13.734375 12.796875 -13.734375 12.796875 -6.71875 
C 12.796875 -2 15.90625 -2 18.203125 -2 
z
" id="CMSSBX10-103"/>
      <path d="M 19.703125 3.78125 
C 24.203125 -1.28125 29.703125 -1.28125 31.09375 -1.28125 
C 52.296875 -1.28125 52.296875 18.03125 52.296875 23.0625 
C 52.296875 27.984375 52.296875 47 34.203125 47 
C 28.296875 47 23 44.578125 19.40625 41.140625 
C 19.40625 44.875 18 45.890625 14.59375 45.890625 
L 10.90625 45.890625 
C 7.296875 45.890625 6.09375 44.78125 6.09375 41.046875 
L 6.09375 -15.140625 
C 6.09375 -18.78125 7.203125 -20 10.90625 -20 
L 14.90625 -20 
C 18.703125 -20 19.703125 -18.671875 19.703125 -15.09375 
z
M 19.703125 35.8125 
C 20.796875 36.8125 24.09375 39.125 28.40625 39.125 
C 38.59375 39.125 38.703125 27.28125 38.703125 22.859375 
C 38.703125 18.84375 38.703125 6 27.40625 6 
C 25.09375 6 23.296875 6.796875 22.09375 7.6875 
C 19.703125 9.40625 19.703125 9.90625 19.703125 11.71875 
z
" id="CMSSBX10-112"/>
      <path d="M 51 24.953125 
C 51 38.390625 41.796875 47.25 28.703125 47.25 
C 15.203125 47.25 6.40625 37.984375 6.40625 25.046875 
C 6.40625 11.609375 15.59375 2.765625 28.703125 2.765625 
C 42.203125 2.765625 51 12.015625 51 24.953125 
z
M 28.703125 8.859375 
C 18.296875 8.859375 12.5 15.609375 12.5 24.953125 
C 12.5 34.984375 18.90625 41.140625 28.703125 41.140625 
C 38.59375 41.140625 44.90625 34.890625 44.90625 24.953125 
C 44.90625 15.421875 39 8.859375 28.703125 8.859375 
z
" id="CMBSY10-14"/>
     </defs>
     <g transform="translate(42.109475 326.967465)rotate(-90)scale(0.2 -0.2)">
      <use transform="scale(0.996264)" xlink:href="#CMSSBX10-77"/>
      <use transform="translate(97.413021 0)scale(0.996264)" xlink:href="#CMSSBX10-97"/>
      <use transform="translate(149.717216 0)scale(0.996264)" xlink:href="#CMSSBX10-120"/>
      <use transform="translate(199.530691 0)scale(0.996264)" xlink:href="#CMSSBX10-105"/>
      <use transform="translate(224.990909 0)scale(0.996264)" xlink:href="#CMSSBX10-109"/>
      <use transform="translate(311.334267 0)scale(0.996264)" xlink:href="#CMSSBX10-117"/>
      <use transform="translate(367.236054 0)scale(0.996264)" xlink:href="#CMSSBX10-109"/>
      <use transform="translate(490.109295 0)scale(0.996264)" xlink:href="#CMSSBX10-116"/>
      <use transform="translate(530.375198 0)scale(0.996264)" xlink:href="#CMSSBX10-97"/>
      <use transform="translate(579.635236 0)scale(0.996264)" xlink:href="#CMSSBX10-114"/>
      <use transform="translate(616.718647 0)scale(0.996264)" xlink:href="#CMSSBX10-103"/>
      <use transform="translate(671.513471 0)scale(0.996264)" xlink:href="#CMSSBX10-101"/>
      <use transform="translate(722.433924 0)scale(0.996264)" xlink:href="#CMSSBX10-116"/>
      <use transform="translate(799.22971 0)scale(0.996264)" xlink:href="#CMSSBX10-116"/>
      <use transform="translate(839.495614 0)scale(0.996264)" xlink:href="#CMSSBX10-101"/>
      <use transform="translate(890.416067 0)scale(0.996264)" xlink:href="#CMSSBX10-109"/>
      <use transform="translate(976.759424 0)scale(0.996264)" xlink:href="#CMSSBX10-112"/>
      <use transform="translate(1035.705369 0)scale(0.996264)" xlink:href="#CMSSBX10-101"/>
      <use transform="translate(1086.625822 0)scale(0.996264)" xlink:href="#CMSSBX10-114"/>
      <use transform="translate(1123.709232 0)scale(0.996264)" xlink:href="#CMSSBX10-97"/>
      <use transform="translate(1176.013427 0)scale(0.996264)" xlink:href="#CMSSBX10-116"/>
      <use transform="translate(1216.27933 0)scale(0.996264)" xlink:href="#CMSSBX10-117"/>
      <use transform="translate(1272.181118 0)scale(0.996264)" xlink:href="#CMSSBX10-114"/>
      <use transform="translate(1309.264529 0)scale(0.996264)" xlink:href="#CMSSBX10-101"/>
      <use transform="translate(1396.714864 0)scale(0.996264)" xlink:href="#CMSSBX10-91"/>
      <use transform="translate(1430.892454 36.153639)scale(0.697382)" xlink:href="#CMBSY10-14"/>
      <use transform="translate(1471.489817 0)scale(0.996264)" xlink:href="#CMSSBX10-67"/>
      <use transform="translate(1541.505426 0)scale(0.996264)" xlink:href="#CMSSBX10-93"/>
     </g>
    </g>
   </g>
   <g id="line2d_35">
    <path clip-path="url(#pa491ab0a2f)" d="M 118.603636 129.306501 
L 200.005289 118.316907 
L 335.674711 107.035263 
L 417.076364 102.046828 
" style="fill:none;stroke:#ff00ff;stroke-linecap:square;stroke-width:2;"/>
    <defs>
     <path d="M -5 5 
L 5 5 
L 5 -5 
L -5 -5 
z
" id="m48e687b452" style="stroke:#ff00ff;stroke-linejoin:miter;"/>
    </defs>
    <g clip-path="url(#pa491ab0a2f)">
     <use style="fill:#ff00ff;stroke:#ff00ff;stroke-linejoin:miter;" x="118.603636" xlink:href="#m48e687b452" y="129.306501"/>
     <use style="fill:#ff00ff;stroke:#ff00ff;stroke-linejoin:miter;" x="200.005289" xlink:href="#m48e687b452" y="118.316907"/>
     <use style="fill:#ff00ff;stroke:#ff00ff;stroke-linejoin:miter;" x="335.674711" xlink:href="#m48e687b452" y="107.035263"/>
     <use style="fill:#ff00ff;stroke:#ff00ff;stroke-linejoin:miter;" x="417.076364" xlink:href="#m48e687b452" y="102.046828"/>
    </g>
   </g>
   <g id="line2d_36">
    <path clip-path="url(#pa491ab0a2f)" d="M 118.603636 83.914644 
L 200.005289 71.668363 
L 335.674711 59.195233 
L 417.076364 53.670407 
" style="fill:none;stroke:#ff00ff;stroke-dasharray:7.4,3.2;stroke-dashoffset:0;stroke-width:2;"/>
    <defs>
     <path d="M 0 5 
C 1.326016 5 2.597899 4.473168 3.535534 3.535534 
C 4.473168 2.597899 5 1.326016 5 0 
C 5 -1.326016 4.473168 -2.597899 3.535534 -3.535534 
C 2.597899 -4.473168 1.326016 -5 0 -5 
C -1.326016 -5 -2.597899 -4.473168 -3.535534 -3.535534 
C -4.473168 -2.597899 -5 -1.326016 -5 0 
C -5 1.326016 -4.473168 2.597899 -3.535534 3.535534 
C -2.597899 4.473168 -1.326016 5 0 5 
z
" id="m4c720e5c58" style="stroke:#ff00ff;"/>
    </defs>
    <g clip-path="url(#pa491ab0a2f)">
     <use style="fill:#ff00ff;stroke:#ff00ff;" x="118.603636" xlink:href="#m4c720e5c58" y="83.914644"/>
     <use style="fill:#ff00ff;stroke:#ff00ff;" x="200.005289" xlink:href="#m4c720e5c58" y="71.668363"/>
     <use style="fill:#ff00ff;stroke:#ff00ff;" x="335.674711" xlink:href="#m4c720e5c58" y="59.195233"/>
     <use style="fill:#ff00ff;stroke:#ff00ff;" x="417.076364" xlink:href="#m4c720e5c58" y="53.670407"/>
    </g>
   </g>
   <g id="line2d_37">
    <path clip-path="url(#pa491ab0a2f)" d="M 118.603636 217.257059 
L 200.005289 210.307426 
L 335.674711 203.158958 
L 417.076364 200.111853 
" style="fill:none;stroke:#00008b;stroke-linecap:square;stroke-width:2;"/>
    <defs>
     <path d="M -5 5 
L 5 5 
L 5 -5 
L -5 -5 
z
" id="m1062eba604" style="stroke:#00008b;stroke-linejoin:miter;"/>
    </defs>
    <g clip-path="url(#pa491ab0a2f)">
     <use style="fill:#00008b;stroke:#00008b;stroke-linejoin:miter;" x="118.603636" xlink:href="#m1062eba604" y="217.257059"/>
     <use style="fill:#00008b;stroke:#00008b;stroke-linejoin:miter;" x="200.005289" xlink:href="#m1062eba604" y="210.307426"/>
     <use style="fill:#00008b;stroke:#00008b;stroke-linejoin:miter;" x="335.674711" xlink:href="#m1062eba604" y="203.158958"/>
     <use style="fill:#00008b;stroke:#00008b;stroke-linejoin:miter;" x="417.076364" xlink:href="#m1062eba604" y="200.111853"/>
    </g>
   </g>
   <g id="line2d_38">
    <path clip-path="url(#pa491ab0a2f)" d="M 118.603636 177.76777 
L 200.005289 170.108277 
L 335.674711 162.017198 
L 417.076364 158.49587 
" style="fill:none;stroke:#00008b;stroke-dasharray:7.4,3.2;stroke-dashoffset:0;stroke-width:2;"/>
    <defs>
     <path d="M 0 5 
C 1.326016 5 2.597899 4.473168 3.535534 3.535534 
C 4.473168 2.597899 5 1.326016 5 0 
C 5 -1.326016 4.473168 -2.597899 3.535534 -3.535534 
C 2.597899 -4.473168 1.326016 -5 0 -5 
C -1.326016 -5 -2.597899 -4.473168 -3.535534 -3.535534 
C -4.473168 -2.597899 -5 -1.326016 -5 0 
C -5 1.326016 -4.473168 2.597899 -3.535534 3.535534 
C -2.597899 4.473168 -1.326016 5 0 5 
z
" id="m1ee7e28361" style="stroke:#00008b;"/>
    </defs>
    <g clip-path="url(#pa491ab0a2f)">
     <use style="fill:#00008b;stroke:#00008b;" x="118.603636" xlink:href="#m1ee7e28361" y="177.76777"/>
     <use style="fill:#00008b;stroke:#00008b;" x="200.005289" xlink:href="#m1ee7e28361" y="170.108277"/>
     <use style="fill:#00008b;stroke:#00008b;" x="335.674711" xlink:href="#m1ee7e28361" y="162.017198"/>
     <use style="fill:#00008b;stroke:#00008b;" x="417.076364" xlink:href="#m1ee7e28361" y="158.49587"/>
    </g>
   </g>
   <g id="line2d_39">
    <path clip-path="url(#pa491ab0a2f)" d="M 118.603636 235.462324 
L 200.005289 229.785836 
L 335.674711 224.337339 
L 417.076364 222.131596 
" style="fill:none;stroke:#008000;stroke-linecap:square;stroke-width:2;"/>
    <defs>
     <path d="M -5 5 
L 5 5 
L 5 -5 
L -5 -5 
z
" id="m59a148e5b6" style="stroke:#008000;stroke-linejoin:miter;"/>
    </defs>
    <g clip-path="url(#pa491ab0a2f)">
     <use style="fill:#008000;stroke:#008000;stroke-linejoin:miter;" x="118.603636" xlink:href="#m59a148e5b6" y="235.462324"/>
     <use style="fill:#008000;stroke:#008000;stroke-linejoin:miter;" x="200.005289" xlink:href="#m59a148e5b6" y="229.785836"/>
     <use style="fill:#008000;stroke:#008000;stroke-linejoin:miter;" x="335.674711" xlink:href="#m59a148e5b6" y="224.337339"/>
     <use style="fill:#008000;stroke:#008000;stroke-linejoin:miter;" x="417.076364" xlink:href="#m59a148e5b6" y="222.131596"/>
    </g>
   </g>
   <g id="line2d_40">
    <path clip-path="url(#pa491ab0a2f)" d="M 118.603636 198.056075 
L 200.005289 191.547517 
L 335.674711 185.062716 
L 417.076364 182.36257 
" style="fill:none;stroke:#008000;stroke-dasharray:7.4,3.2;stroke-dashoffset:0;stroke-width:2;"/>
    <defs>
     <path d="M 0 5 
C 1.326016 5 2.597899 4.473168 3.535534 3.535534 
C 4.473168 2.597899 5 1.326016 5 0 
C 5 -1.326016 4.473168 -2.597899 3.535534 -3.535534 
C 2.597899 -4.473168 1.326016 -5 0 -5 
C -1.326016 -5 -2.597899 -4.473168 -3.535534 -3.535534 
C -4.473168 -2.597899 -5 -1.326016 -5 0 
C -5 1.326016 -4.473168 2.597899 -3.535534 3.535534 
C -2.597899 4.473168 -1.326016 5 0 5 
z
" id="m4504e5dec5" style="stroke:#008000;"/>
    </defs>
    <g clip-path="url(#pa491ab0a2f)">
     <use style="fill:#008000;stroke:#008000;" x="118.603636" xlink:href="#m4504e5dec5" y="198.056075"/>
     <use style="fill:#008000;stroke:#008000;" x="200.005289" xlink:href="#m4504e5dec5" y="191.547517"/>
     <use style="fill:#008000;stroke:#008000;" x="335.674711" xlink:href="#m4504e5dec5" y="185.062716"/>
     <use style="fill:#008000;stroke:#008000;" x="417.076364" xlink:href="#m4504e5dec5" y="182.36257"/>
    </g>
   </g>
   <g id="line2d_41">
    <path clip-path="url(#pa491ab0a2f)" d="M 118.603636 247.981578 
L 200.005289 243.163528 
L 335.674711 238.814317 
L 417.076364 237.126339 
" style="fill:none;stroke:#ffa500;stroke-linecap:square;stroke-width:2;"/>
    <defs>
     <path d="M -5 5 
L 5 5 
L 5 -5 
L -5 -5 
z
" id="m11fd9749c4" style="stroke:#ffa500;stroke-linejoin:miter;"/>
    </defs>
    <g clip-path="url(#pa491ab0a2f)">
     <use style="fill:#ffa500;stroke:#ffa500;stroke-linejoin:miter;" x="118.603636" xlink:href="#m11fd9749c4" y="247.981578"/>
     <use style="fill:#ffa500;stroke:#ffa500;stroke-linejoin:miter;" x="200.005289" xlink:href="#m11fd9749c4" y="243.163528"/>
     <use style="fill:#ffa500;stroke:#ffa500;stroke-linejoin:miter;" x="335.674711" xlink:href="#m11fd9749c4" y="238.814317"/>
     <use style="fill:#ffa500;stroke:#ffa500;stroke-linejoin:miter;" x="417.076364" xlink:href="#m11fd9749c4" y="237.126339"/>
    </g>
   </g>
   <g id="line2d_42">
    <path clip-path="url(#pa491ab0a2f)" d="M 118.603636 213.327508 
L 200.005289 207.600651 
L 335.674711 202.195672 
L 417.076364 200.031927 
" style="fill:none;stroke:#ffa500;stroke-dasharray:7.4,3.2;stroke-dashoffset:0;stroke-width:2;"/>
    <defs>
     <path d="M 0 5 
C 1.326016 5 2.597899 4.473168 3.535534 3.535534 
C 4.473168 2.597899 5 1.326016 5 0 
C 5 -1.326016 4.473168 -2.597899 3.535534 -3.535534 
C 2.597899 -4.473168 1.326016 -5 0 -5 
C -1.326016 -5 -2.597899 -4.473168 -3.535534 -3.535534 
C -4.473168 -2.597899 -5 -1.326016 -5 0 
C -5 1.326016 -4.473168 2.597899 -3.535534 3.535534 
C -2.597899 4.473168 -1.326016 5 0 5 
z
" id="mdb51bf4bef" style="stroke:#ffa500;"/>
    </defs>
    <g clip-path="url(#pa491ab0a2f)">
     <use style="fill:#ffa500;stroke:#ffa500;" x="118.603636" xlink:href="#mdb51bf4bef" y="213.327508"/>
     <use style="fill:#ffa500;stroke:#ffa500;" x="200.005289" xlink:href="#mdb51bf4bef" y="207.600651"/>
     <use style="fill:#ffa500;stroke:#ffa500;" x="335.674711" xlink:href="#mdb51bf4bef" y="202.195672"/>
     <use style="fill:#ffa500;stroke:#ffa500;" x="417.076364" xlink:href="#mdb51bf4bef" y="200.031927"/>
    </g>
   </g>
   <g id="line2d_43">
    <path clip-path="url(#pa491ab0a2f)" d="M 118.603636 263.078539 
L 200.005289 259.181236 
L 335.674711 255.929726 
L 417.076364 254.739757 
" style="fill:none;stroke:#ff0000;stroke-linecap:square;stroke-width:2;"/>
    <defs>
     <path d="M -5 5 
L 5 5 
L 5 -5 
L -5 -5 
z
" id="m98098c9b0e" style="stroke:#ff0000;stroke-linejoin:miter;"/>
    </defs>
    <g clip-path="url(#pa491ab0a2f)">
     <use style="fill:#ff0000;stroke:#ff0000;stroke-linejoin:miter;" x="118.603636" xlink:href="#m98098c9b0e" y="263.078539"/>
     <use style="fill:#ff0000;stroke:#ff0000;stroke-linejoin:miter;" x="200.005289" xlink:href="#m98098c9b0e" y="259.181236"/>
     <use style="fill:#ff0000;stroke:#ff0000;stroke-linejoin:miter;" x="335.674711" xlink:href="#m98098c9b0e" y="255.929726"/>
     <use style="fill:#ff0000;stroke:#ff0000;stroke-linejoin:miter;" x="417.076364" xlink:href="#m98098c9b0e" y="254.739757"/>
    </g>
   </g>
   <g id="line2d_44">
    <path clip-path="url(#pa491ab0a2f)" d="M 118.603636 232.425328 
L 200.005289 227.563079 
L 335.674711 223.301965 
L 417.076364 221.689933 
" style="fill:none;stroke:#ff0000;stroke-dasharray:7.4,3.2;stroke-dashoffset:0;stroke-width:2;"/>
    <defs>
     <path d="M 0 5 
C 1.326016 5 2.597899 4.473168 3.535534 3.535534 
C 4.473168 2.597899 5 1.326016 5 0 
C 5 -1.326016 4.473168 -2.597899 3.535534 -3.535534 
C 2.597899 -4.473168 1.326016 -5 0 -5 
C -1.326016 -5 -2.597899 -4.473168 -3.535534 -3.535534 
C -4.473168 -2.597899 -5 -1.326016 -5 0 
C -5 1.326016 -4.473168 2.597899 -3.535534 3.535534 
C -2.597899 4.473168 -1.326016 5 0 5 
z
" id="m94e56314c3" style="stroke:#ff0000;"/>
    </defs>
    <g clip-path="url(#pa491ab0a2f)">
     <use style="fill:#ff0000;stroke:#ff0000;" x="118.603636" xlink:href="#m94e56314c3" y="232.425328"/>
     <use style="fill:#ff0000;stroke:#ff0000;" x="200.005289" xlink:href="#m94e56314c3" y="227.563079"/>
     <use style="fill:#ff0000;stroke:#ff0000;" x="335.674711" xlink:href="#m94e56314c3" y="223.301965"/>
     <use style="fill:#ff0000;stroke:#ff0000;" x="417.076364" xlink:href="#m94e56314c3" y="221.689933"/>
    </g>
   </g>
   <g id="patch_3">
    <path d="M 103.68 295.2 
L 103.68 43.2 
" style="fill:none;stroke:#000000;stroke-linecap:square;stroke-linejoin:miter;stroke-width:0.8;"/>
   </g>
   <g id="patch_4">
    <path d="M 432 295.2 
L 432 43.2 
" style="fill:none;stroke:#000000;stroke-linecap:square;stroke-linejoin:miter;stroke-width:0.8;"/>
   </g>
   <g id="patch_5">
    <path d="M 103.68 295.2 
L 432 295.2 
" style="fill:none;stroke:#000000;stroke-linecap:square;stroke-linejoin:miter;stroke-width:0.8;"/>
   </g>
   <g id="patch_6">
    <path d="M 103.68 43.2 
L 432 43.2 
" style="fill:none;stroke:#000000;stroke-linecap:square;stroke-linejoin:miter;stroke-width:0.8;"/>
   </g>
   <g id="legend_1">
    <g id="patch_7">
     <path d="M 444.6496 162.9 
L 552.691964 162.9 
Q 555.491964 162.9 555.491964 160.1 
L 555.491964 46.313083 
Q 555.491964 43.513083 552.691964 43.513083 
L 444.6496 43.513083 
Q 441.8496 43.513083 441.8496 46.313083 
L 441.8496 160.1 
Q 441.8496 162.9 444.6496 162.9 
z
" style="fill:#ffffff;opacity:0.8;stroke:#cccccc;stroke-linejoin:miter;"/>
    </g>
    <g id="text_12">
     <!-- Cu backing thickness -->
     <defs>
      <path d="M 54.703125 11.15625 
C 48 6.671875 44.90625 5.375 36.796875 5.375 
C 22.796875 5.375 14.59375 20.359375 14.59375 34.046875 
C 14.59375 48.625 23 63 37.203125 63 
C 43.59375 63 47.796875 61.21875 52.90625 58.046875 
L 54.296875 65.890625 
C 49.5 68.28125 43.40625 69.375 37.296875 69.375 
C 18.09375 69.375 6.203125 51.8125 6.203125 34.046875 
C 6.203125 14.484375 20.296875 -1 36.296875 -1 
C 44.90625 -1 47.90625 -0.296875 55.296875 4.375 
z
" id="CMSS17-67"/>
      <path d="M 40.90625 42.796875 
L 33.296875 42.796875 
L 33.296875 15.1875 
C 33.296875 7.78125 27.90625 4.78125 22.203125 4.78125 
C 15.59375 4.78125 15 6.984375 15 11.078125 
L 15 42.796875 
L 7.40625 42.796875 
L 7.40625 10.59375 
C 7.40625 2.796875 10.09375 -1 17 -1 
C 20.40625 -1 28.09375 -0.203125 33.5 4.78125 
L 33.5 0 
L 40.90625 0 
z
" id="CMSS17-117"/>
      <path d="M 14.90625 69 
L 7.5 69 
L 7.5 -0.203125 
L 15.09375 -0.203125 
L 15.09375 4.28125 
C 18.90625 0.59375 23.5 -1 27.59375 -1 
C 37.203125 -1 45 8.578125 45 21.125 
C 45 32.59375 39 43.0625 30.09375 43.0625 
C 23.796875 43.0625 18.203125 40.484375 14.90625 37.796875 
z
M 15.09375 31.96875 
C 17.296875 34.71875 20.40625 37 24.796875 37 
C 30.703125 37 37.40625 32.765625 37.40625 21.125 
C 37.40625 8.71875 29.40625 5.078125 23.90625 5.078125 
C 21.90625 5.078125 19.796875 5.5625 17.796875 7.25 
C 15.09375 9.609375 15.09375 11.078125 15.09375 12.453125 
z
" id="CMSS17-98"/>
      <path d="M 37.59375 27.984375 
C 37.59375 37.375 30.90625 43.875 21.90625 43.875 
C 17.5 43.875 12.703125 43.078125 7.203125 39.890625 
L 7.796875 33.359375 
C 10.296875 35.125 14.59375 38 21.796875 38 
C 26.90625 38 30 34.0625 30 27.84375 
L 30 24 
C 14 24 4 19.34375 4 11.34375 
C 4 7.203125 6.5 -1 14.796875 -1 
C 16.296875 -1 24.40625 -1 30.203125 3.390625 
L 30.203125 -0.296875 
L 37.59375 -0.296875 
z
M 30 12.75 
C 30 10.953125 30 8.5625 27 6.78125 
C 24.40625 5.078125 21.09375 5.078125 19.703125 5.078125 
C 14.703125 5.078125 11.296875 7.984375 11.296875 11.625 
C 11.296875 18.921875 26.90625 18.921875 30 18.921875 
z
" id="CMSS17-97"/>
      <path d="M 38.5 39.703125 
C 38.5 40.390625 33.90625 42.40625 32.703125 42.796875 
C 29.40625 44 25.203125 44 24.09375 44 
C 11.09375 44 3.296875 32.703125 3.296875 21.296875 
C 3.296875 9.296875 12 -1 23.703125 -1 
C 30.40625 -1 35.203125 1.1875 39.09375 3.78125 
L 38.5 10.375 
C 34.203125 7.078125 29.203125 5.265625 23.796875 5.265625 
C 16 5.265625 10.90625 12.09375 10.90625 21.390625 
C 10.90625 28.609375 14.203125 37.71875 24.203125 37.71875 
C 29.703125 37.71875 32.796875 36.609375 37.40625 33.515625 
z
" id="CMSS17-99"/>
      <path d="M 26.5 26.375 
L 42 42.796875 
L 32.40625 42.796875 
L 14.90625 24.28125 
L 14.90625 69 
L 7.5 69 
L 7.5 0 
L 14.796875 0 
L 14.796875 13.9375 
L 21.5 21 
L 35.59375 0 
L 44.09375 0 
z
" id="CMSS17-107"/>
      <path d="M 15.296875 65.359375 
L 6.90625 65.359375 
L 6.90625 57 
L 15.296875 57 
z
M 14.796875 42.796875 
L 7.40625 42.796875 
L 7.40625 0 
L 14.796875 0 
z
" id="CMSS17-105"/>
      <path d="M 40.90625 29.328125 
C 40.90625 35.671875 39.40625 44 28.09375 44 
C 21.703125 44 17.5 40.71875 14.703125 37.328125 
L 14.703125 43.09375 
L 7.40625 43.09375 
L 7.40625 0 
L 15 0 
L 15 24.359375 
C 15 30.6875 17.40625 37.9375 24.203125 37.9375 
C 33 37.9375 33.296875 32 33.296875 28.578125 
L 33.296875 0 
L 40.90625 0 
z
" id="CMSS17-110"/>
      <path d="M 44.5 43.875 
C 38.796875 43.875 33.90625 42.78125 29.90625 40.890625 
C 26.59375 43.390625 23.203125 43.875 20.90625 43.875 
C 12.203125 43.875 5.59375 36.703125 5.59375 28.34375 
C 5.59375 22.9375 8.59375 18.859375 8.796875 18.671875 
C 7 16.171875 6 13.484375 6 10.5 
C 6 7 7.40625 4.515625 8.5 3.125 
C 3.296875 -0.046875 2.59375 -4.90625 2.59375 -6.796875 
C 2.59375 -14.03125 11.703125 -20 23.40625 -20 
C 35.203125 -20 44.296875 -14.03125 44.296875 -6.6875 
C 44.296875 7 29 7 24.796875 7 
L 16.703125 7 
C 15.203125 7 11.203125 7 11.203125 12.359375 
C 11.203125 14.390625 12.09375 15.6875 12.203125 15.78125 
C 13.703125 14.6875 16.796875 13 20.90625 13 
C 29.203125 13 36.09375 19.96875 36.09375 28.546875 
C 36.09375 33.3125 33.90625 36.796875 33 38 
L 33.296875 38 
C 33.59375 38 37.796875 38 39.296875 38 
C 42.5 38 42.796875 37.953125 45.59375 37.796875 
z
M 20.90625 18.46875 
C 17.5 18.46875 12.703125 20.546875 12.703125 28.484375 
C 12.703125 37.109375 18.203125 38.5 20.796875 38.5 
C 24.203125 38.5 29 36.421875 29 28.484375 
C 29 19.859375 23.5 18.46875 20.90625 18.46875 
z
M 24.703125 -0.15625 
C 27.09375 -0.15625 37.203125 -0.15625 37.203125 -6.90625 
C 37.203125 -11.15625 31 -14.515625 23.5 -14.515625 
C 15.90625 -14.515625 9.703125 -11.25 9.703125 -6.796875 
C 9.703125 -6.296875 9.703125 -0.15625 16.59375 -0.15625 
z
" id="CMSS17-103"/>
      <path d="M 16.703125 37 
L 29.703125 37 
L 29.703125 42.765625 
L 16.703125 42.765625 
L 16.703125 55 
L 9.59375 55 
L 9.59375 42.765625 
L 1.703125 42.765625 
L 1.703125 37 
L 9.40625 37 
L 9.40625 11.703125 
C 9.40625 6 10.703125 -1 17.296875 -1 
C 22.296875 -1 26.90625 0.390625 31.296875 2.6875 
L 29.703125 8.5625 
C 27.296875 6.46875 24.40625 5.265625 21.296875 5.265625 
C 16.90625 5.265625 16.703125 10.875 16.703125 13.375 
z
" id="CMSS17-116"/>
      <path d="M 40.90625 29.546875 
C 40.90625 35.8125 39.40625 44.0625 28.09375 44.0625 
C 21.796875 44.0625 17.703125 40.984375 14.796875 37.609375 
L 14.796875 69.5 
L 7.40625 69.5 
L 7.40625 0.5 
L 15 0.5 
L 15 24.578125 
C 15 30.828125 17.40625 38 24.203125 38 
C 33 38 33.296875 32.125 33.296875 28.734375 
L 33.296875 0.5 
L 40.90625 0.5 
z
" id="CMSS17-104"/>
      <path d="M 39.09375 21.515625 
C 39.09375 24.84375 38.90625 31.296875 35.703125 36.640625 
C 32.203125 42.390625 26.5 44 22.203125 44 
C 11.796875 44 3 34.1875 3 21.484375 
C 3 9.09375 12.09375 -1 23.59375 -1 
C 28.09375 -1 33.59375 0.296875 38.59375 3.875 
C 38.59375 4.28125 38.40625 6.46875 38.296875 6.5625 
C 38.296875 6.765625 38 9.84375 38 10.25 
C 33.203125 6.359375 27.703125 5.078125 23.703125 5.078125 
C 17.296875 5.078125 10.40625 10.421875 10.09375 21.515625 
z
M 10.90625 27 
C 12.203125 32.5625 16.59375 37.828125 22.203125 37.828125 
C 23.703125 37.828125 30.703125 37.828125 32.5 27 
z
" id="CMSS17-101"/>
      <path d="M 32.203125 41.046875 
C 26.296875 43.859375 21.703125 43.859375 18.703125 43.859375 
C 11.59375 43.859375 3.09375 41.375 3.09375 31.296875 
C 3.09375 21.234375 14.09375 19.03125 17.09375 18.421875 
C 21.703125 17.53125 26.796875 16.53125 26.796875 11.5625 
C 26.796875 5.265625 19.59375 5.265625 18.296875 5.265625 
C 14.296875 5.265625 8.796875 6.359375 3.796875 9.96875 
L 2.59375 3.28125 
C 8.296875 0 13.796875 -1 18.40625 -1 
C 30.703125 -1 33.796875 6.5 33.796875 12.203125 
C 33.796875 17.09375 31 20.390625 29.09375 21.890625 
C 25.796875 24.5 24.59375 24.796875 16.40625 26.5 
C 15 26.703125 10.09375 27.796875 10.09375 32.28125 
C 10.09375 38 16.40625 38 17.796875 38 
C 24.296875 38 28.296875 35.984375 31 34.5 
z
" id="CMSS17-115"/>
     </defs>
     <g transform="translate(447.4496 57.415262)scale(0.12 -0.12)">
      <use transform="scale(0.996264)" xlink:href="#CMSS17-67"/>
      <use transform="translate(59.855772 0)scale(0.996264)" xlink:href="#CMSS17-117"/>
      <use transform="translate(139.289827 0)scale(0.996264)" xlink:href="#CMSS17-98"/>
      <use transform="translate(187.494771 0)scale(0.996264)" xlink:href="#CMSS17-97"/>
      <use transform="translate(232.416691 0)scale(0.996264)" xlink:href="#CMSS17-99"/>
      <use transform="translate(274.055513 0)scale(0.996264)" xlink:href="#CMSS17-107"/>
      <use transform="translate(319.658002 0)scale(0.996264)" xlink:href="#CMSS17-105"/>
      <use transform="translate(341.838726 0)scale(0.996264)" xlink:href="#CMSS17-110"/>
      <use transform="translate(390.043669 0)scale(0.996264)" xlink:href="#CMSS17-103"/>
      <use transform="translate(468.116405 0)scale(0.996264)" xlink:href="#CMSS17-116"/>
      <use transform="translate(501.947972 0)scale(0.996264)" xlink:href="#CMSS17-104"/>
      <use transform="translate(550.152915 0)scale(0.996264)" xlink:href="#CMSS17-105"/>
      <use transform="translate(572.333638 0)scale(0.996264)" xlink:href="#CMSS17-99"/>
      <use transform="translate(613.97246 0)scale(0.996264)" xlink:href="#CMSS17-107"/>
      <use transform="translate(659.574949 0)scale(0.996264)" xlink:href="#CMSS17-110"/>
      <use transform="translate(707.779892 0)scale(0.996264)" xlink:href="#CMSS17-101"/>
      <use transform="translate(749.418714 0)scale(0.996264)" xlink:href="#CMSS17-115"/>
      <use transform="translate(785.332256 0)scale(0.996264)" xlink:href="#CMSS17-115"/>
     </g>
    </g>
    <g id="line2d_45">
     <path d="M 459.16648 71.639858 
L 487.16648 71.639858 
" style="fill:none;stroke:#ff00ff;stroke-linecap:square;stroke-width:2;"/>
    </g>
    <g id="line2d_46"/>
    <g id="text_13">
     <!-- 1 mm -->
     <defs>
      <path d="M 28.40625 67 
L 26.5 67 
C 21.09375 61.5625 14.796875 60.78125 8.40625 60.78125 
L 8.40625 55 
C 11.296875 55 16 55 20.703125 57.296875 
L 20.703125 5.765625 
L 8.90625 5.765625 
L 8.90625 0 
L 40.203125 0 
L 40.203125 5.765625 
L 28.40625 5.765625 
z
" id="CMSS17-49"/>
      <path d="M 67 29.328125 
C 67 36.0625 65.296875 44 54.09375 44 
C 46.59375 44 42.09375 39.3125 40.09375 36.421875 
C 38.296875 41.71875 34.09375 44 28.09375 44 
C 21.296875 44 17 40.125 14.703125 37.328125 
L 14.703125 43.09375 
L 7.40625 43.09375 
L 7.40625 0 
L 15 0 
L 15 24.359375 
C 15 30.296875 17.203125 37.9375 24.296875 37.9375 
C 33.40625 37.9375 33.40625 31.5 33.40625 28.578125 
L 33.40625 0 
L 41 0 
L 41 24.359375 
C 41 30.296875 43.203125 37.9375 50.296875 37.9375 
C 59.40625 37.9375 59.40625 31.5 59.40625 28.578125 
L 59.40625 0 
L 67 0 
z
" id="CMSS17-109"/>
     </defs>
     <g transform="translate(498.36648 76.539858)scale(0.14 -0.14)">
      <use transform="scale(0.996264)" xlink:href="#CMSS17-49"/>
      <use transform="translate(78.072736 0)scale(0.996264)" xlink:href="#CMSS17-109"/>
      <use transform="translate(152.301991 0)scale(0.996264)" xlink:href="#CMSS17-109"/>
     </g>
    </g>
    <g id="line2d_47">
     <path d="M 459.16648 91.151886 
L 487.16648 91.151886 
" style="fill:none;stroke:#00008b;stroke-linecap:square;stroke-width:2;"/>
    </g>
    <g id="line2d_48"/>
    <g id="text_14">
     <!-- 3 mm -->
     <defs>
      <path d="M 15.703125 31.640625 
L 22.5 31.640625 
C 31.90625 31.640625 34.59375 23.546875 34.59375 17.90625 
C 34.59375 10.203125 30.203125 4.171875 23 4.171875 
C 17.40625 4.171875 9.5 6.9375 5 14.25 
C 4.296875 10.796875 4.296875 10.59375 3.90625 8.21875 
C 8.59375 1.375 16.203125 -2 23.203125 -2 
C 34.59375 -2 43 7.390625 43 17.78125 
C 43 25.59375 37.5 32.140625 30 34.609375 
C 36 37.875 40.40625 44 40.40625 51.140625 
C 40.40625 59.453125 32.703125 66.078125 23.296875 66.078125 
C 14.703125 66.078125 8 60.8125 5.203125 55.15625 
C 5.90625 54.1875 7.703125 51.3125 8.59375 49.828125 
C 10.796875 55.65625 16.5 60 23.203125 60 
C 28.796875 60 32.5 56.359375 32.5 51.109375 
C 32.5 45.671875 29 39.734375 23.09375 38.359375 
C 22.703125 38.359375 16.5 37.765625 15.703125 37.671875 
z
" id="CMSS17-51"/>
     </defs>
     <g transform="translate(498.36648 96.051886)scale(0.14 -0.14)">
      <use transform="scale(0.996264)" xlink:href="#CMSS17-51"/>
      <use transform="translate(78.072736 0)scale(0.996264)" xlink:href="#CMSS17-109"/>
      <use transform="translate(152.301991 0)scale(0.996264)" xlink:href="#CMSS17-109"/>
     </g>
    </g>
    <g id="line2d_49">
     <path d="M 459.16648 110.663915 
L 487.16648 110.663915 
" style="fill:none;stroke:#008000;stroke-linecap:square;stroke-width:2;"/>
    </g>
    <g id="line2d_50"/>
    <g id="text_15">
     <!-- 5 mm -->
     <defs>
      <path d="M 14.59375 58.625 
L 39.09375 58.625 
L 39.09375 65 
L 7.296875 65 
L 7.296875 27.828125 
L 14 27.828125 
C 15.796875 31.96875 19.5 35 24.296875 35 
C 28.796875 35 33.796875 31.078125 33.796875 19.78125 
C 33.796875 7.703125 26.703125 4.171875 21.5 4.171875 
C 15.09375 4.171875 9.203125 8 6.59375 13.296875 
L 3.40625 7.796875 
C 8 0.765625 15.5 -2 21.5 -2 
C 33.09375 -2 42.203125 7.765625 42.203125 19.578125 
C 42.203125 31.71875 34.09375 41.078125 24.40625 41.078125 
C 20.90625 41.078125 17.5 39.890625 14.59375 37.484375 
z
" id="CMSS17-53"/>
     </defs>
     <g transform="translate(498.36648 115.563915)scale(0.14 -0.14)">
      <use transform="scale(0.996264)" xlink:href="#CMSS17-53"/>
      <use transform="translate(78.072736 0)scale(0.996264)" xlink:href="#CMSS17-109"/>
      <use transform="translate(152.301991 0)scale(0.996264)" xlink:href="#CMSS17-109"/>
     </g>
    </g>
    <g id="line2d_51">
     <path d="M 459.16648 130.175943 
L 487.16648 130.175943 
" style="fill:none;stroke:#ffa500;stroke-linecap:square;stroke-width:2;"/>
    </g>
    <g id="line2d_52"/>
    <g id="text_16">
     <!-- 7 mm -->
     <defs>
      <path d="M 21.703125 59 
C 22.90625 59 24.09375 59 25.296875 59 
L 36.796875 59 
C 22.5 42.359375 14.296875 21.328125 14.296875 -0.5 
L 22.296875 -0.5 
C 22.296875 20.671875 29.296875 42.125 43 59.296875 
L 43 65.765625 
L 3.90625 65.765625 
L 3.90625 59 
z
" id="CMSS17-55"/>
     </defs>
     <g transform="translate(498.36648 135.075943)scale(0.14 -0.14)">
      <use transform="scale(0.996264)" xlink:href="#CMSS17-55"/>
      <use transform="translate(78.072736 0)scale(0.996264)" xlink:href="#CMSS17-109"/>
      <use transform="translate(152.301991 0)scale(0.996264)" xlink:href="#CMSS17-109"/>
     </g>
    </g>
    <g id="line2d_53">
     <path d="M 459.16648 149.687972 
L 487.16648 149.687972 
" style="fill:none;stroke:#ff0000;stroke-linecap:square;stroke-width:2;"/>
    </g>
    <g id="line2d_54"/>
    <g id="text_17">
     <!-- 10 mm -->
     <defs>
      <path d="M 43.09375 31.9375 
C 43.09375 37.578125 43 48.078125 38.90625 56.1875 
C 34.796875 64 28.203125 66.078125 23.5 66.078125 
C 16.703125 66.078125 10.90625 62.109375 7.90625 55.78125 
C 4.703125 49.15625 3.796875 42.328125 3.796875 31.9375 
C 3.796875 24.828125 4.09375 16.109375 7.703125 8.484375 
C 11.796875 0.078125 18.703125 -2 23.40625 -2 
C 29.59375 -2 35.59375 1.265625 39 8.09375 
C 42.5 15.21875 43.09375 23.03125 43.09375 31.9375 
z
M 23.40625 4.078125 
C 15.796875 4.078125 13.5 12.671875 12.796875 15.546875 
C 11.59375 20.46875 11.40625 25.21875 11.40625 33.03125 
C 11.40625 39.15625 11.40625 46.0625 13.296875 51.515625 
C 15.59375 57.828125 19.59375 60 23.40625 60 
C 30.796875 60 33.203125 52.6875 34 50.125 
C 35.5 44.890625 35.5 38.765625 35.5 33.03125 
C 35.5 23.84375 35.5 4.078125 23.40625 4.078125 
z
" id="CMSS17-48"/>
     </defs>
     <g transform="translate(498.36648 154.587972)scale(0.14 -0.14)">
      <use transform="scale(0.996264)" xlink:href="#CMSS17-49"/>
      <use transform="translate(46.843624 0)scale(0.996264)" xlink:href="#CMSS17-48"/>
      <use transform="translate(124.91636 0)scale(0.996264)" xlink:href="#CMSS17-109"/>
      <use transform="translate(199.145614 0)scale(0.996264)" xlink:href="#CMSS17-109"/>
     </g>
    </g>
   </g>
   <g id="legend_2">
    <g id="patch_8">
     <path d="M 444.6496 257.4 
L 566.084673 257.4 
Q 568.884673 257.4 568.884673 254.6 
L 568.884673 199.349168 
Q 568.884673 196.549168 566.084673 196.549168 
L 444.6496 196.549168 
Q 441.8496 196.549168 441.8496 199.349168 
L 441.8496 254.6 
Q 441.8496 257.4 444.6496 257.4 
z
" style="fill:#ffffff;opacity:0.8;stroke:#cccccc;stroke-linejoin:miter;"/>
    </g>
    <g id="text_18">
     <!-- Target backing material -->
     <defs>
      <path d="M 36.203125 62 
L 44.5 62 
C 45.703125 62 46.90625 62 48.09375 62 
L 60.59375 62 
L 60.59375 68.375 
L 3.40625 68.375 
L 3.40625 62 
L 15.90625 62 
C 17.09375 62 18.296875 62 19.5 62 
L 27.796875 62 
L 27.796875 -0.5 
L 36.203125 -0.5 
z
" id="CMSS17-84"/>
      <path d="M 14.90625 21.296875 
C 14.90625 30.703125 21.796875 37 30.59375 37 
L 30.59375 43.578125 
C 24.203125 43.578125 18.203125 40.390625 14.59375 35.203125 
L 14.59375 43.09375 
L 7.5 43.09375 
L 7.5 0 
L 14.90625 0 
z
" id="CMSS17-114"/>
      <path d="M 14.796875 69 
L 7.40625 69 
L 7.40625 0 
L 14.796875 0 
z
" id="CMSS17-108"/>
     </defs>
     <g transform="translate(447.4496 210.451347)scale(0.12 -0.12)">
      <use transform="scale(0.996264)" xlink:href="#CMSS17-84"/>
      <use transform="translate(56.012199 0)scale(0.996264)" xlink:href="#CMSS17-97"/>
      <use transform="translate(98.331665 0)scale(0.996264)" xlink:href="#CMSS17-114"/>
      <use transform="translate(130.241438 0)scale(0.996264)" xlink:href="#CMSS17-103"/>
      <use transform="translate(177.085061 0)scale(0.996264)" xlink:href="#CMSS17-101"/>
      <use transform="translate(218.723883 0)scale(0.996264)" xlink:href="#CMSS17-116"/>
      <use transform="translate(283.784563 0)scale(0.996264)" xlink:href="#CMSS17-98"/>
      <use transform="translate(331.989506 0)scale(0.996264)" xlink:href="#CMSS17-97"/>
      <use transform="translate(376.911427 0)scale(0.996264)" xlink:href="#CMSS17-99"/>
      <use transform="translate(418.550249 0)scale(0.996264)" xlink:href="#CMSS17-107"/>
      <use transform="translate(464.152738 0)scale(0.996264)" xlink:href="#CMSS17-105"/>
      <use transform="translate(486.333461 0)scale(0.996264)" xlink:href="#CMSS17-110"/>
      <use transform="translate(534.538404 0)scale(0.996264)" xlink:href="#CMSS17-103"/>
      <use transform="translate(612.61114 0)scale(0.996264)" xlink:href="#CMSS17-109"/>
      <use transform="translate(686.840395 0)scale(0.996264)" xlink:href="#CMSS17-97"/>
      <use transform="translate(731.762315 0)scale(0.996264)" xlink:href="#CMSS17-116"/>
      <use transform="translate(765.593882 0)scale(0.996264)" xlink:href="#CMSS17-101"/>
      <use transform="translate(807.232704 0)scale(0.996264)" xlink:href="#CMSS17-114"/>
      <use transform="translate(839.142477 0)scale(0.996264)" xlink:href="#CMSS17-105"/>
      <use transform="translate(861.3232 0)scale(0.996264)" xlink:href="#CMSS17-97"/>
      <use transform="translate(906.24512 0)scale(0.996264)" xlink:href="#CMSS17-108"/>
     </g>
    </g>
    <g id="line2d_55">
     <path d="M 478.724754 224.675943 
L 478.724754 224.675943 
" style="fill:none;stroke:#000000;stroke-linecap:square;stroke-width:2;"/>
    </g>
    <g id="line2d_56">
     <defs>
      <path d="M -5 5 
L 5 5 
L 5 -5 
L -5 -5 
z
" id="m1795435ea4" style="stroke:#000000;stroke-linejoin:miter;"/>
     </defs>
     <g>
      <use style="stroke:#000000;stroke-linejoin:miter;" x="478.724754" xlink:href="#m1795435ea4" y="224.675943"/>
     </g>
    </g>
    <g id="text_19">
     <!-- CuOFE -->
     <defs>
      <path d="M 64 34.03125 
C 64 54.734375 50.296875 70.265625 34.59375 70.265625 
C 18.90625 70.265625 5.203125 54.640625 5.203125 34.03125 
C 5.203125 13.234375 19.09375 -2 34.59375 -2 
C 50.09375 -2 64 13.234375 64 34.03125 
z
M 34.59375 4.265625 
C 23.59375 4.265625 13.59375 16.515625 13.59375 35.328125 
C 13.59375 53.640625 24.203125 64 34.59375 64 
C 45 64 55.59375 53.640625 55.59375 35.328125 
C 55.59375 16.421875 45.5 4.265625 34.59375 4.265625 
z
" id="CMSS17-79"/>
      <path d="M 45.59375 31 
L 45.59375 37.078125 
L 17.203125 37.078125 
L 17.203125 62 
L 29.40625 62 
C 30.59375 62 31.796875 62 33 62 
L 49.5 62 
L 49.5 68.359375 
L 8.796875 68.359375 
L 8.796875 -0.5 
L 17.203125 -0.5 
L 17.203125 31 
z
" id="CMSS17-70"/>
      <path d="M 30.59375 6.765625 
C 22.59375 6.765625 19 6.765625 17.203125 6.765625 
L 17.203125 32.921875 
L 48.203125 32.921875 
L 48.203125 39 
L 17.203125 39 
L 17.203125 62.640625 
L 30.09375 62.640625 
C 31.296875 62.640625 32.5 62.640625 33.703125 62.640625 
L 50.796875 62.640625 
L 50.796875 69 
L 8.796875 69 
L 8.796875 0 
L 52.09375 0 
L 52.09375 6.765625 
z
" id="CMSS17-69"/>
     </defs>
     <g transform="translate(489.924754 229.575943)scale(0.14 -0.14)">
      <use transform="scale(0.996264)" xlink:href="#CMSS17-67"/>
      <use transform="translate(59.855772 0)scale(0.996264)" xlink:href="#CMSS17-117"/>
      <use transform="translate(108.060715 0)scale(0.996264)" xlink:href="#CMSS17-79"/>
      <use transform="translate(177.08497 0)scale(0.996264)" xlink:href="#CMSS17-70"/>
      <use transform="translate(230.374529 0)scale(0.996264)" xlink:href="#CMSS17-69"/>
     </g>
    </g>
    <g id="line2d_57">
     <path d="M 478.724754 244.187972 
L 478.724754 244.187972 
" style="fill:none;stroke:#000000;stroke-dasharray:7.4,3.2;stroke-dashoffset:0;stroke-width:2;"/>
    </g>
    <g id="line2d_58">
     <defs>
      <path d="M 0 5 
C 1.326016 5 2.597899 4.473168 3.535534 3.535534 
C 4.473168 2.597899 5 1.326016 5 0 
C 5 -1.326016 4.473168 -2.597899 3.535534 -3.535534 
C 2.597899 -4.473168 1.326016 -5 0 -5 
C -1.326016 -5 -2.597899 -4.473168 -3.535534 -3.535534 
C -4.473168 -2.597899 -5 -1.326016 -5 0 
C -5 1.326016 -4.473168 2.597899 -3.535534 3.535534 
C -2.597899 4.473168 -1.326016 5 0 5 
z
" id="maa91e24fe8" style="stroke:#000000;"/>
     </defs>
     <g>
      <use style="stroke:#000000;" x="478.724754" xlink:href="#maa91e24fe8" y="244.187972"/>
     </g>
    </g>
    <g id="text_20">
     <!-- CuCrZr -->
     <defs>
      <path d="M 52.203125 64.921875 
L 52.203125 69 
L 6.5 69 
L 6.5 62.734375 
L 25.203125 62.734375 
C 26.40625 62.734375 27.59375 62.734375 28.796875 62.734375 
L 41.59375 62.734375 
L 5.203125 4.28125 
L 5.203125 0 
L 52.703125 0 
L 52.703125 6.46875 
L 43.796875 6.46875 
C 35.5 6.46875 27.09375 6.46875 18.796875 6.46875 
L 15.796875 6.46875 
z
" id="CMSS17-90"/>
     </defs>
     <g transform="translate(489.924754 249.087972)scale(0.14 -0.14)">
      <use transform="scale(0.996264)" xlink:href="#CMSS17-67"/>
      <use transform="translate(59.855772 0)scale(0.996264)" xlink:href="#CMSS17-117"/>
      <use transform="translate(108.060715 0)scale(0.996264)" xlink:href="#CMSS17-67"/>
      <use transform="translate(167.916486 0)scale(0.996264)" xlink:href="#CMSS17-114"/>
      <use transform="translate(199.826259 0)scale(0.996264)" xlink:href="#CMSS17-90"/>
      <use transform="translate(257.079592 0)scale(0.996264)" xlink:href="#CMSS17-114"/>
     </g>
    </g>
   </g>
  </g>
 </g>
 <defs>
  <clipPath id="pa491ab0a2f">
   <rect height="252" width="328.32" x="103.68" y="43.2"/>
  </clipPath>
 </defs>
</svg>
